<?xml version="1.0" encoding="UTF-8"?> <!-- Creator: CorelDRAW X8 --> <svg xmlns="http://www.w3.org/2000/svg" xmlns:xlink="http://www.w3.org/1999/xlink" xml:space="preserve" width="55.386mm" height="363.714mm" style="shape-rendering:geometricPrecision; text-rendering:geometricPrecision; image-rendering:optimizeQuality; fill-rule:evenodd; clip-rule:evenodd" viewBox="0 0 5539 36371"> <defs> <style type="text/css"> <![CDATA[ .fil0 {fill:#473064} ]]> </style> </defs> <g id="Слой_x0020_1"> <metadata id="CorelCorpID_0Corel-Layer"></metadata> <path class="fil0" d="M2912 35357c-46,46 -63,-17 -84,57 -9,30 21,224 26,256 11,85 89,535 112,550 34,21 126,-4 128,-5 75,-40 43,-184 39,-283 -4,-138 35,-146 1,-190 11,13 -109,-24 -110,-25 -15,-90 72,-55 90,-121 15,-50 -30,-208 -30,-208 -81,-50 -107,179 -185,127 -74,-49 293,-362 122,-324 -41,10 -45,102 -109,166zm82 -406c18,-22 -184,165 -195,238 -45,295 359,-250 213,-268 -21,-3 -9,18 -18,30zm-405 -1798c-3,13 -5,229 5,318 19,155 91,469 112,756 16,234 28,511 67,705 -24,-121 -2,107 38,114 43,9 334,-510 118,-259 -151,173 -60,-30 -24,-98 23,-43 74,-137 78,-168 24,-208 -119,2 -140,-44 -35,-74 91,-197 100,-246 14,-73 -34,-220 -51,-338 -41,-284 -39,-436 -55,-656 -24,-322 -115,142 -195,47 -51,-61 310,-408 162,-416 -24,0 -205,252 -215,285zm15 -555c-15,2 -65,-16 -62,-22 -55,96 65,468 57,466 -15,-3 213,-334 200,-301 97,-250 -154,-1 -143,4 -67,-39 163,-294 88,-295 -45,0 -101,140 -140,148zm63 -551c15,-18 -148,120 -155,146 3,-10 4,356 47,370 9,2 194,-292 185,-303 -21,-25 -116,178 -171,144 -64,-39 272,-388 112,-388 -22,1 -8,18 -18,31zm-103 -104c-2,3 -142,129 -26,124 6,0 265,-309 152,-305 -55,3 -99,134 -126,181zm-97 -930c-4,86 -32,145 -31,188 0,31 60,670 71,673 5,2 204,-328 201,-317 28,-94 16,-678 -34,-733 -36,-42 -40,36 -97,23 -89,-19 -31,-124 -106,-57 -74,67 3,111 -4,223zm-1327 -1972c118,244 50,-186 204,-157 122,22 -129,258 -95,373 -8,-30 53,86 89,71 -5,2 65,-203 47,-171 8,-14 63,-124 118,-85 81,58 -155,315 -149,257 -15,136 421,298 551,444 148,167 265,270 375,445 74,118 126,269 114,-22 -10,-229 -51,-503 -136,-647 -42,-70 -360,-365 -450,-324 -30,13 -86,359 -155,336 -121,-39 167,-407 50,-408 -110,-3 -98,264 -179,239 -79,-25 64,-302 59,-329 -15,-90 -248,-244 -365,-380 -41,-49 -161,-244 -189,-207 -60,76 98,538 111,565zm2394 -307c-119,187 -244,437 -322,609 -126,281 -320,519 -391,682 -68,157 -255,675 -74,502 181,-171 377,-430 514,-624 203,-287 319,-725 336,-973 7,-111 15,-273 -9,-271 -15,2 -54,75 -54,75zm-875 -931c9,385 12,739 -3,1159 -8,253 -11,515 -46,743 -33,211 -143,468 -101,627 37,140 60,48 82,-24 45,-144 92,-354 137,-497 25,-79 71,-95 77,-152 4,-51 -41,-127 -48,-195 -32,-332 -2,-858 -22,-1242 -5,-99 -71,-663 -90,-627 -27,51 13,147 14,208zm7 -461c3,-3 42,-419 -38,-305 -53,75 45,299 38,305zm-752 -2575c-36,161 -13,392 -14,540 -3,272 97,805 216,1020 67,122 440,542 333,202 -101,-317 -231,-736 -225,-1115 3,-112 55,-408 -53,-307 -46,43 -87,233 -144,195 -23,-17 -3,-152 51,-219 26,-32 162,-61 164,-65 24,-37 27,-467 -7,-478 5,2 -110,207 -114,213 -239,365 -146,-56 20,-236 24,-26 92,-40 102,-71 30,-99 -28,-130 -37,-130 -61,-2 -282,405 -292,451zm81 -390c-25,12 -59,-14 -64,-5 -71,139 -2,175 38,114 41,-63 161,-238 212,-252 11,-3 48,17 46,19 29,-61 -14,-117 -38,-114 -79,13 -88,186 -194,238zm-2 -175c-39,43 -69,-2 -82,25 -60,138 9,117 43,68 42,-65 317,-358 204,-349 -77,6 -107,192 -165,256zm67 -423c-7,8 -247,344 -141,353 -11,-1 22,-36 19,-30 39,-66 294,-389 141,-354 -1,1 -17,29 -19,31zm1589 7c-109,164 -192,406 -244,631 -148,652 -29,1592 -342,1990 -15,18 -301,216 -232,298 24,28 272,-94 130,-37 101,-40 81,-46 118,-70 96,-64 313,-180 309,-276 2,54 -167,-155 -142,-203 59,-110 171,97 183,95 21,-3 77,-76 75,-136 -3,-61 -237,-194 -167,-285 78,-101 175,220 240,164 137,-118 -152,-200 -153,-252 -3,-126 382,172 262,-89 -16,-33 -58,-11 -78,-22 -60,-34 -90,-108 -97,-167 -6,-49 48,-45 55,-91 10,-63 -107,-114 -4,-143 20,-6 169,138 143,202 -25,60 -135,5 -57,107 109,145 75,-307 84,-422 22,-320 50,-778 29,-1110 -8,-120 -31,-234 -76,-229 -30,4 -21,23 -36,45zm-1771 -102c17,111 8,197 56,84 22,-51 105,-78 105,-118 1,-56 -180,-175 -192,-159 -33,40 25,155 31,193zm527 -4549c-101,349 9,767 14,1145 11,903 2,1666 44,2500 17,347 20,703 9,1017 -4,126 -44,245 -46,362 -6,263 50,611 46,958 -3,292 -75,511 -31,744 36,190 100,394 159,570 97,289 126,29 110,-182 -44,-589 -105,-1130 -128,-1679 -10,-232 -34,-470 -22,-685 18,-297 98,-581 75,-884 -22,-282 -59,-556 -72,-849 -13,-299 14,-605 -3,-906 -35,-627 -53,-1251 -66,-1849 -2,-65 19,-384 -87,-293 -4,3 -1,26 -2,31zm-1382 -402c55,79 722,60 745,31 112,-142 -68,-124 -114,-153 -94,-59 -4,105 -103,87 -37,-7 -64,-214 -147,-140 35,-32 -14,169 -30,172 -116,30 0,-294 -159,-188 -11,8 97,176 -44,139 -63,-16 -37,-276 -109,-216 -60,52 -36,271 -39,268zm1070 137c72,-42 -37,-419 -43,-432 0,0 -1,16 -1,16 -179,-7 -99,501 44,416zm-1159 -208c109,-68 15,-436 -128,-361 -168,90 63,401 128,361zm1450 -228c-19,161 -36,458 89,453 88,-4 304,-103 317,-181 20,-119 -283,-428 -403,-303 -4,3 -2,25 -3,31zm-199 95c10,136 -6,410 114,343 45,-24 -44,-475 -53,-497 1,1 -2,15 -1,16 -129,-45 -63,88 -60,138zm850 -88c-3,-4 247,-59 262,-89 29,-57 -30,-97 -39,-99 -51,-5 -236,173 -223,188zm664 -150c-30,18 -73,83 -121,117 -160,112 -587,157 -642,263 -13,26 -13,158 -13,158 31,46 414,79 535,61 186,-27 388,-207 427,-345 25,-89 28,-267 -7,-303 -13,-14 -50,12 -48,12 -83,-22 -160,55 -131,37zm-301 -9c120,88 102,-243 -2,-160 -48,38 -29,136 2,160zm199 -96c105,14 -20,-276 -59,-243 -43,37 5,237 59,243zm310 -100c29,71 182,60 206,17 51,-92 -107,-247 -107,-247 -16,5 -108,207 -99,230zm-3330 -456c-11,-9 222,-7 242,-43 37,-71 -73,-128 -150,-108 -42,11 -145,106 -92,151zm3213 335c1,-11 -151,-252 -154,-252 -106,50 129,496 154,252zm-2865 -130c14,127 239,391 358,459 96,53 566,200 441,52 -87,-102 -295,-227 -372,-301 -104,-99 -161,-601 -251,-609 -148,-14 -193,251 -176,399zm2747 -166c0,-1 15,-59 66,-27 39,26 0,28 37,131 108,306 207,-291 -29,-225 -50,14 -85,76 -74,121zm361 62c3,20 211,256 216,256 86,-9 -176,-355 -47,-385 99,-22 56,242 154,251 52,6 27,-36 54,-74 69,-97 -113,-115 -123,-233 -12,-141 95,-50 140,27 122,210 65,-70 9,-110 -56,-41 -116,-17 -141,-12 -60,11 -279,162 -262,280zm-1237 150c-59,126 -229,331 -207,380 8,18 134,40 140,44 152,70 108,90 272,-25 218,-153 495,-491 523,-735 29,-261 -112,-491 -246,-482 -329,24 -347,528 -482,818zm-1414 -199c56,96 165,272 225,353 49,65 287,322 322,329 29,6 235,-100 250,-138 -3,8 -3,-182 -12,-239 -20,-133 -101,-304 -149,-490 -63,-243 -116,-652 -460,-579 -286,62 -290,567 -176,764zm-800 -687c-78,159 -387,-78 -348,177 11,76 166,90 177,158 35,203 -237,123 -268,168 -23,32 2,148 65,165 9,2 137,-73 133,-69 71,-74 118,-218 247,-297 41,-24 83,-48 132,-52 -42,3 159,27 157,29 12,-13 -28,-165 -29,-225 -3,-206 56,-485 -191,-366 -129,62 -13,186 -75,312zm2954 26c-4,32 68,120 82,166 27,96 16,237 73,260 -7,-2 139,-30 146,-35 137,-92 112,-440 11,-507 -30,-20 -90,-20 -142,-12 -49,7 -160,64 -170,128zm-1334 -191c-32,147 -82,256 -77,342 17,292 253,458 258,706 4,171 -74,263 39,289 84,19 276,-345 290,-420 7,-40 -37,-75 -38,-115 -1,-46 41,-109 45,-155 23,-301 -177,-990 -381,-954 -127,23 -106,164 -136,307zm-419 -497c20,31 190,-85 85,-72 -50,6 -113,30 -85,72zm280 -501c-88,153 -387,-34 -395,-33 -7,1 -77,38 -86,88 -55,301 439,-46 447,165 4,110 161,-66 229,-76 12,-2 71,15 79,6 128,-142 -134,-320 -249,-259 -26,14 -14,91 -25,109zm753 -635c-60,371 -49,540 -88,851 -20,164 -120,478 -50,599 81,141 76,-76 75,-137 -5,-249 -4,-528 44,-902 8,-56 65,-555 45,-537 -9,10 -25,117 -26,126zm179 -2687c-3,605 -83,1485 -123,2023 -5,63 -26,428 27,242 122,-429 80,-988 140,-1467 20,-161 47,-273 52,-425 6,-255 120,-777 -32,-749 -130,23 -63,255 -64,376zm-641 -499c2,-19 -87,265 9,270 25,2 97,-439 -23,-303 -7,8 15,26 14,33zm310 90c0,56 -45,123 -14,157 49,53 439,-254 133,-258 -135,-3 -119,-14 -119,101zm-98 214c20,-12 58,-368 -19,-336 -112,47 -90,398 19,336zm-377 -239c18,267 90,-122 76,-137 -17,-15 -61,4 -66,11 -12,27 -13,83 -10,126zm1671 -18c-87,31 -205,69 -310,86 -34,4 -144,-51 -145,19 -1,47 187,96 278,103 152,12 513,-43 550,-113 63,-121 -18,-190 -95,-198 -109,-12 -184,69 -278,103zm-640 -340c17,-25 -130,158 -110,182 39,46 211,28 240,-28 24,-44 -102,-194 -110,-200 1,1 -1,16 -1,16 -22,4 -7,14 -19,30zm-1398 -197c13,69 147,189 138,60 -8,-146 218,-314 271,-184 32,80 -223,254 -202,316 25,74 455,134 560,143 64,5 275,43 316,26 3,-1 55,-103 56,-106 75,-149 -15,-296 -97,-358 -96,-73 -209,-59 -324,-107 -100,-40 -215,-96 -359,-78 -151,18 -396,81 -359,288zm2414 -162c-56,85 -211,294 -352,400 -45,34 -239,125 -300,164 -228,150 99,76 204,34 102,-41 388,-152 465,-231 79,-82 220,-463 2,-397 -22,6 -7,12 -19,30zm-2952 -42c9,40 356,278 391,256 47,-31 5,-101 11,-127 8,-35 37,-132 63,-185 10,-20 101,-90 91,-136 -19,-88 -242,-137 -307,-121 -85,20 -274,214 -249,313zm1523 -158c-16,60 76,130 149,124 90,-8 186,-206 177,-224 -15,-31 -65,-5 -79,-7 -29,-1 -242,87 -247,107zm-543 -157c44,27 340,93 341,92 50,-31 2,-100 2,-206 1,-90 51,-60 14,-158 -29,-76 -168,-158 -258,-149 -238,25 -262,321 -99,421zm1057 89c-32,68 -245,226 -233,314 0,1 67,91 88,87 53,-9 215,-469 252,-535 33,-61 151,-160 146,-226 -4,-54 -96,-135 -150,-108 -70,34 -48,352 -103,468zm513 -434c-162,138 -523,664 -518,878 0,3 95,308 100,311 107,59 67,-111 48,-186 -11,-44 -103,-209 2,-207 75,1 43,248 119,280 19,8 167,-80 252,-169 86,-90 313,-387 320,-402 16,-35 48,-193 48,-187 1,-14 0,-191 -30,-209 -39,-24 -52,78 -98,23 -38,-47 47,-47 26,-109 -21,-59 -80,-44 -139,-43 -67,0 -106,0 -130,20zm-1070 69c-21,63 -44,343 48,369 -10,-3 49,-41 52,-43 41,-29 154,-103 215,-109 104,-9 58,55 111,10 62,-54 57,-307 -4,-334 -7,-3 -68,64 -53,59 -121,43 -312,47 -284,-24 27,-68 294,-23 280,-119 -8,-58 -145,-47 -155,-45 -46,9 -168,111 -210,236zm1604 9c74,-11 -22,-214 -96,-183 -16,6 22,192 96,183zm-3199 -127c-72,100 -195,-63 -230,-99 -122,-127 -12,340 17,351 69,25 71,-65 103,-87 55,-36 162,-32 179,-49 84,-83 47,-609 -29,-590 -137,35 28,380 -40,474zm1973 -407c-5,34 -38,106 -27,126 22,37 127,53 140,43 22,-18 -3,-102 18,-220 29,-160 160,-442 38,-442 -175,-2 -142,315 -169,493zm1233 -292c-24,-14 -2,-115 -37,-131 -138,-61 -433,212 -282,326 64,49 105,-67 176,-17 99,69 -90,212 -55,281 90,181 262,-108 310,-101 145,23 -3,218 88,278 92,62 347,-307 271,-390 -22,-24 -142,27 -160,18 -112,-56 146,-176 121,-308 -17,-92 -166,-124 -213,-113 -112,27 -117,216 -219,157zm-517 -664c49,104 417,-42 164,-66 -26,-2 -161,71 -164,66zm-946 95c-12,62 82,401 215,288 2,-1 -161,-327 -83,-341 87,-15 118,300 148,315 111,57 236,-160 203,-333 -18,-93 -100,-163 -193,-159 -62,3 -268,119 -290,230zm1327 -95c61,-5 30,-196 -16,-176 -67,29 -49,182 16,176zm-253 -196c23,27 201,-114 85,-72 -19,7 -113,38 -85,72zm481 136c28,-36 -57,-245 -110,-200 -54,46 35,297 110,200zm-2592 20c60,112 290,213 489,231 286,29 292,-90 433,-233 40,-40 77,-52 118,-85 1,-1 117,-61 104,-103 -12,-38 -377,-142 -447,-164 -196,-64 -388,-144 -530,-124 -227,30 -268,292 -167,478zm2675 -60c149,79 80,-320 27,-316 -102,6 -68,293 -27,316zm95 -374c0,-9 62,110 65,164 13,184 160,-84 130,-212 -11,-42 -47,-26 -42,-66 10,-92 123,-158 -8,-96 -66,31 -145,123 -145,210zm-3461 -801c-8,0 -47,-73 -92,-39 -103,80 142,247 190,207 51,-44 -32,-211 -31,-209 2,2 -3,14 -1,16 -65,-43 -41,26 -66,25zm1158 35c-246,-54 -262,105 -345,320 -104,269 -20,-227 -28,-241 -16,-28 -135,96 -83,41 -96,100 -42,186 11,255 98,131 94,146 147,-51 8,-28 92,-324 183,-286 70,29 -26,104 -65,201 -22,55 -89,338 -18,220 43,-70 102,-344 170,-319 132,50 -247,473 -73,487 96,7 113,-443 207,-380 108,73 -150,303 -98,405 35,67 342,92 450,134 19,7 90,70 89,70 53,22 359,99 270,7 -68,-68 -211,-240 -231,-274 -153,-244 -276,-522 -586,-589zm2180 342c-5,44 -40,198 -89,295 -22,44 -208,231 -165,256 32,18 386,-321 454,-470 79,-177 -20,-339 -133,-313 -130,29 -51,96 -67,232zm-804 107c-89,156 -221,329 -259,439 -117,336 182,211 323,123 232,-146 460,-252 553,-525 17,-52 64,-165 47,-187 -9,-13 -89,36 -160,18 -1,0 -185,-128 -158,-204 20,-53 61,-84 148,-51 58,22 -4,38 53,116 170,229 102,-242 24,-284 -42,-23 -81,7 -95,8 -248,9 -341,312 -476,547zm-668 7c12,80 170,331 243,323 81,-7 331,-488 350,-574 68,-297 -3,-642 -236,-592 -190,41 -402,538 -357,843zm-1392 -1022c-24,47 -23,276 -144,194 -23,-16 3,-204 2,-207 -24,-113 -184,-131 -247,-84 -15,12 -78,144 -83,231 -2,40 34,283 105,263 14,-3 -43,-150 44,-154 142,-8 -37,358 61,417 -16,-9 76,18 96,-7 0,-1 -133,-384 12,-333 43,16 60,268 55,291 -6,32 -58,35 -37,60 105,126 202,-140 255,-201 28,-30 163,-85 57,-106 -95,-20 6,-66 -6,-112 -17,-63 -93,7 -58,-68 22,-48 70,-32 116,-54 146,-70 165,-287 -25,-273 -42,4 -165,69 -203,143zm2853 -475c-74,74 -188,-22 -255,10 -20,10 -77,116 -77,168 -2,89 93,100 49,163 -25,37 -108,-23 -159,3 -71,36 -76,246 41,274 140,33 174,-163 280,-120 115,47 5,135 28,225 30,115 314,271 311,90 -1,-49 -181,-110 -145,-172 57,-96 231,44 283,40 84,-5 195,-118 181,-255 -9,-85 -201,-271 -280,-261 -43,5 -111,210 -204,157 -87,-49 129,-317 -34,-352 3,0 -18,29 -19,30zm-1093 -792c-19,163 -72,573 -92,723 -13,91 -81,582 -53,616 23,26 32,-21 83,-41 47,-17 56,47 98,-23 58,-102 5,-574 36,-808 7,-51 31,-95 26,-125 -13,-77 -87,-43 -68,-133 3,-12 97,-36 99,-39 40,-65 -83,-242 -126,-201 -4,3 -2,26 -3,31zm-7 -667c-20,46 10,565 15,573 21,30 49,-28 66,-27 12,1 65,65 75,54 82,-98 -41,-168 -74,-260 -5,-13 39,-45 37,-61 -5,-44 -83,-100 -85,-118 -9,-74 189,34 170,46 -9,6 52,-176 34,-203 -29,-45 -128,-50 -172,-31 -1,0 -56,1 -66,27zm630 -122c79,101 227,-132 71,-90 -9,2 -89,66 -71,90zm-727 -46c55,-62 -80,-152 -83,-150 -118,60 43,194 83,150zm953 1c156,103 104,-263 1,-207 -34,20 -53,172 -1,207zm-1141 -49c68,-31 113,-446 -33,-352 -53,34 -125,429 33,352zm-264 -69c81,53 203,-422 129,-387 -25,12 -178,353 -129,387zm-366 -365c59,-30 -49,-149 31,-172 163,-48 -27,382 115,327 40,-15 17,-362 134,-275 31,23 -28,172 -34,220 -28,206 43,191 88,87 28,-64 106,-288 104,-293 -3,-11 -296,-189 -364,-206 -92,-23 -191,0 -191,0 -71,50 34,354 117,312zm1865 125c-3,27 27,72 52,132 25,58 21,116 53,131 68,33 130,-60 133,-68 5,-18 -178,-333 -66,-355 106,-20 62,282 117,312 72,39 443,-495 20,-428 -109,18 -297,165 -309,276zm-1045 -231c34,93 73,407 161,348 9,-7 45,-161 68,-249 65,-243 44,-567 -229,-480 -208,66 -49,252 0,381zm340 299c-19,75 -112,232 -72,280 66,78 156,-52 264,-105 93,-46 177,-41 230,-92 46,-43 138,-173 197,-269 56,-91 191,-322 225,-394 127,-277 -45,-435 -284,-406 -339,41 -456,566 -560,986zm-770 -1050c-43,60 -166,221 -166,272 0,-17 69,142 96,183 182,274 115,3 252,-154 44,-52 130,-47 152,-114 48,-150 -156,-365 -209,-352 -29,8 -85,110 -125,165zm-234 -52c14,0 139,-203 79,-184 -36,12 -148,185 -79,184zm13 224c41,22 181,-278 200,-301 37,-46 92,-63 87,-88 -9,-39 -67,-27 -78,-23 -19,9 -267,380 -209,412zm1970 -184c-15,101 86,139 88,278 2,84 -98,275 -72,295 35,30 156,-46 198,-94 133,-152 298,-685 -8,-652 -73,8 -193,94 -206,173zm-654 -150c-171,450 68,87 250,37 61,-17 149,3 177,-17 167,-117 73,-429 -59,-434 -192,-8 -306,247 -368,414zm-1862 -730c-12,156 216,190 199,272 -24,118 -274,64 -301,181 -7,32 12,173 113,168 119,-5 86,-291 259,-248 179,44 -26,290 191,191 135,-61 68,-31 127,-196 46,-125 171,-188 168,-287 -4,-137 -134,-219 -222,-194 -55,15 -15,148 -122,132 -103,-14 -21,-189 -208,-176 -83,6 -197,70 -204,157zm2774 457c26,4 129,-100 168,-97 108,8 149,185 206,192 93,13 168,-130 126,-180 -25,-30 -174,50 -186,-47 -13,-102 108,-10 150,-83 18,-31 16,-187 -15,-208 -66,-44 -150,135 -188,159 -209,132 -58,-291 -231,-274 -168,17 -204,511 -30,538zm-1113 -1318c-21,433 -67,1204 -107,1660 -15,171 -76,305 -65,392 4,34 79,158 99,151 42,-15 46,-210 52,-249 35,-218 23,-316 31,-554 10,-300 32,-794 44,-1093 9,-216 114,-738 -24,-654 -83,51 -24,260 -30,347zm261 -454c21,117 237,-48 68,-42 -33,1 -73,4 -68,42zm234 51c103,84 112,-252 18,-205 -57,29 -44,183 -18,205zm-947 -64c78,20 356,-1 366,-17 66,-96 -375,-276 -439,-259 -162,42 -95,234 73,276zm1128 0c131,67 177,-278 38,-267 -101,8 -97,237 -38,267zm-1284 -792c-7,107 218,344 243,323 28,-24 -128,-429 -206,-383 -24,13 -35,36 -37,60zm840 405c-22,74 -97,220 -15,173 105,-59 323,-133 396,-173 205,-110 391,-611 35,-601 -255,8 -346,360 -416,601zm-635 -769c-7,22 2,161 27,256 15,63 303,613 379,589 49,-15 126,-334 124,-530 -2,-206 -63,-604 -237,-576 -59,9 -286,240 -293,261zm28 -141c42,50 40,-25 69,-57 33,-39 176,-166 173,-177 -12,-56 -85,-48 -108,-40 -31,9 -182,217 -134,274zm88 -484c327,-58 514,463 519,822 3,187 46,20 99,-40 8,-9 207,-178 254,-185 294,-41 435,199 407,448 -11,102 -118,206 -118,276 -1,83 104,113 109,215 7,164 -104,263 -136,291 -90,77 -222,122 -377,127 -44,2 -176,-48 -220,-18 -28,19 -62,348 -69,439 -31,379 -23,701 -45,1093 -18,345 41,61 131,-37 142,-155 555,-183 577,128 9,139 -132,387 -7,270 39,-37 28,-41 53,-59 119,-90 173,-45 77,-168 -41,-54 -112,-227 -95,-374 25,-228 347,-452 450,-248 3,7 29,94 39,98 60,27 187,-113 290,-55 94,52 16,201 36,337 13,89 96,163 58,259 -53,133 -259,183 -390,95 -82,-56 -119,-135 -38,76 75,194 39,365 -63,567 -37,72 -108,141 -112,181 -9,120 94,84 110,216 15,128 -71,305 -110,356 -162,217 -553,417 -863,436 -35,2 -174,-39 -205,-17 -42,29 -74,441 -78,550 -7,164 -70,291 -106,499 -41,237 -63,603 -67,789 -3,175 147,156 196,318 5,17 20,230 43,242 -4,-2 237,-156 237,-170 1,-37 -121,-69 -150,-108 -30,-43 -63,-184 -60,-228 8,-91 101,-120 146,-226 22,-52 12,-120 29,-156 72,-151 400,-439 606,-204 47,55 17,145 64,181 25,20 133,-8 143,-4 50,18 294,238 308,312 56,301 -210,334 -308,435 -33,35 -7,65 -59,138 -27,38 -89,32 -86,88 4,98 104,63 147,140 50,92 0,215 11,239 28,56 109,40 137,75 76,94 10,356 -38,458 -175,370 -665,595 -1233,483 -23,-4 -165,-73 -186,-62 -40,21 -63,356 -70,455 -18,253 -151,559 -88,659 35,54 135,29 202,65 81,45 49,99 119,106 3,0 249,-102 264,-121 19,-27 59,-206 51,-235 -20,-71 -133,-52 -146,-155 -24,-187 242,-414 370,-429 67,-9 118,32 173,30 56,-2 107,-63 180,-64 141,-2 314,126 331,218 9,49 -46,102 -45,156 3,85 99,114 73,260 -12,70 -77,183 -114,229 -137,171 -433,241 -497,434 -74,218 92,176 150,284 47,86 25,214 7,302 -25,115 -149,199 -170,320 -15,84 70,241 35,336 -44,120 -307,223 -433,234 -60,5 -359,-16 -442,-37 -12,-3 -160,-92 -184,-79 -142,72 -72,849 -87,1025 -62,756 -76,1356 -225,2111 -22,112 -73,213 -90,311 -65,382 -41,835 -58,1250 -13,336 6,181 187,47 46,-33 194,-120 217,-124 49,-10 108,16 126,10 186,-59 256,-286 508,-179 93,39 198,306 217,447 8,60 -26,144 -13,158 42,47 258,-128 358,-97 93,30 186,265 172,396 -15,146 -126,223 -201,317 -54,67 -79,166 -112,198 -68,63 -211,68 -250,136 -60,106 -6,190 -40,283 -128,355 -522,518 -975,443 -43,-7 -116,-50 -171,-47 -318,21 -217,528 -215,857 4,671 40,1408 77,2104 20,372 9,714 23,1051 21,515 -45,1118 -52,1744 -4,317 55,828 90,1199 8,83 -11,344 30,384 30,29 247,-300 269,-358 107,-277 27,-627 66,-964 17,-147 55,-340 89,-501 53,-242 153,-589 255,-758 37,-61 210,-266 275,-247 55,17 97,265 101,311 29,294 14,560 14,780 0,638 -78,1195 -296,1628 -143,285 -349,446 -624,615 -161,97 -195,107 -208,395 -16,331 51,681 72,1024 17,258 20,706 46,973 5,57 -33,352 82,150 164,-289 502,-650 611,-1029 33,-116 13,-382 97,-390 130,-12 41,314 30,400 -41,321 -1,517 -58,870 -61,379 -232,631 -408,887 -59,85 -136,143 -194,222 -23,32 -18,78 -41,107 -54,70 -148,109 -175,193 -50,157 35,390 44,607 28,647 73,1385 117,2013 5,80 50,190 58,258 52,473 57,1013 108,1536 21,210 75,509 94,770 16,222 75,453 -110,548 -32,17 -210,44 -240,27 -65,-36 -103,-398 -128,-568 -199,-1385 -339,-2854 -444,-4344 -21,-303 49,-623 -7,-859 -32,-137 -175,-347 -263,-451 -333,-390 -949,-685 -1081,-1140 -46,-161 -134,-618 -141,-775 -12,-289 121,-376 204,-157 74,193 96,309 231,464 49,56 124,85 179,142 49,52 75,133 127,186 260,268 572,322 761,589 -7,-10 70,147 68,149 67,-34 15,-364 21,-444 19,-264 67,-534 67,-789 -2,-300 -34,-584 -85,-881 -36,-207 19,-441 -27,-623 -32,-123 -144,-156 -233,-257 -334,-382 -369,-1118 -358,-1779 6,-398 11,-979 -77,-1358 -14,-63 -154,-286 -67,-339 71,-43 165,123 225,162 37,25 116,40 138,60 106,92 230,344 277,484 44,132 59,-219 60,-328 2,-459 -20,-1031 -49,-1498 -4,-60 -1,-143 2,-207 30,-587 -31,-1458 -60,-2119 -6,-139 66,-550 20,-618 -34,-51 -161,-47 -264,-70 -106,-24 -357,-106 -531,-109 -185,-2 -449,29 -584,-49 -108,-62 -286,-243 -303,-359 -22,-145 45,-265 122,-323 67,-51 148,-32 164,-66 16,-33 -46,-201 -57,-259 -21,-111 -48,-52 -201,-65 -68,-6 -132,-46 -171,-46 -123,-1 -221,85 -337,35 -115,-50 -163,-321 32,-379 4,-1 76,1 80,-8 14,-33 -127,-192 -127,-186 -7,-102 118,-252 182,-271 7,-2 183,22 172,31 39,-29 13,-189 37,-252 75,-191 430,-174 495,-21 55,131 -10,275 -2,397 4,70 41,313 155,235 49,-34 62,-156 80,-199 75,-185 249,-535 633,-345 -23,-11 171,164 178,158 38,-30 -9,-132 0,-190 4,-30 125,-262 119,-276 -49,-110 -485,125 -499,-122 -4,-60 71,-136 125,-164 141,-75 -123,-18 -186,-48 -171,-80 -104,-447 147,-432 125,7 110,118 200,80 46,-19 64,-206 132,-243 198,-109 426,133 434,323 6,158 -123,299 -40,473 97,205 120,-29 144,-211 131,-1002 242,-2039 257,-3045 4,-256 72,-686 14,-730 -37,-28 -261,102 -279,104 -171,12 -444,-48 -511,-155 -37,-59 -103,-245 -104,-279 -1,-24 53,-111 44,-139 -45,-133 -360,-103 -509,-186 -169,-94 -425,-257 -422,-465 0,-38 139,-265 135,-274 -20,-40 -199,71 -275,56 -113,-22 -267,-212 -275,-325 -2,-30 32,-322 78,-359 70,-56 259,90 280,71 45,-37 -50,-230 -21,-320 18,-52 101,-139 202,-126 134,17 209,255 218,432 13,282 -165,517 147,506 81,-4 172,31 279,86 21,11 120,128 200,81 27,-16 -45,-210 -44,-227 7,-243 220,-434 447,-407 94,11 124,140 227,131 95,-9 52,-77 140,-148 63,-49 140,-34 166,-81 40,-74 69,-527 76,-518 -57,-81 -132,7 -282,-55 -123,-52 -98,-159 -175,-190 -92,-37 -146,32 -193,31 -269,-7 -628,-174 -719,-331 -70,-121 -44,-392 61,-535 12,-16 165,-87 168,-113 7,-45 -136,-134 -159,-172 -42,-64 8,-122 -67,-165 -88,-50 -213,28 -335,20 -238,-17 -575,-189 -424,-434 27,-43 122,-55 134,-84 34,-85 -49,-201 -42,-257 24,-199 247,-375 484,-277 23,9 86,56 107,56 118,5 168,-133 311,-116 146,16 240,155 196,318 -13,51 -98,56 -122,133 -33,103 40,43 38,114 -2,55 -79,108 -59,139 7,11 292,-43 414,-13 123,30 277,151 376,254 -17,-18 100,153 131,138 17,-8 62,-241 92,-326 57,-167 99,-161 134,-275 77,-255 56,-653 102,-1024 37,-294 86,-495 83,-804 0,-109 -4,-274 -21,-303 -39,-65 -181,-66 -264,-87 -281,-68 -600,-200 -774,-430 -49,-65 -118,-182 -119,-280 -1,-157 131,-350 238,-378 72,-18 164,52 206,17 59,-48 -49,-108 -77,-228 -21,-98 25,-204 -9,-271 -10,-21 -215,-159 -193,-160 -22,0 -137,129 -185,128 -165,-3 -250,-183 -230,-290 20,-107 207,-130 224,-203 7,-34 -117,-165 -106,-248 18,-149 229,-276 356,-272 65,3 76,63 184,80 59,8 116,-41 178,-33 158,19 326,245 248,450 -30,79 -167,159 -148,242 18,73 292,133 348,204 105,131 182,539 311,471 1,-1 39,-115 43,-139 97,-580 93,-1279 118,-1961 3,-90 31,-200 19,-221 -58,-100 -303,-3 -411,-35 -145,-42 -284,-229 -205,-398 39,-85 184,-64 200,-110 34,-97 -222,-263 -224,-354 -4,-146 177,-182 213,-267 47,-112 -15,-458 51,-600 45,-98 171,-152 203,-157z"></path> </g> </svg> 