<?xml version="1.0" encoding="UTF-8"?> <!-- Creator: CorelDRAW X8 --> <svg xmlns="http://www.w3.org/2000/svg" xmlns:xlink="http://www.w3.org/1999/xlink" xml:space="preserve" width="57.5026mm" height="82.9026mm" style="shape-rendering:geometricPrecision; text-rendering:geometricPrecision; image-rendering:optimizeQuality; fill-rule:evenodd; clip-rule:evenodd" viewBox="0 0 5750 8290"> <defs> <style type="text/css"> <![CDATA[ .fil0 {fill:black;fill-rule:nonzero} ]]> </style> </defs> <g id="Слой_x0020_1"> <metadata id="CorelCorpID_0Corel-Layer"></metadata> <path class="fil0" d="M1536 7698c26,2 64,-26 86,-64 13,-23 24,-46 29,-71 98,-444 197,-887 285,-1333 75,-385 125,-742 273,-1113 68,-170 129,-411 -54,-547 -220,-165 -460,74 -490,283 -34,238 -57,478 -74,718 -43,611 -82,1222 -119,1834 -2,48 0,97 5,145 6,80 34,146 59,148zm386 -113c23,22 52,38 84,41 106,12 181,-98 229,-194 135,-265 247,-564 406,-811 176,-277 379,-548 571,-814 79,-112 159,-225 205,-355 96,-275 -72,-635 -393,-647 -318,-13 -577,409 -647,670 -161,597 -383,1185 -501,1787 -14,72 -28,146 -12,217 8,39 29,78 58,106zm614 330c326,5 461,-311 637,-523 322,-388 614,-808 973,-1162 66,-65 131,-131 175,-213 43,-81 63,-180 31,-266 -47,-125 -295,-279 -429,-289 -167,-11 -289,173 -376,288 -190,256 -359,528 -563,772 -279,334 -459,714 -610,1132 -45,126 28,258 162,261zm-1320 -646c215,-925 128,-1829 62,-2731 -13,-171 -245,-322 -415,-306 -203,18 -379,134 -458,323 -62,149 -67,315 -63,476 10,433 75,865 192,1282 59,206 165,410 206,619 36,188 29,323 202,456 106,82 243,11 274,-119zm2908 -2226c78,47 145,107 226,175 78,65 168,134 269,124 106,-11 186,-115 194,-221 36,-523 -1039,-697 -1356,-908 -239,-159 -407,-404 -561,-647 -154,-242 -306,-494 -526,-680 -441,-371 -1092,-353 -1481,65 -134,144 -246,326 -236,522 12,260 241,467 490,541 437,130 964,-94 1305,323 85,104 227,177 358,150 345,-70 502,-3 733,304 103,138 256,138 408,178 68,17 125,43 177,74zm250 -3974c-7,4 -15,8 -22,12 -180,90 -393,-3 -576,-88 -183,-84 -411,-156 -572,-36 -146,109 -158,334 -76,497 80,160 220,243 346,361 112,105 198,239 310,349 237,232 524,405 818,554 245,124 522,-64 642,-278 102,-182 53,-472 23,-670 -68,-436 -384,-996 -893,-701zm-2105 429c-149,-4 -241,34 -303,128 -99,149 -66,364 108,545 139,143 292,273 449,396 443,347 871,698 1081,1253 111,296 464,481 763,515 434,50 643,-286 518,-705 -80,-269 -363,-308 -567,-441 -475,-313 -860,-708 -1213,-1148 -112,-140 -259,-251 -405,-363 -107,-81 -297,-177 -431,-180zm2849 3254c47,144 91,290 66,460 -35,243 -163,466 -326,650 -305,346 -576,683 -841,1054 -234,326 -466,653 -700,978 -159,221 -348,366 -632,397 -422,42 -1536,-212 -1884,-446 -278,-188 -439,-456 -562,-760 -180,-445 -164,-917 -204,-1381 -27,-306 -24,-615 -34,-922 -9,-287 30,-554 237,-783 57,-63 68,-196 54,-290 -37,-242 36,-442 159,-644 231,-382 477,-741 922,-862 129,-35 237,-148 232,-281 -9,-228 -6,-446 185,-631 190,-183 388,-169 586,-126 131,28 251,40 268,23 12,-11 22,-22 27,-35 225,-553 392,-651 980,-557 145,23 285,72 428,106 297,71 399,15 429,-288 19,-191 109,-298 255,-388 113,-71 221,-16 229,104 6,79 10,149 8,218 -8,266 64,500 243,702 88,100 166,210 247,316 370,486 339,977 -51,1383 -251,262 -300,502 -273,843 22,271 -142,521 -135,777 4,135 47,258 87,383z"></path> </g> </svg> 