<?xml version="1.0" encoding="UTF-8"?> <!-- Creator: CorelDRAW X8 --> <svg xmlns="http://www.w3.org/2000/svg" xmlns:xlink="http://www.w3.org/1999/xlink" xml:space="preserve" width="81.8444mm" height="243.064mm" style="shape-rendering:geometricPrecision; text-rendering:geometricPrecision; image-rendering:optimizeQuality; fill-rule:evenodd; clip-rule:evenodd" viewBox="0 0 8184 24306"> <defs> <style type="text/css"> <![CDATA[ .fil1 {fill:none} .fil0 {fill:#473064;fill-rule:nonzero} ]]> </style> <clipPath id="id0"> <path d="M8184 4l-8184 0 0 24299 8184 0 0 -24299z"></path> </clipPath> </defs> <g id="Слой_x0020_1"> <metadata id="CorelCorpID_0Corel-Layer"></metadata> <g> </g> <g style="clip-path:url(#id0)"> <g> <g id="_2075666124144"> <path class="fil0" d="M3967 439c-41,-72 -56,-43 -127,-13 -366,157 247,223 127,13z"></path> <path class="fil0" d="M6058 2588c10,-100 -158,-157 -193,-122 -111,111 177,289 193,122z"></path> <path class="fil0" d="M5117 3080c-55,-38 -40,70 -79,17 -53,-72 10,-228 -86,-152 -36,29 -22,288 27,370 41,66 53,-16 98,25 60,54 -25,129 52,115 67,-11 25,-349 -12,-375z"></path> <path class="fil0" d="M7826 7379c25,-34 -136,-207 -172,-113 -15,40 122,184 172,113z"></path> <path class="fil0" d="M6972 7642c-40,34 -74,410 34,383 60,-15 -10,-121 -6,-206 5,-90 83,-276 -28,-177z"></path> <path class="fil0" d="M7098 7845c-70,39 -28,262 48,221 30,-16 13,-254 -48,-221z"></path> <path class="fil0" d="M6048 8403c-6,9 -42,200 54,235 157,61 95,-469 -54,-235z"></path> <path class="fil0" d="M8871 9322c-25,-50 -227,-64 -263,31 -1,1 -15,6 -15,6 69,207 341,87 278,-37z"></path> <path class="fil0" d="M8442 11110c61,-35 -16,-65 -30,-143 -16,-95 38,-386 -73,-279 -45,43 -4,485 103,422z"></path> <path class="fil0" d="M9356 10249c-23,62 121,201 164,135 31,-46 -124,-240 -164,-135z"></path> <path class="fil0" d="M7767 11153c54,-46 -60,-219 -102,-111 -16,45 66,142 102,111z"></path> <path class="fil0" d="M8598 11110c17,-11 -23,-533 -127,-360 -32,54 72,393 127,360z"></path> <path class="fil0" d="M10417 13502c-9,24 -1,71 18,78 119,54 38,-224 -18,-78z"></path> <path class="fil0" d="M10506 13739c-12,30 -4,71 18,79 112,43 33,-210 -18,-79z"></path> <path class="fil0" d="M10838 14094c13,-87 -206,-84 -209,-80 -75,116 199,155 209,80z"></path> <path class="fil0" d="M10833 14391c69,-67 -204,-221 -243,-117 -18,49 195,165 243,117z"></path> <path class="fil0" d="M10858 14640c1,-16 -277,-242 -311,-191 -68,101 301,280 311,191z"></path> <path class="fil0" d="M9483 17529c-3,2 -44,-548 -132,-410 -50,80 90,454 132,410z"></path> <path class="fil0" d="M10663 17259c-62,-21 -125,43 -159,72 -64,53 -94,99 -62,132 66,70 369,-152 221,-204z"></path> <path class="fil0" d="M11581 17333c39,-58 -155,-195 -208,-115 -48,73 179,158 208,115z"></path> <path class="fil0" d="M12292 17257c-97,79 62,149 133,218 240,233 25,-345 -133,-218z"></path> <path class="fil0" d="M11830 17655c-15,-42 -252,-53 -261,-39 -77,121 303,175 261,39z"></path> <path class="fil0" d="M11292 18469c-64,49 -23,411 62,371 54,-25 1,-420 -62,-371z"></path> <path class="fil0" d="M11439 18680c-42,57 52,125 74,89 18,-31 -32,-146 -74,-89z"></path> <path class="fil0" d="M11576 18793c79,6 94,-183 13,-127 -41,26 -81,121 -13,127z"></path> <path class="fil0" d="M14013 24377c-21,42 -169,223 -68,238 58,9 167,-223 196,-296 50,-119 98,-200 134,-321 42,-134 28,-269 75,-415 29,-88 192,-411 41,-295 -38,29 -114,253 -135,320 -63,211 -132,536 -243,769z"></path> <path class="fil0" d="M13590 25989c10,-69 -83,-63 -112,-20 -65,96 103,80 112,20z"></path> <path class="fil0" d="M15235 26639c-4,8 -13,46 11,63 117,83 60,-222 -11,-63z"></path> <path class="fil0" d="M15445 27030c31,-46 -82,-165 -131,-98 -55,79 98,147 131,98z"></path> <path class="fil0" d="M15455 27285c56,-82 -168,-218 -207,-115 -14,38 180,156 207,115z"></path> <path class="fil0" d="M15143 28986c-9,14 -19,77 33,73 103,-9 50,-192 -33,-73z"></path> <path class="fil0" d="M15222 29315c-63,83 94,98 110,54 28,-71 -79,-94 -110,-54z"></path> <path class="fil0" d="M16078 33042c-73,123 169,35 73,-33 -37,-25 -55,3 -73,33z"></path> <path class="fil0" d="M16380 34450c-1,-1 -61,7 -64,12 -76,104 134,47 64,-12z"></path> <path class="fil0" d="M13201 16849c-156,72 -287,-186 -411,-145 -51,17 -105,74 -97,131 2,15 245,268 71,159 -37,-24 -70,-139 -114,-176 -52,-44 -153,-3 -196,-50 -14,-16 -48,-236 -73,-279 -54,-93 -337,-332 -207,-463 11,-11 16,-29 43,-19 206,85 149,369 333,510 114,88 264,56 475,-22 8,-3 133,-57 152,-51 161,59 93,373 24,405zm-561 564c0,249 -215,621 -391,869 -103,146 -232,383 -210,111 10,-126 23,-265 10,-403 -36,-386 -267,-619 92,-838 263,-161 497,-57 499,261zm-221 1209c-61,32 -213,76 -236,54 -25,-24 77,-188 95,-215 91,-151 210,-248 291,-392 36,-61 6,-121 78,-174 48,-34 139,-28 176,44 114,214 -213,584 -404,683zm-596 24c-66,-7 -426,-711 -533,-800 -78,-67 -140,-65 -203,-222 -87,-214 -109,-569 28,-671 87,-66 65,-75 98,25 10,29 24,65 47,66 120,3 -24,-92 41,-140 40,-29 250,131 284,168 25,27 226,323 174,390 -24,30 -211,-106 -239,-32 -26,69 151,105 151,105 -7,-2 155,44 161,50 45,49 68,276 60,286 -50,53 -223,-129 -242,3 -11,76 247,81 250,131 0,13 38,64 32,73 -34,47 -420,-198 -320,22 28,60 258,27 301,90 30,46 7,470 -90,456zm272 607c-47,50 -108,-95 -169,-28 -69,77 54,123 123,118 -11,2 71,-5 64,-11 16,14 53,153 28,178 -32,32 -196,-127 -212,-9 -13,91 220,95 243,116 60,60 90,249 120,346 63,203 206,496 197,553 -10,60 -89,21 -68,83 16,48 74,14 111,54 29,32 94,217 89,237 -4,15 -110,20 -88,75 29,73 104,-8 127,12 1,0 83,186 76,209 -28,99 -143,7 -111,101 19,55 125,-6 143,6 35,25 91,153 69,194 -25,47 -73,-10 -92,-11 -20,1 -103,18 -92,25 -72,-42 -217,-516 -295,-735 -58,-160 -124,-383 -183,-560 -59,-181 -172,-356 -239,-535 -44,-117 -60,-245 -100,-337 -54,-126 -149,-212 -123,-274 0,1 3,-1 9,-4 40,-27 207,-146 218,-149 0,0 16,-27 33,-37 6,-4 12,-6 18,-4 11,3 145,344 104,387zm1925 4600c101,-207 202,-412 282,-646 63,-185 162,-362 184,-517 22,-148 -24,-322 -15,-461 4,-77 42,-150 43,-211 3,-63 -72,-297 -13,-340 38,-28 46,13 67,109 55,269 106,752 75,1058 -6,61 -48,115 -57,182 -39,286 26,616 -21,842 -29,136 -104,342 -153,433 -42,78 -162,242 -218,288 -40,34 -89,26 -115,52 -25,25 -62,170 -120,157 -54,-11 -101,-322 -104,-386 -10,-152 78,-381 165,-560zm308 1770c157,527 413,1152 595,1675 51,147 81,226 -6,333 -101,123 -101,65 -191,-192 -21,-64 -57,-272 -78,-330 -58,-162 -156,-361 -230,-590 -81,-250 -118,-516 -184,-681 -37,-93 -104,-168 -131,-253 -23,-70 -19,-149 -40,-207 -36,-96 -188,-265 -149,-368 0,0 147,-114 182,-98 100,45 193,580 232,711zm649 1252c-12,17 -82,-48 -66,-108 13,-55 92,71 66,108zm233 -139c-14,-257 -130,-515 -193,-815 -35,-166 -13,-319 -30,-455 -10,-71 -124,-303 -36,-348 11,-6 159,524 188,610 205,633 434,1164 363,1623 -6,42 -27,152 -49,161 -34,13 -242,-114 -268,-175 -34,-75 30,-499 25,-601zm100 1152c-43,44 -371,274 -371,62 0,-18 159,-145 169,-162 48,-76 -2,-172 67,-239 53,-49 211,1 239,68 14,36 -33,197 -104,271zm-132 596c-3,40 -80,82 -68,118 27,81 35,-45 106,4 8,6 68,233 80,295 27,146 49,376 109,592 8,29 59,150 42,172 -35,49 -216,-155 -205,5 6,93 210,74 203,66 29,30 58,228 53,236 -26,34 -209,-26 -232,-53 -46,-56 -29,-195 -45,-257 -96,-375 -384,-1032 -444,-1413 0,-6 -14,-26 -13,-30 34,-63 139,53 182,58 8,0 94,-65 144,-30 54,39 93,182 88,237zm373 1759c-28,28 -271,-100 -240,-187 22,-61 329,98 240,187zm81 258c4,-4 -311,-106 -254,-180 41,-54 306,116 254,180zm98 373c53,198 107,436 163,688 -123,-180 -247,-366 -370,-551 -47,-161 -86,-308 -100,-434 -2,-22 -10,-19 2,-35 79,-104 272,212 305,332zm713 1754c73,91 186,191 211,260 16,44 -29,210 37,257 41,27 57,-220 140,-33 11,28 15,133 17,181 4,75 27,291 68,70 59,-319 70,263 30,278 -38,13 -169,-168 -88,-78 -130,-145 -277,-371 -407,-561 -158,-232 -376,-461 -468,-583 -53,-69 -158,-253 -161,-266 -9,-32 19,-334 40,-346 129,-66 -4,406 69,431 114,40 -39,-396 141,-136 122,177 196,307 371,526zm1031 1326c17,64 -74,78 -16,145 0,1 120,-26 104,-33 52,21 22,47 94,161 52,82 150,187 107,259 -1,1 -67,68 -105,67 -28,-2 -315,-342 -367,-408 -20,-25 -141,-173 -149,-203 -19,-73 27,-29 43,-90 22,-85 -21,-165 10,-194 125,-116 -29,330 57,334 92,5 0,-201 93,-200 0,0 116,112 129,162zm-468 -188c-27,-67 51,-324 47,-297 2,-14 -19,-26 1,-34 131,-58 60,603 -48,331zm-753 -682c28,130 74,193 62,216 -34,67 -161,-112 -198,-15 -16,42 78,123 123,118 88,-9 65,-98 90,46 38,219 -39,60 -171,42 -62,-8 -50,49 -80,18 -39,-43 -122,-558 -141,-664 -14,-80 -34,-172 -56,-267 53,47 105,94 156,141 -13,0 -27,6 -40,29 -16,29 1,136 59,130 51,-6 53,-65 34,-110 39,36 78,72 116,107 5,7 10,13 15,20 11,76 22,145 31,189zm186 802c-14,19 -431,-120 -335,-284 -5,8 252,50 280,83 23,27 24,73 31,107 7,36 50,59 24,94zm40 242c-17,19 -379,-78 -303,-211 36,-63 394,109 303,211zm-12 283c-9,3 -274,-161 -245,-237 -7,19 215,-23 273,68 32,51 38,148 -28,169zm30 299c-108,71 -354,-207 -263,-316 38,-45 103,36 146,56 80,37 267,162 117,260zm-1013 -2588c-67,-66 -178,-141 -207,-209 -11,-23 24,-76 -9,-92 -30,-16 -64,39 -86,17 -18,-20 47,-169 -1,-186 -61,-20 -27,107 -78,110 -116,5 -17,-167 -63,-190 -56,-27 -13,64 -67,73 -28,3 -96,-70 -101,-85 -6,-14 18,-55 19,-61 30,-141 -87,18 -86,17 2,0 -96,-61 -102,-84 1,4 56,-81 43,-51 59,-134 -75,5 -100,0 -28,-5 -93,-98 -93,-107 3,-28 45,-36 50,-42 80,-111 -103,-1 -100,0 4,1 -95,-79 -101,-100 -15,-60 65,-49 23,-91 -10,-9 -66,17 -93,9 -46,-14 -89,-87 -145,-135 -101,-85 -221,-196 -346,-318 -83,-81 -215,-168 -222,-224 0,-8 77,-32 51,-58 -11,-11 -83,10 -93,8 -59,-14 -192,-186 -323,-324 -85,-90 -169,-188 -252,-290 85,17 172,31 261,44 17,22 33,44 51,65 38,47 130,157 133,172 8,34 -78,44 -29,83 28,22 40,-57 51,-58 10,-1 86,67 94,76 192,206 552,539 723,740 226,262 453,351 724,623 163,163 325,305 495,452 148,209 296,415 445,620 -179,-148 -369,-311 -466,-404zm-2660 -2356c-10,43 -164,78 -205,78 -85,0 -248,-40 -363,-89 -407,-172 -850,-732 -1148,-1048 -17,-19 0,-13 2,-16 6,-10 24,2 30,3 361,43 715,381 1041,709 110,111 272,236 388,283 33,14 268,31 255,80zm-634 -784c6,-44 203,61 263,81 166,57 439,72 495,140 18,21 35,325 113,306 82,-18 -61,-237 33,-290 99,-56 39,397 160,370 69,-15 -54,-335 -36,-361 55,-79 471,13 539,50 144,80 314,290 436,479 154,239 36,137 -85,75 -179,-93 -329,-123 -537,-189 -182,-60 -629,20 -684,-102 23,51 96,-282 -2,-290 -66,-7 -57,113 -57,130 0,-36 42,171 45,167 -23,30 -132,-37 -110,-16 -85,-81 9,-403 -105,-362 -143,53 126,381 -94,234 -25,-16 -386,-328 -374,-422zm-403 -1003c0,22 31,-79 66,-72 4,1 32,27 64,74 185,267 435,648 671,956 -50,-5 -100,-5 -146,-18 -98,-155 -222,-292 -351,-470 -55,-76 -305,-432 -304,-470zm-352 -26c-35,-42 1,-127 56,-150 15,-6 215,3 227,63 19,101 -268,105 -283,87zm-70 2c-19,12 -185,-42 -210,-77 -36,-49 3,-191 6,-192 123,-13 59,243 138,226 31,-7 5,-75 6,-77 -3,-189 135,72 60,120zm-291 -136c-90,33 -135,-210 -46,-220 43,-4 98,66 103,86 -3,-11 -36,-11 -47,11 -5,9 27,109 -10,123zm-166 -144c-54,-6 -341,-276 -510,-493 -119,-150 -242,-304 -316,-416 -28,-43 -217,-240 -150,-258 13,-3 9,2 22,10 103,66 245,222 353,327 96,92 229,203 336,341 59,73 151,140 164,189 -2,-5 -103,110 -10,138 14,4 45,-47 62,-80 -1,0 -2,-1 -3,-1 -2,0 -3,1 -5,1 -5,10 -11,20 -20,36 6,-11 1,-34 20,-36 23,-38 20,-27 8,0 87,12 88,163 84,183 -8,42 -11,62 -35,59zm387 -333c-66,-76 -153,-227 -250,-358 -156,-206 -305,-395 -436,-572 -50,-67 -128,-140 -141,-180 -22,-73 53,-100 4,-146 -30,-28 -54,31 -86,17 -115,-47 8,-305 -79,-291 -22,3 -32,41 -35,59 0,-1 33,64 -5,62 -101,-8 -11,-252 -48,-274 -68,-39 -42,106 -70,103 -129,-15 6,-246 -74,-252 -61,-4 -24,107 -54,103 -126,-14 12,-212 -51,-242 -42,-20 -80,79 -75,79 -29,-6 -88,-101 -91,-138 -1,-12 38,-36 43,-51 39,-106 -82,-13 -84,-13 -87,-19 -310,-391 -358,-466 -34,-54 -107,-162 -110,-177 -4,-20 29,-21 34,-44 25,-120 -71,-9 -83,-14 -11,-4 -170,-261 -167,-243 -6,-40 95,-33 44,-82 -35,-34 -76,35 -86,32 -48,-17 -366,-464 -450,-589 -35,-50 6,-177 60,-180 72,-3 171,206 204,254 142,206 316,421 469,644 65,95 110,200 179,290 68,93 153,168 219,256 59,78 94,168 151,241 286,364 554,745 849,1135 375,498 566,841 893,1338 114,172 -90,-2 -106,-24 -70,-91 -47,-99 -74,-136 -27,-38 -100,-101 -136,-141zm-2951 -4141c1,4 163,-191 110,-239 -66,-58 -113,169 -121,191 -18,46 -79,-3 -82,-43 0,-2 39,-29 49,-43 16,-24 83,-195 -10,-162 -50,16 -7,164 -75,163 -33,0 -180,-190 -185,-199 -79,-122 -89,-401 33,-444 26,-9 71,26 91,22 13,-2 14,-46 27,-52 -8,4 88,10 77,6 28,9 178,121 189,137 16,21 54,117 80,176 52,122 3,191 0,300 -1,79 78,243 2,285 -14,9 -176,-37 -185,-98zm76 221c-7,94 -328,43 -319,46 -162,-55 -547,-293 -637,-456 -45,-82 -14,-197 33,-229 96,-63 296,16 387,83 99,74 197,231 327,364 31,30 211,158 209,192zm-143 267c-31,-22 19,-61 28,-68 6,-4 85,-28 86,-16 2,10 -78,109 -114,84zm-77 95c-21,8 -36,-173 -2,-171 -3,0 50,151 2,171zm-119 60c-52,-18 -12,-263 3,-262 46,4 53,281 -3,262zm-397 -361c18,-10 178,-29 200,-1 18,24 -18,29 -24,122 -2,28 10,265 51,243 49,-28 6,-169 9,-223 0,-6 16,-115 16,-115 48,-18 55,60 57,66 9,31 40,260 25,280 -92,126 -579,-239 -334,-372zm-183 -29c-71,18 -354,-80 -415,-216 -33,-71 12,-181 95,-240 35,-25 91,-62 140,-35 39,20 18,44 41,80 27,42 96,120 149,173 30,30 162,108 159,135 1,-2 -136,94 -169,103zm-548 -504c47,90 -18,20 -22,91 -1,17 41,36 49,58 37,101 -276,257 -325,238 -127,-47 9,-93 30,-98 81,-18 278,-138 141,-236 -30,-21 -189,73 -217,14 -8,-16 89,-21 94,-23 179,-64 -35,-230 50,-258 32,-10 173,81 205,138 24,41 -31,28 -5,76zm326 -969c-6,12 79,-93 107,-91 34,1 88,111 120,154 81,110 211,298 265,375 81,113 63,88 71,182 7,76 71,204 -67,73 -46,-45 -105,-147 -175,-237 -131,-166 -366,-370 -321,-456zm-294 25c-73,6 -280,-60 -324,-109 -84,-96 -44,-269 84,-302 68,-17 146,39 262,120 47,32 236,141 236,141 3,80 -252,149 -258,150zm-27 152c-80,90 -96,-21 -58,-51 13,-9 11,8 23,9 47,5 119,-53 35,42zm-147 113c-15,-2 -77,-189 -34,-173 65,24 77,176 34,173zm-400 -1048c132,-58 223,32 299,130 94,125 3,69 -87,133 -49,34 -56,75 -84,86 -173,70 -344,-253 -128,-349zm330 1065c-56,77 -431,-72 -233,-187 18,-10 156,-31 163,-26 27,17 81,196 70,213zm-195 -292c-17,-1 -34,-70 4,-45 38,24 7,46 -4,45zm-291 -21c-52,-72 58,-349 -64,-275 -48,29 21,220 -17,230 -14,4 -76,-48 -88,-69 -37,-65 24,-162 68,-187 29,-15 100,-32 131,3 25,28 -21,326 63,289 23,-11 7,-86 7,-91 2,-35 -6,-181 -1,-186 19,-23 161,0 90,22 -101,32 74,228 32,287 -30,45 -198,7 -221,-23zm-272 -282c-24,8 -65,-44 -119,-55 6,1 -233,21 -203,-70 17,-48 103,30 130,18 56,-27 64,-88 33,-129 -33,-43 -193,-15 -210,-77 -10,-37 93,-124 93,-124 93,-14 76,79 117,101 34,19 84,7 116,-15 27,-17 89,-162 156,-119 44,29 -92,235 -82,271 0,3 34,65 34,57 -1,17 -51,136 -65,142zm-90 -1371c-81,-93 -261,-261 -267,-343 -3,-37 51,-43 21,-75 -30,-33 -45,36 -80,24 -39,-14 -149,-164 -154,-196 -10,-60 60,-47 22,-91 -17,-20 -62,26 -63,26 -80,-16 -45,-110 -38,-126 51,-104 -87,-17 -90,-23 -18,-28 63,-135 72,-133 16,4 113,142 147,189 53,71 117,170 108,208 -12,51 -74,7 -35,59 31,41 67,-34 72,-33 -8,-1 121,122 171,182 41,48 86,112 127,169 -28,128 104,262 203,250 5,0 8,-2 12,-2 171,178 407,427 403,548 -6,172 -129,-108 -188,-184 -84,-110 -291,-272 -443,-449zm-713 -878c-66,2 -13,-52 21,-75 87,-56 122,-6 62,-11 -52,-3 -54,86 -83,86zm-206 -238c11,-4 115,11 113,47 -7,86 -258,10 -113,-47zm-222 -224c-55,3 -281,6 -307,-8 -152,-77 -176,-301 -53,-328 44,-9 60,36 98,30 8,-1 24,-56 43,-65 23,-11 128,28 164,74 15,19 12,58 24,94 36,106 144,195 31,203zm89 352c-44,-20 -57,-185 -47,-188 83,-15 130,226 47,188zm-102 32c-39,8 -77,-236 -74,-253 0,1 8,9 8,9 38,-24 127,230 66,244zm-62 11c-9,18 -67,30 -86,17 2,1 -75,-237 -65,-275 4,-16 29,-12 32,-13 61,-25 41,79 59,135 18,56 66,122 60,136zm-33 128c-80,12 -181,58 -244,67 -88,13 -425,-35 -279,-191 80,-83 132,-16 192,22 78,49 176,66 300,100 23,6 107,-10 31,2zm-545 -449c1,11 -85,148 -104,162 -14,10 -77,27 -93,9 -23,-28 55,-87 16,-115 -71,-52 -97,87 -129,83 -11,-1 -82,-102 -67,-143 28,-75 120,0 99,-86 -7,-29 -102,-19 -141,-64 -63,-72 -33,-147 19,-161 103,-26 183,209 276,136 41,-33 -24,-144 4,-176 32,-35 125,-46 130,17 3,24 -57,39 -74,64 -15,24 -32,143 8,209 2,4 55,41 56,65zm228 -52c4,-13 -36,4 -39,5 -155,52 -281,-175 -147,-204 46,-10 204,146 186,199zm83 129c59,-15 145,228 113,248 -7,3 -127,-52 -148,-89 -33,-56 6,-152 35,-159zm-335 -1088c-63,-88 -357,-441 -343,-465 18,-31 85,-39 80,-40 21,5 58,81 84,114 157,205 405,556 539,727 65,82 179,161 96,160 -61,-1 -87,-64 -130,-118 -128,-158 -242,-260 -326,-378zm-422 -956c14,-5 128,49 135,57 40,54 -17,206 -24,206 -87,7 -133,-255 -111,-263zm2 -130c60,-27 161,66 92,107 -35,20 -190,-65 -92,-107zm-50 -158c32,-12 196,80 137,126 -12,8 -258,-82 -137,-126zm-19 -156c7,-3 174,23 188,68 3,13 -36,79 -45,81 -26,9 -266,-96 -143,-149zm167 -72c20,-52 -150,-89 -161,-120 -52,-150 237,28 239,-5 3,-32 -194,-121 -112,-147 54,-18 157,71 163,89 6,19 -36,99 -48,128 -67,159 -95,118 -221,60 -186,-87 138,-2 140,-5zm-80 -592c-60,-124 -143,-262 8,-307 6,-2 27,-31 34,-29 59,24 -1,164 4,139 -17,86 -22,214 96,162 46,-20 164,-180 189,-63 14,64 -121,94 -173,149 -25,28 -28,138 -94,123 -43,-9 -38,-122 -64,-174zm356 397c61,-35 171,-41 217,-16 168,98 103,306 15,418 -11,14 -330,319 -377,311 -32,-6 -59,-254 -56,-281 4,-39 41,-87 57,-150 27,-105 43,-224 144,-282zm275 651c9,69 -137,287 -218,347 -48,35 -218,69 -235,44 1,2 41,-119 50,-143 39,-99 66,-128 129,-183 129,-113 251,-247 274,-65zm215 1265c17,-18 113,-6 144,18 83,62 87,207 24,210 -25,1 -184,-179 -194,-207 -5,-18 23,-19 26,-21zm113 -284c1,-6 -253,-296 -56,-282 72,5 37,162 84,214 -9,-10 96,28 112,47 10,13 8,131 11,163 3,39 53,228 -32,128 -92,-106 -197,-14 -256,-80 -109,-123 127,-137 137,-190zm511 993c11,44 86,180 20,156 -91,-34 -220,-117 -268,-229 -31,-70 -96,-452 -49,-473 52,-23 103,18 154,96 71,108 116,331 143,450zm869 1023c1,11 -61,45 -64,47 -1,2 -2,4 -3,6 -45,-48 -88,-97 -129,-145 18,3 191,61 196,92zm119 -504c-10,-135 -170,-182 -92,-299 150,-223 238,41 343,214 30,51 140,158 135,175 1,-3 -179,78 -146,53 -40,29 -63,69 -85,110 -70,131 -39,275 -61,373 1,-6 -70,120 -79,123 -61,17 -140,-69 -137,-106 4,-54 274,-121 143,-274 -43,-52 -180,12 -227,-46 -159,-196 218,-150 206,-323zm655 116c81,-38 377,357 513,389 102,25 339,27 463,70 179,63 -290,172 -397,174 -134,3 -455,-109 -530,-210 -86,-116 -179,-360 -49,-423zm130 -663c254,-232 501,88 673,261 133,132 286,236 370,339 36,43 130,204 128,196 6,38 -116,230 -143,239 -33,12 -361,-87 -434,-117 -91,-39 -270,-133 -364,-187 -194,-109 -441,-537 -230,-731zm-32 -963c-110,-174 -355,364 -459,82 -17,-47 24,-112 29,-117 7,-4 352,5 350,-167 0,-21 -48,-80 -33,-105 67,-108 376,-88 338,96 -3,11 -60,26 -70,33 -52,42 -97,269 -155,178zm-68 359c-45,-22 -4,-74 36,-104 82,-62 -5,121 -36,104zm562 -116c153,-130 663,352 794,616 19,41 15,115 38,154 21,33 76,40 88,77 26,71 45,473 -36,498 -108,35 -87,-81 -176,-224 -126,-206 -408,-230 -567,-467 -47,-71 -58,-187 -105,-327 -44,-135 -131,-244 -36,-327zm-1433 -3708c-59,-102 -230,-265 -133,-348 115,-100 278,397 399,615 71,131 103,239 166,384 187,434 500,884 609,1306 47,183 -116,-135 -143,-189 -232,-475 -601,-1256 -898,-1768zm-640 -1015c-59,41 -171,28 -188,-31 -4,-19 131,-199 157,-212 11,-6 42,-52 69,-34 17,11 34,225 -38,277zm248 413c1,3 8,115 6,118 -26,34 -223,106 -280,133 -93,45 -485,207 -543,157 -48,-41 81,-314 13,-367 -108,-83 -216,171 -137,289 71,106 -100,71 -145,18 -134,-155 41,-329 160,-420 112,-85 237,-96 341,-111 120,-17 209,-85 326,-71 99,12 249,91 259,254zm-23 561c-43,-14 -39,-93 -67,-140 -56,-96 -64,-79 51,-144 260,-148 83,304 16,284zm-43 89c-61,106 -254,-178 -182,-273 49,-66 193,254 182,273zm-188 73c-84,43 -149,-242 -142,-224 -3,-7 -30,-11 -27,-22 33,-174 191,234 169,246zm-248 -88c-23,-34 -51,-82 -54,-111 -1,-8 29,-46 50,-41 19,5 151,369 4,152zm-774 -470c4,58 27,155 38,188 7,24 78,63 53,111 -18,38 -428,8 -456,-21 -70,-71 -7,-327 55,-387 47,-46 259,-115 319,-50 31,34 -12,137 -9,159zm-696 -199c-6,23 -99,72 -127,130 -17,34 25,111 -45,124 -30,5 -353,-333 -188,-288 47,14 231,91 243,-30 10,-113 -299,-322 -201,-419 55,-54 347,371 318,483zm877 -677c71,-53 229,-52 291,-3 79,65 22,64 66,140 53,90 127,124 101,175 -1,1 -284,92 -334,91 -186,-3 -313,-264 -124,-403zm409 -76c-26,-127 26,-273 61,-305 7,-5 117,-83 153,-39 59,75 -189,170 -177,240 11,75 171,-24 251,-120 -10,12 8,-76 15,-76 65,-8 195,203 168,280 -21,64 -15,-13 -97,47 -50,35 -108,153 -128,198 -2,2 -32,64 -22,62 -91,23 -211,-225 -224,-287zm-560 -1243c-37,-104 79,-304 130,-337 76,-50 180,-31 242,39 112,129 114,374 -7,380 -33,2 -215,-247 -280,-191 -59,50 239,244 238,246 -57,161 -303,-79 -323,-137zm-166 -58c-47,190 6,292 -249,411 -177,83 -421,111 -528,47 -176,-107 -272,-348 -95,-486 109,-87 312,-115 508,-159 70,-15 430,-108 459,-81 31,28 -37,137 -37,138 -19,48 -44,76 -58,130zm-1166 -248c-77,-32 -161,-76 -137,-199 -3,9 -3,10 2,-11 -1,4 -1,7 -2,11 8,-22 33,-97 52,-87 13,8 188,468 142,190 -36,-223 -102,-365 132,-441 36,-12 72,-20 106,-24 12,-1 22,-1 34,-1 23,-2 46,-3 69,-2 13,1 25,4 37,5 21,3 42,5 62,10 13,3 25,7 37,10 20,6 40,12 60,19 12,4 22,9 34,13 21,8 41,17 62,27 9,4 18,9 27,13 24,11 48,23 71,36 1,0 2,1 3,1 49,27 99,54 148,80 3,2 6,3 9,5 0,0 0,0 -1,0l1 0c9,5 18,10 27,15 34,18 240,92 330,116 121,33 -175,120 -230,128 0,0 -90,-19 -110,-15 -112,19 -383,150 -446,110 -94,-61 9,-383 -118,-391 -110,-6 99,382 14,423 -153,75 -43,-469 -179,-446 -71,12 16,272 14,353 -2,134 -85,-137 -93,-195 -16,-100 28,-212 -45,-202 -96,13 -21,305 -13,333 53,191 49,177 -99,116zm-334 -339c-15,78 35,350 -116,296 -30,-10 13,-38 2,-68 -8,-22 -147,-227 -191,-219 -148,29 155,287 155,287 -5,31 -96,54 -77,54 -112,-2 -142,-399 -258,-323 -72,47 50,142 39,153 -50,52 -202,-136 -219,-170 -38,-76 -51,-219 -44,-236 30,-70 173,-134 250,-51 1,1 73,172 101,175 142,10 28,-184 25,-235 -4,-81 67,-197 101,-221 152,-105 243,87 155,218 -28,41 -76,51 -71,103 8,80 37,-16 83,29 32,32 -30,121 61,91 99,-34 12,78 4,117zm-305 439c-20,57 -309,37 -262,-81 21,-51 90,-8 98,-12 21,-12 -34,-59 42,-55 -2,1 -5,-13 -6,-14 -3,-1 150,100 128,162zm1535 -1491c172,-158 402,100 492,382 27,83 52,612 -11,658 -57,43 -315,-91 -364,-152 -190,-235 -257,-759 -117,-888zm-1043 -1783c-3,-27 42,-55 42,-56 29,-37 115,-82 161,-59 28,15 68,198 72,188 10,-19 -210,-12 -166,46 10,14 103,22 130,57 10,12 -11,60 -1,70 74,61 211,59 191,183 -3,13 -80,-14 -90,-9 -15,7 -9,71 -43,55 -7,-3 -290,-427 -296,-475zm-454 -590c-105,-86 -331,-164 -189,-322 188,-208 365,54 431,291 25,86 70,234 65,244 -44,93 -232,-152 -307,-213zm289 496c-12,57 -213,24 -144,-85 2,-4 160,5 144,85zm-181 53c-96,143 -231,-226 -203,-280 77,-153 243,219 203,280zm-258 72c-58,-4 -97,-368 -83,-389 46,-67 178,394 83,389zm-232 -164c-19,-43 -42,-198 -79,-202 -142,-15 48,265 22,298 -92,116 -145,-340 -260,-219 -56,59 95,106 60,160 -49,77 -288,-127 -253,-204 0,-1 72,-69 161,-95 66,-19 401,-14 409,-7 4,4 49,231 57,299 14,110 -38,158 -117,-30zm-600 -1000c41,-46 36,187 25,194 -58,36 -49,-166 -25,-194zm-173 -3c-133,190 -81,-118 -255,-67 -167,50 2,275 -95,338 -84,54 -169,-56 -179,-86 -36,-111 202,-190 164,-302 -26,-78 -236,7 -302,-130 -39,-78 27,-188 94,-233 151,-104 168,83 262,45 98,-40 -2,-132 37,-172 62,-64 213,-60 284,53 52,83 -23,198 1,326 31,168 73,109 -11,228zm292 -72c7,-8 50,-47 77,-19 17,18 -22,61 -30,117 -4,30 25,351 -19,353 -66,3 -40,-433 -28,-451zm503 189c14,68 -60,107 -73,172 -36,199 155,395 -135,254 -43,-20 -180,-121 -171,-107 -26,-42 -2,-239 5,-311 5,-66 3,-180 24,-201 37,-38 316,43 350,193zm-634 -2220c74,-139 244,353 344,540 137,257 364,685 503,943 111,205 169,281 249,482 13,36 107,202 79,237 -13,15 -139,-53 -159,-79 -52,-68 -67,-212 -139,-363 -192,-405 -535,-1077 -730,-1453 -39,-75 -192,-222 -147,-307zm-848 -659c-68,-69 -144,-180 -149,-203 -5,-21 72,-328 117,-365 133,-109 381,196 486,369 98,163 191,471 157,508 -53,58 -567,-263 -611,-309zm682 601c-1,19 -225,173 -301,196 -162,47 -313,-82 -197,-197 45,-46 506,-112 498,1zm-824 -395c-11,-21 -12,-46 1,-69 44,-77 376,186 364,221 -12,30 -318,-59 -365,-152zm-76 -839c16,-18 73,-61 111,-19 7,8 -50,185 -59,235 -8,41 30,103 -29,82 -69,-24 -45,-275 -23,-298zm984 764c-60,-238 -157,-579 54,-712 296,-185 386,329 268,524 -42,70 -189,240 -248,342 -46,80 -55,-80 -74,-154zm567 107c-65,4 -182,-188 -100,-244 111,-78 243,235 100,244zm-120 143c-34,-5 -121,-128 -88,-181 56,-87 214,202 88,181zm-223 73c-24,-29 8,-51 35,-69 140,-89 40,157 -35,69zm1643 4003c-3,-5 -15,-23 -13,-28 15,-56 207,32 205,107 0,3 -67,71 -64,82 29,86 75,20 124,79 18,22 20,72 39,118 90,213 369,584 370,699 0,80 -40,30 -71,68 -34,41 -18,86 -50,76 -41,-15 -226,-463 -261,-545 -58,-137 -215,-510 -279,-656zm-372 -2174c187,-143 410,-95 439,201 8,78 9,340 7,443 -2,111 -16,266 -33,326 -19,69 -93,106 -149,191 -64,98 -76,252 -170,218 -58,-20 -57,-198 -78,-271 -121,-406 -282,-906 -16,-1108zm-311 -75c-29,-171 -59,-443 106,-531 114,-61 348,155 265,337 -14,30 -98,57 -141,101 -128,133 -150,558 -230,93zm1011 391c324,-266 275,368 195,371 -61,2 -173,-275 -253,-205 -83,73 227,249 232,266 1,8 -5,117 -79,124 -33,3 -59,-48 -109,-85 -51,-38 -99,-60 -109,-85 -45,-100 40,-317 123,-386zm-297 -836c242,-180 367,352 330,547 -11,61 -76,184 -121,177 -32,-5 -42,-215 -85,-286 -71,-115 -174,-97 -211,-190 -29,-73 30,-205 87,-248zm-320 -705c137,-100 219,332 330,117 20,-39 3,-232 80,-227 36,2 115,132 115,168 0,82 -147,65 -85,144 59,76 144,-65 180,-53 61,21 68,179 -17,215 -52,21 -174,-107 -269,-60 -34,17 -70,155 -93,164 -160,64 -375,-370 -241,-468zm591 2275c-61,-3 -120,-141 -100,-174 58,-99 283,184 100,174zm-168 150c-27,-11 9,-105 15,-111 111,-113 101,157 -15,111zm1248 2749c-3,-265 -74,-565 130,-697 12,-8 30,-52 77,-54 86,-3 377,361 120,252 -87,-37 -42,-82 -102,-71 -89,14 -109,60 -99,115 14,78 233,95 234,94 68,-19 112,-100 126,-94 24,10 42,129 52,181 57,276 -82,478 -205,716 -75,145 -266,398 -334,57 -23,-112 3,-324 1,-499zm-271 -1140c30,-47 130,-38 132,-81 7,-75 -79,-37 -122,-113 -25,-44 -30,-162 -18,-180 40,-60 185,-35 211,-135 0,0 2,-35 0,-34 155,-52 106,281 203,280 105,-2 60,-208 94,-234 62,-47 316,15 366,83 80,108 42,258 -26,304 -42,29 -259,-3 -258,106 -1,70 181,32 206,73 93,151 -224,160 -306,78 -64,-64 -16,-192 -135,-175 -111,15 -43,197 -177,239 -112,35 -213,-145 -170,-211zm1105 622c16,159 -114,620 -150,620 -49,0 16,-249 12,-297 -7,-106 -54,-253 -71,-293 -54,-123 -153,-139 -58,-229 81,-77 246,11 267,199zm123 78c80,-117 17,-6 54,77 16,36 39,5 69,36 88,91 96,390 -4,241 -30,-43 -142,-113 -137,-106 -45,-72 -23,-189 18,-248zm87 610c-46,3 -216,-223 -134,-279 42,-29 298,273 134,279zm-50 76c-16,119 -216,-49 -192,-114 22,-65 197,70 192,114zm-163 164c-51,36 -143,-83 -101,-141 29,-39 150,106 101,141zm-274 -144c77,-93 -4,115 -36,104 -41,-15 23,-88 36,-104zm-47 332c5,3 82,-126 106,-137 225,-105 -13,200 -106,137zm48 1247c-5,15 -103,53 -139,32 -18,-10 -28,-87 -40,-118 -65,-163 -250,-414 -102,-500 104,-60 132,242 187,391 41,110 103,169 94,195zm413 575c-12,-125 -187,-382 -145,-445 32,-50 149,-27 180,16 37,55 -13,195 -11,264 0,73 92,541 52,575 -16,14 -117,-29 -117,-30 -54,-68 47,-307 41,-380zm218 -620c10,-29 42,-47 99,-81 50,-30 91,-72 138,-32 50,42 -23,84 33,104 66,25 26,-68 71,-68 33,1 123,150 128,162 -2,-5 49,144 53,181 2,16 -43,379 -71,498 -28,117 -108,264 -129,267 -79,10 -176,-214 -239,-177 -90,51 69,144 100,175 55,55 172,178 53,181 -6,0 -238,-210 -238,-212 -111,-179 -67,-801 2,-998zm-11 -990c37,-4 70,92 96,92 116,-1 26,-162 108,-241 33,-33 175,-79 235,-10 86,100 -71,328 50,320 21,-2 96,-105 126,-95 105,32 73,469 -36,463 -105,-6 -77,-243 -211,-191 -45,19 -46,346 -212,240 -63,-42 26,-255 -92,-266 -84,-6 -62,111 -141,103 -183,-22 -69,-398 77,-415zm508 -484c-86,-55 -164,-267 -65,-335 112,-77 274,302 362,149 67,-113 -76,-185 97,-95 174,92 22,29 26,214 3,126 52,73 -54,111 6,-3 -61,30 -80,53 -44,52 57,293 -112,293 -207,1 29,-322 22,-339 -28,-64 -146,-18 -196,-51zm683 92c-63,32 -131,-55 -117,-103 22,-68 218,53 117,103zm-209 77c9,-3 109,114 42,172 -78,66 -163,-133 -42,-172zm-475 2699c81,-64 162,-156 218,-225 64,-75 87,-181 184,-225 69,-31 172,-12 178,120 4,77 -273,302 -408,367 -80,40 -262,92 -284,51 -35,-59 85,-66 112,-88zm-179 -1699c47,-62 228,61 171,106 -58,45 -182,-93 -171,-106zm369 698c1,-21 -15,-18 1,-34 152,-165 221,227 195,336 -26,104 -212,339 -278,424 -67,88 -306,311 -188,73 32,-64 150,-237 171,-288 66,-159 93,-411 99,-511zm-678 772c0,0 -7,-15 -6,-14 8,0 190,64 191,114 2,61 -134,161 -189,141 -28,-10 5,-237 3,-207 2,-20 -15,-21 1,-34zm1380 3167c-3,-8 -43,-106 -40,-118 8,-25 206,422 228,475 144,338 282,573 410,782 30,50 141,231 4,153 -118,-68 -190,-382 -255,-531 -121,-281 -214,-417 -347,-761zm5759 4843c-24,-4 -44,-25 -63,-23 -57,6 -27,90 -87,38 -26,-22 -56,-118 -35,-157 70,-136 389,184 185,142zm275 536c-39,76 -327,-20 -269,-174 35,-91 333,51 269,174zm507 1750c-57,-228 -139,-358 -242,-620 -154,-386 -318,-763 -386,-937 -7,-17 9,-29 16,-41 26,-51 145,-56 178,-29 27,23 78,197 115,296 103,278 248,762 364,1120 26,83 87,191 88,237 0,-15 -42,164 -91,145 -96,-37 -28,-116 -42,-171zm-733 -2033c-1,0 -1,0 -1,0l0 0c-9,4 -18,9 -27,14 -1,1 -3,2 -5,3 -7,4 -12,8 -16,12 -2,2 -4,3 -5,5 -4,3 -5,6 -6,9 0,2 -1,4 0,5 0,1 -1,2 -1,2 -9,-7 -22,-20 -34,-36 -1,0 -2,-1 -3,-2 -4,-6 -9,-13 -14,-20 -3,-3 -5,-7 -8,-11 -4,-6 -7,-11 -11,-17 -3,-6 -6,-12 -9,-18 -3,-4 -6,-9 -8,-14 -4,-8 -6,-15 -9,-22 -2,-4 -3,-8 -4,-12 -3,-8 -4,-16 -6,-24 0,-3 -1,-6 -1,-10 -1,-10 0,-21 2,-30 11,-36 303,58 277,154 -4,13 -67,15 -111,12zm-2466 -3089c-44,49 -165,-98 -127,-167 71,-132 132,163 127,167zm4108 8963c-10,-7 -22,-16 -34,-24 -53,-94 -105,-189 -157,-310 -8,-18 -19,-51 -33,-88 49,66 100,132 155,193 88,97 315,276 242,343 -44,40 -124,-75 -173,-114zm752 3784c-160,-145 -318,-289 -469,-428 -149,-137 -290,-223 -448,-387 -52,-54 -92,-116 -150,-173 -109,-111 -311,-260 -447,-403 -155,-164 -336,-347 -456,-496 187,28 373,59 537,115 126,44 350,151 445,250 164,172 264,476 432,721 184,269 370,536 556,801zm-1055 -4064c7,25 11,53 15,79 -23,-17 -46,-34 -69,-54 -96,-81 -302,-276 -312,-346 -8,-59 129,-214 129,-215 8,-1 12,-25 36,2 31,36 69,90 111,151 -7,2 -14,1 -22,6 -66,49 82,262 112,377zm-419 -401c-39,-15 64,-327 91,-337 61,-20 -35,358 -91,337zm-56 -201c-7,25 -48,125 -71,-4 -13,-76 81,-312 142,-341 77,-35 -40,243 -71,345zm-194 70c213,358 470,567 703,765 22,323 -43,677 -40,937 3,228 -111,-39 -144,-86 -154,-212 -378,-588 -520,-797 -187,-279 -417,-541 -568,-828 -131,-250 -107,-274 -20,-437 120,-222 202,-420 219,-650 42,158 91,312 155,499 68,200 95,394 215,597zm1053 2802c-67,236 -167,-294 -185,-460 -23,-172 24,-469 -9,-768 -20,-184 -39,-457 -30,-673 0,0 -3,-81 8,-90 19,-14 93,126 143,225 107,216 226,643 198,986 -20,232 -57,546 -125,780zm477 888c-3,-10 -8,366 -13,368 -10,2 -377,-507 -393,-533 -21,-37 -27,-100 -66,-175 -51,-97 -136,-97 -108,-189 30,-94 33,23 118,-5 54,-18 19,-85 70,-68 70,23 369,509 392,602zm109 515c-95,61 -40,-115 -40,-119 0,-52 -29,-185 18,-214 92,-59 27,330 22,333zm197 266c62,1 42,-217 72,-206 13,5 2,344 -6,346 -44,11 -226,-298 -224,-288 -6,-26 63,-222 59,-200 3,-16 -18,-23 1,-34 135,-80 24,381 98,382zm-2194 -6236c26,-30 230,209 312,346 157,265 347,754 309,884 -2,6 -7,14 -14,22 -2,1 -2,2 -3,3 -8,7 -16,15 -25,22 -2,1 -3,2 -4,3 -9,7 -18,13 -25,18 -1,1 -1,1 -2,2 -8,4 -14,7 -16,7l0 0c0,1 0,2 0,2 -2,4 -3,9 -6,16 -1,2 -2,5 -3,7 -2,6 -5,12 -7,19 -4,11 -9,22 -14,35 0,0 0,0 -1,0 -25,62 -60,140 -80,170 -1,1 -2,2 -2,3 -5,6 -9,10 -11,9 -84,-32 2,-102 22,-183 23,-86 24,-184 31,-204 14,-40 98,-91 61,-132 -129,-145 -154,300 -203,282 -9,-4 -88,-110 -83,-187 0,-11 240,-242 217,-289 -78,-156 -194,213 -242,195 -7,-3 -58,-118 -71,-159 -57,-175 -99,-567 -130,-791 2,14 -27,-80 -10,-100zm-1058 -910c-69,-215 -119,-460 -108,-654 2,-26 -15,-37 8,-55 36,-27 112,58 178,155 181,270 385,671 524,951 49,102 303,465 139,398 -117,-48 3,-56 -5,-118 -9,-68 -207,-115 -221,-101 -72,76 52,61 75,119 16,42 -31,66 -2,104 36,46 97,93 165,93 22,-1 46,-41 76,-20 230,160 -241,100 -177,205 28,43 311,-31 254,135 -26,80 -268,-142 -283,-18 -14,111 249,107 281,157 32,49 21,139 5,153 -10,7 -207,-113 -202,9 2,53 249,146 221,102 51,79 -75,283 -125,386 -18,38 0,33 -64,117 91,-119 -58,107 -92,94 -98,-34 45,-343 48,-365 67,-490 -498,-1224 -695,-1847zm931 3056c-3,-40 334,403 387,484 206,314 441,772 633,1036 39,54 115,96 136,140 25,52 -7,88 11,167 33,142 96,343 130,486 17,72 45,160 -56,62 -115,-113 -149,-385 -226,-579 -83,-210 -211,-432 -328,-649 -196,-362 -373,-659 -572,-980 -31,-49 -112,-111 -115,-167zm-1761 -1561c-72,-126 -206,-308 -255,-462 -14,-44 -29,-497 23,-525 7,-4 72,-7 96,91 6,31 -44,76 -51,111 -50,234 79,634 100,209 1,-8 -4,-237 -10,-236 35,-9 245,357 243,399 0,4 -101,96 -107,137 -12,82 38,207 66,209 67,3 7,-176 25,-235 41,-139 143,136 197,231 182,323 499,612 742,830 258,234 -264,63 -382,-6 -207,-123 -555,-522 -687,-753zm-333 -1127c17,-15 83,11 88,77 0,-3 -41,-2 -49,6 -36,38 -50,244 -53,317 -4,72 -80,77 -89,-77 -1,-11 41,-4 56,-27 64,-96 -14,-247 47,-296zm-123 247c-3,58 -51,111 -68,-36 -4,-29 45,-7 56,-61 18,-83 -50,-255 12,-298 91,-64 5,319 0,395zm-365 -478c-24,-29 -131,-97 -122,-147 2,-19 214,-8 241,39 19,34 -38,97 -30,152 16,119 -20,42 -89,-44zm201 -10c0,-2 -1,-34 0,-35 111,-105 56,294 56,369 0,-7 -10,39 0,34 -95,45 -59,-357 -56,-368zm2273 2705c4,-9 -190,-149 -182,-239 11,-136 184,235 182,239zm-1800 -2863c96,187 234,376 358,567 291,451 611,877 940,1353 117,169 221,403 -5,207 -135,-119 -291,-259 -415,-401 -152,-175 -201,-395 -342,-644 -168,-295 -388,-560 -514,-784 -55,-100 -80,-220 -139,-328 -146,-270 -326,-569 -512,-853 -448,-683 -817,-1331 -1274,-2086 -192,-317 -492,-615 -579,-959 -1,-5 -15,-22 -14,-27 44,-128 185,149 218,204 308,498 632,1014 972,1527 163,245 292,516 451,762 156,240 323,454 481,680 169,244 242,523 374,782zm-2370 -4480c28,72 -105,263 -177,309 -103,66 -236,-192 -299,-337 -3,-6 -15,-24 -14,-28 40,-165 449,-54 490,56zm45 -1342c97,219 31,642 -78,878 -81,178 -53,140 -217,156 -6,0 -124,42 -139,32 -43,-30 0,-288 -14,-423 -30,-310 -264,-745 2,-928 107,-74 341,50 446,285zm-170 -641c40,-32 91,-62 126,-60 118,6 312,288 241,434 -3,8 -112,103 -105,102 -59,8 -120,-117 -191,-183 -34,-33 -138,-71 -150,-100 -24,-59 42,-162 79,-193zm228 -292c-19,36 -252,27 -283,-11 -61,-75 -30,-204 75,-260 71,-37 85,-19 131,62 46,80 87,188 77,209zm533 1199c-20,-15 -41,-231 -31,-243 0,0 210,53 212,156 1,47 -122,133 -181,87zm-212 238c-49,21 -188,-124 -171,-175 17,-48 265,134 171,175zm-191 -612c167,-172 379,380 136,175 -82,-68 -50,-89 -96,-91 -58,-3 -43,54 -42,55 -32,-33 -33,-102 2,-139zm244 329c100,220 -320,-40 -254,-135 1,-2 249,125 254,135zm-174 462c-38,-5 -102,-78 -81,-134 47,-122 227,149 81,134zm-227 314c-18,-6 49,-248 95,-268 8,-3 78,1 82,64 1,32 -182,203 -177,204zm41 277c-6,-14 -10,-27 -11,-34 -5,-116 332,-365 412,-540 23,-52 27,-127 43,-158 -15,30 11,-74 92,-95 -2,-1 18,-40 36,-35 46,13 132,165 154,252 36,136 -44,387 -189,502 -11,10 -26,20 -45,32 -128,81 -393,202 -436,182 0,0 -36,-62 -56,-106zm571 -1651c67,95 229,20 219,135 -4,46 38,69 -8,89 -87,41 -181,-203 -254,-134 -94,88 298,251 230,300 -4,3 -297,-92 -309,-109 -73,-91 38,-326 82,-365 18,-16 57,-67 126,-60 66,6 253,214 46,97 -76,-42 -212,-66 -132,47zm1372 908c-42,112 -182,-365 -218,-371 -50,-8 -64,70 -61,97 -5,-42 119,222 118,224 -37,82 -159,-106 -138,-76 -76,-110 -102,-262 -111,-246 56,-105 320,57 350,121 17,38 -32,57 -6,142 13,44 78,78 66,109zm292 -45c-39,102 -304,34 -278,-118 9,-56 290,88 278,118zm-667 -1834c51,-33 97,-70 166,-57 139,28 179,183 200,291 25,127 185,399 -37,381 -4,1 -263,-242 -266,-244 -58,-27 -127,17 -176,-43 -101,-124 24,-270 113,-328zm183 716c9,41 -64,259 -83,280 -29,32 -47,-27 -77,-17 -108,37 -12,227 -73,223 -65,-5 -67,-181 -68,-230 -1,-23 36,-222 -40,-207 -58,12 -31,94 -31,205 0,-8 30,189 5,204 -93,62 -98,-101 -97,-215 1,-147 46,-168 4,-262 -3,-7 -61,-43 -55,-46 -75,18 16,389 -51,388 -111,-2 38,-469 -80,-449 -77,12 -8,268 -33,274 -152,38 -58,-356 -5,-397 91,-68 631,17 684,249zm-1545 -157c86,-23 -98,-380 -81,-414 4,-9 107,-2 116,-12 24,35 75,346 146,327 26,-6 -29,-356 -72,-470 -44,-120 -152,-197 -94,-288 102,-162 413,125 451,232 11,36 -27,108 -14,162 13,55 69,137 119,189 44,46 145,57 158,120 5,22 -88,160 -114,173 -62,31 -162,-45 -268,-19 -69,17 -125,82 -152,86 -54,8 -11,-21 -70,-39 -56,-17 -215,22 -254,-24 -7,-10 -19,-184 -51,-271 -29,-75 -90,-263 15,-198 50,31 62,473 165,446zm-945 2121c18,14 317,350 291,393 -68,116 -191,-123 -266,-234 -28,-40 -148,-119 -18,-145 -2,0 -6,-13 -7,-14zm-135 150c12,9 291,272 251,343 -78,143 -398,-246 -244,-329 0,0 -5,-14 -7,-14zm-761 1301c-1,-61 -24,-133 -17,-186 6,-46 43,-87 48,-127 4,-28 4,-52 4,-72 38,-8 77,-22 118,-41 14,16 32,30 54,34 33,5 129,-86 144,-82 59,11 36,197 28,248 -15,101 -37,193 -57,250 -20,57 -200,362 -235,360 -120,-9 -86,-334 -87,-384zm-255 -196c-7,-82 -47,-157 -59,-235 -1,-4 -1,-9 -1,-14 77,32 168,54 241,62 -9,69 -30,145 -36,206 -9,91 9,214 8,308 0,286 -148,-269 -153,-327zm-145 -806c2,18 -16,33 -38,52 -3,-19 -4,-38 4,-53 -1,2 14,-2 31,-8 1,3 3,6 3,9zm752 466c1,5 5,11 3,16 -2,3 -13,2 -28,0 8,-6 16,-11 25,-16zm-905 -606c25,5 77,68 24,78 -19,4 -80,-91 -24,-78zm198 341c83,-134 345,130 287,241 -35,67 -384,-81 -287,-241zm631 -79c34,-104 160,57 194,45 92,-33 -64,-126 44,-124 52,2 196,-102 171,72 -4,36 -558,382 -643,343 4,1 -124,-171 -99,-245 30,-87 137,146 199,128 137,-38 -39,-128 -33,-139 81,-168 144,163 227,81 12,-12 -45,-205 -60,-161zm-1154 -546c56,-55 177,-62 180,17 2,41 -196,154 -182,157 -68,-13 -27,-144 2,-174zm282 850c-56,12 -130,65 -151,58 -33,-11 -74,-100 -113,-147 -78,-96 -164,-191 -251,-285 55,-45 96,-112 165,-151 34,-19 108,-18 167,-46 111,-53 127,-104 169,-75 -15,2 -29,7 -40,18 -103,102 46,152 120,256 17,24 19,58 22,89 -29,74 -27,178 27,275 -36,4 -82,1 -115,8zm362 820c-5,12 -136,-28 -154,-95 -8,-32 54,-107 69,-103 11,3 -3,27 -2,30 0,0 81,180 87,168zm-189 -479c7,8 40,30 37,53 -6,31 -139,144 -84,186 16,12 66,-28 70,-3 9,73 -76,61 -103,31 -143,-160 -276,-393 -148,-488 16,-13 133,-78 180,-42 10,8 45,96 35,143 -4,17 -34,6 -48,26 -4,6 -70,202 -69,204 40,40 117,-91 130,-110zm1146 775c-7,3 -106,-3 -121,-40 -1,-5 95,-247 134,-245 148,11 13,271 -13,285zm-131 198c-55,-69 -280,-150 -207,-208 57,-46 138,137 189,152 15,5 69,3 102,-15 21,-13 32,-45 48,-42 39,6 105,113 97,146 -8,37 -163,100 -177,94 -42,-19 -2,-65 -52,-127zm894 1253c43,-48 -1,-70 52,-90 36,-12 31,62 77,6 1,-1 -8,-83 -10,-77 8,-31 34,-34 75,-79 68,-75 133,-290 178,-311 26,-12 117,9 143,34 37,36 29,89 30,118 4,98 -60,-104 -120,-40 -10,11 170,237 84,230 -58,-4 -64,-202 -137,-141 -31,25 20,66 38,110 120,285 -102,-101 -149,-57 -27,25 114,200 106,224 -15,47 -195,75 -255,104 -65,32 13,24 -72,49 12,-4 -128,20 -130,-18 0,-14 88,-60 90,-62zm-72 -1315c-7,-7 -144,-113 -32,-87 62,14 187,309 249,272 15,-8 -71,-244 -66,-244 81,6 176,260 99,316 6,-4 -88,20 -108,7 -32,-20 -37,-113 -58,-151 -15,-24 -54,-82 -84,-113zm-24 1138c29,-77 90,-171 111,-238 43,-142 -3,-525 64,-558 53,-25 171,43 222,125 70,109 -33,356 -113,484 -64,103 -370,421 -284,187zm-347 -1135c37,-30 189,-45 185,14 -2,19 -66,-10 -108,-9 -59,3 -120,31 -77,-5zm94 91c65,8 88,67 128,33 -18,15 22,-60 21,-60 100,13 158,269 162,305 3,30 -21,82 -26,136 -8,96 8,213 -5,278 -12,55 -33,221 -67,71 -29,-129 -110,-396 -171,-497 -45,-76 -314,-224 -195,-277 1,0 12,15 14,17 47,24 83,-12 139,-6zm3160 5367c29,120 -119,-109 -157,-166 -531,-811 -1170,-1748 -1792,-2530 -177,-222 -340,-442 -511,-692 -55,-82 -118,-218 -198,-331 -32,-45 -191,-200 -183,-245 5,-22 196,-47 213,-53 122,-45 301,-119 401,-217 137,-136 249,-403 -12,-563 -48,-30 -123,2 -152,-27 -28,-28 3,-144 -32,-202 -29,-49 -109,-79 -123,-110 -22,-50 35,-110 38,-189 1,-41 -7,-150 -33,-188 -74,-110 -269,-159 -383,-129 -33,9 -63,50 -96,55 -87,13 -300,-124 -396,40 -37,63 -81,0 -55,-97 28,-104 93,-114 75,-179 -13,-50 -108,-151 -174,-152 -175,0 -119,244 -206,293 -65,37 -123,-78 -207,-8 -56,47 -40,120 -13,169 45,80 163,116 210,177 20,26 -3,45 17,86 16,33 56,57 57,66 1,14 -37,102 -54,104 -11,1 -194,-256 -217,-286 -57,-69 -181,-202 -182,-260 0,-41 91,-133 113,-169 153,-244 271,-537 222,-807 -7,-38 -22,-74 -44,-107 27,-17 53,-33 78,-47 148,-84 401,-139 501,-171 99,-31 204,-98 258,-72 71,34 215,417 289,531 351,543 835,1248 1099,1757 29,56 68,127 101,175 256,380 557,851 783,1239 53,93 214,396 112,307 -109,-95 -338,-246 -473,-271 -29,-6 -102,20 -146,18 -70,-3 -231,-96 -270,-26 -47,88 180,208 224,254 262,275 545,767 737,1107 12,21 24,42 36,63 -74,-55 -152,-101 -175,-66 -32,50 66,115 96,162 188,285 176,721 284,1045 72,218 285,481 340,712zm-297 -878c-25,-173 116,100 145,19 23,-63 -129,-93 -172,-167 -18,-31 -25,-98 28,-68 119,70 118,43 19,-59 -91,-97 -102,-111 -10,-63 167,88 -26,-102 -30,-118 1,4 54,21 62,4 10,-22 -51,-56 -43,-48 -114,-119 -213,-213 -184,-330 0,1 7,8 8,8 4,0 22,17 36,29 76,125 155,250 239,367 70,172 96,344 169,569 60,186 139,315 169,529 13,103 11,182 11,262 -2,222 -55,22 -62,-4 -68,-293 -345,-652 -385,-930zm919 1116c-3,-1 -202,-79 -209,8 -4,48 252,126 289,152 46,32 129,127 157,166 246,335 360,824 422,1036 -15,-4 -29,-5 -45,-10 -61,-16 -116,-59 -174,-83 -158,-203 -303,-442 -469,-670 -72,-98 -211,-298 -285,-414 -22,-35 -65,-103 -75,-137 -30,-94 17,-211 12,-268 -4,-37 -27,-70 -31,-103 -18,-127 -5,-238 -36,-341 -26,-92 -85,-186 -130,-318 -42,-122 -68,-244 -102,-368 199,244 417,438 655,517 125,42 236,14 324,103 129,130 198,353 331,511 190,226 358,448 507,701 128,215 221,466 335,698 35,71 242,323 202,385 1,-3 -141,-98 -131,-92 -144,-65 -287,-72 -438,-73 -7,-62 -18,-120 -30,-164 -31,-106 -90,-232 -135,-372 -141,-443 -559,-744 -944,-864zm785 1385c4,-3 6,-6 13,-8 10,-3 35,4 60,16 -23,-2 -48,-5 -73,-8zm-132 -442c15,-9 10,6 23,9 -17,-3 220,26 194,91 -6,13 -297,-55 -217,-100zm247 403c-25,22 -226,-82 -153,-112 32,-12 206,71 153,112zm-210 -278c42,-26 261,99 198,146 -19,14 -287,-88 -198,-146zm-76 -537c51,11 160,208 188,284 59,160 -44,62 -121,76 -8,1 -37,33 -49,27 -30,-16 -48,-162 -102,-270 -42,-82 -88,-153 -117,-200 -2,-4 -133,-177 -109,-194 20,-14 284,121 299,230 6,46 -25,-8 -55,19 -107,97 77,31 66,28zm2940 3483c-5,-35 -33,357 -20,352 8,-2 -277,-256 -277,-364 -1,7 51,-3 63,-14 28,-25 6,-170 44,-192 64,-37 -3,292 72,292 -12,0 76,-333 118,-74zm-447 -957c-81,-123 -160,-246 -237,-365 -114,-178 -302,-331 -338,-490 -18,-83 42,-163 53,-248 4,-35 -23,-72 -19,-111 10,-95 46,-182 53,-284 9,-123 17,-245 15,-370 172,532 288,1095 424,1652 18,71 34,143 49,216zm-1862 -6462c89,-64 307,337 252,408 -42,54 -261,0 -301,-91 -16,-36 28,-303 49,-317zm-131 94c56,-41 9,148 -6,142 -59,-27 -34,-114 6,-142zm-149 -177c20,-91 -35,-140 7,-176 81,-71 133,367 0,347 -87,-13 -13,-148 -7,-171zm-143 -317c126,-61 23,293 9,291 -100,-16 -69,-262 -9,-291zm-182 -214c144,-103 110,520 -16,199 -23,-60 -3,-184 16,-199zm-106 -4c-30,1 -391,-511 -396,-533 -11,-67 124,-41 35,-155 -53,-67 -84,43 -128,23 -43,-18 -159,-236 -283,-359 -77,-76 -245,-142 -225,-194 1,-3 7,-6 13,-8 2,-1 4,-1 5,-1 6,-3 14,-4 23,-5 1,0 3,0 5,-1 10,-1 20,-2 31,-2 2,0 3,0 5,0 12,0 24,0 36,-1 0,0 0,0 0,0 32,1 60,2 75,1 1,0 3,0 4,0 3,0 3,0 4,0 0,-1 1,0 1,-1l1 0c5,2 11,5 17,7 7,3 15,5 22,9 10,4 20,10 30,16 6,3 11,6 17,9 16,10 32,21 49,34 1,0 1,0 2,1 90,66 195,168 282,287 83,111 265,407 266,437 1,45 -73,68 -61,96 47,115 52,-6 119,34 43,25 140,165 133,218 1,-14 -105,89 -82,88zm648 91c30,74 176,316 6,206 -119,-76 -91,-66 -212,-200 -209,-230 -313,-438 -439,-670 -211,-387 -500,-732 -788,-791 -62,-13 -368,-30 -405,25 -64,95 132,247 124,239 37,38 196,149 213,165 184,176 369,440 484,615 317,483 743,1376 1141,1500 57,18 127,-14 163,14 79,63 164,358 244,585 149,415 320,990 445,1378 27,83 122,253 173,425 28,93 123,400 -10,248 -315,-363 -476,-999 -670,-1417 -127,-274 -277,-626 -446,-840 1,1 -315,-297 -307,-297 -43,1 -58,66 -57,158 -97,-269 -234,-546 -402,-833 -109,-185 -228,-417 -398,-651 -26,-36 -184,-225 -239,-212 -64,16 -108,275 -109,345 -3,192 84,535 160,764 50,153 113,335 172,467 134,304 375,559 422,846 10,60 -9,444 -49,435 -55,-13 -169,-243 -216,-308 -214,-296 -515,-698 -669,-968 -305,-530 -547,-1072 -820,-1496 -179,-277 -339,-570 -540,-874 -375,-569 -771,-1172 -1106,-1737 -164,-275 -501,-653 -243,-829 45,-29 128,-29 168,-44 419,-162 670,-494 603,-856 -18,-96 -105,-140 -107,-259 -1,-77 117,-152 143,-239 13,-42 -15,-139 -3,-222 17,-116 73,-236 13,-367 -4,-9 -11,-19 -17,-29 81,100 192,335 246,385 21,20 87,40 132,62 -83,-43 123,30 124,84 0,2 -118,111 -110,101 -89,99 -140,180 -49,317 150,226 573,284 804,246 129,-21 462,-188 572,-117 48,30 55,127 90,202 502,1055 853,2291 1325,3378 106,240 329,780 444,1066zm-1836 -4865c-53,4 -335,-9 -367,-43 -32,-36 38,-284 -17,-427 -94,-243 -57,375 -87,386 -52,21 -57,-334 -55,-356 1,-40 76,-145 21,-184 -111,-77 -97,287 -92,337 3,36 31,112 9,135 -4,3 -10,3 -16,1 -3,-1 -6,-3 -8,-4 -4,-2 -8,-4 -11,-6 -13,-10 -25,-21 -31,-26 -1,0 -1,-1 -2,-1 0,-1 0,-1 -1,-1l0 0c3,5 4,10 5,12 -5,-8 -7,-11 -7,-12 0,-1 1,-1 2,0 0,0 0,-1 0,0 -14,-55 4,-225 0,-348 -2,-75 -13,-132 -45,-137 -164,-24 6,360 -37,381 -98,49 -89,-424 -88,-429 20,-75 107,-163 128,-179 311,-242 403,113 586,379 71,105 442,495 113,522zm-3042 -3804c-40,-40 -390,67 -341,-142 19,-84 134,-47 174,-113 51,-81 -77,-172 -31,-263 40,-78 366,316 392,448 12,62 -38,261 -69,309 -13,19 -144,124 -154,121 -104,-39 157,-231 29,-360zm-1390 -3678c58,15 136,-3 191,1 267,19 128,69 146,247 53,538 633,181 843,-14 3,-3 175,-239 250,-217 -15,-3 72,126 80,139 57,109 121,285 181,404 174,346 409,740 568,1150 32,82 78,190 75,244 -2,34 -66,90 -70,153 -13,164 -198,-149 -262,-196 -285,-206 -423,133 -272,400 69,120 248,178 281,238 33,60 -13,129 7,171 29,64 105,119 144,126 65,12 274,-146 351,-106 31,17 2,127 3,121 11,199 -64,95 -189,85 -114,-11 -224,33 -273,87 -89,99 8,315 -51,387 -21,26 -135,84 -209,77 -182,-19 -402,-617 -622,-537 -90,34 -123,127 -121,193 1,60 62,103 50,152 -5,17 -105,105 -126,143 -33,56 -77,112 -64,168 40,170 266,157 302,211 51,73 -66,298 92,357 92,35 193,-112 289,-129 78,-14 300,87 421,89 108,1 167,-66 241,-5 61,51 51,136 78,174 80,112 285,158 405,129 100,-22 373,-237 400,-231 26,7 92,173 104,197 163,304 199,592 282,897 42,157 112,227 73,279 -29,38 -122,-7 -185,14 -123,39 -242,146 -294,235 -31,57 -6,181 -42,211 -19,15 -201,15 -222,12 -95,-15 -231,-122 -261,-195 -25,-66 6,-134 -6,-171 -53,-161 -320,-354 -396,-377 -127,-40 -303,71 -325,163 -16,65 98,266 80,294 -28,42 -292,-23 -304,-20 -191,46 -393,301 -262,499 20,29 71,44 121,57 -111,84 -103,242 -201,350 -13,15 -76,21 -111,53 -18,16 -100,162 -123,214 -85,202 -26,341 -181,51 -191,-358 -435,-728 -570,-1082 -34,-91 -41,-201 -77,-307 -248,-710 -534,-1223 -855,-1891 -75,-156 -518,-777 -434,-908 14,-22 182,-21 194,-24 80,-23 342,-153 391,-188 101,-70 271,-288 249,-411 -18,-98 -167,-188 -197,-266 -42,-112 23,-244 -14,-353 -28,-83 -73,-202 -155,-252 -103,-63 -222,55 -268,-165 -41,-195 173,-400 205,-612 8,-58 7,-185 -17,-250 -20,-53 -46,-82 -74,-101 46,-20 93,-49 144,-54 87,-8 171,104 290,-9 39,-37 1,-155 72,-189 71,-33 135,63 230,88zm-78 -329c-1,0 -6,-14 -6,-14 -7,-5 145,106 119,188 -14,45 -210,-117 -113,-174zm65 -203c118,-168 433,12 600,61 37,11 136,9 148,20 79,77 89,280 79,294 -1,1 -4,3 -9,5 -3,1 -7,3 -12,4 -2,1 -5,2 -8,3 -4,1 -9,3 -13,4 -45,14 -108,32 -112,34l0 0c0,0 -1,1 -1,1 -9,1 -19,1 -29,2 -6,0 -11,1 -17,1 -12,0 -24,-1 -37,-2 -5,0 -11,0 -16,0 -13,-2 -24,-4 -36,-7 -3,-1 -8,-1 -12,-2 -14,-4 -25,-9 -32,-15 -7,-5 -99,-285 -130,-288 -59,-7 -44,131 -8,212 121,269 -167,-220 -168,-220 -75,11 93,484 -67,238 -54,-84 -55,-221 -81,-258 -35,-48 -87,-16 -39,-87zm284 -526c103,-158 246,85 354,170 80,62 224,129 97,217 -118,83 -567,-211 -451,-387zm-119 -536c-27,17 -274,56 -265,-90 3,-55 199,-58 178,-183 -15,-85 -209,-60 -230,-87 -24,-29 -54,-125 0,-192 148,-181 193,111 309,70 110,-40 -11,-194 66,-239 89,-50 278,238 286,289 17,102 -65,141 -200,211 -118,61 -119,204 -144,221zm957 316c57,154 33,137 -115,208 -45,21 -97,108 -146,99 -56,-8 -40,-86 -92,-166 -16,-25 -59,-35 -82,-67 -118,-162 -237,-432 -163,-517 204,-231 507,197 598,443zm-988 -1933c-120,51 -386,-118 -430,-223 -31,-76 -5,-230 22,-339 13,-58 87,-160 56,-182 -49,-36 -118,90 -133,129 -24,66 11,259 -26,289 -74,62 -31,-213 -25,-249 15,-79 26,-75 42,-139 -8,31 24,-139 -1,-157 -137,-93 -94,427 -174,425 -105,-2 56,-502 -21,-511 -104,-11 -88,295 -78,365 24,182 -195,-229 -206,-341 -6,-63 38,-93 54,-111 124,-136 279,-85 389,16 96,89 318,218 383,314 75,107 171,289 172,304 4,78 -86,56 -54,112 42,74 95,-23 126,12 72,80 -42,263 -96,286zm-618 53c-32,-53 -26,-225 -5,-242 64,-52 38,51 129,133 38,35 85,32 145,91 18,18 38,35 55,45 116,70 -244,106 -324,-27zm-100 512c-88,24 -184,-33 -317,-49 -63,-6 -105,22 -135,9 -215,-99 -192,-368 -16,-461 154,-82 298,70 489,162 85,41 302,70 307,105 6,34 -208,201 -328,234zm-464 -1266c31,-15 33,-53 72,-32 7,3 155,177 168,219 39,127 -83,444 -171,198 -7,-17 99,-379 -1,-311 -8,5 -87,230 -88,230 -149,-57 -4,-292 20,-304zm-341 -836c-176,25 137,208 144,318 2,49 -84,125 -112,137 -82,31 -268,-63 -228,-158 28,-67 210,14 190,-120 -10,-58 -255,-120 -97,-252 23,-19 41,-45 87,-39 72,10 259,287 242,308 -80,100 -157,-203 -226,-194zm620 1266c0,1 30,-91 41,-105 60,-90 -46,341 -41,105zm158 -36c15,-16 59,246 37,278 -18,25 -81,19 -104,-40 7,18 46,-218 67,-238zm-737 -1682c14,-14 45,-48 80,-53 18,-2 235,86 224,73 88,103 20,236 -32,240 -39,3 -66,-127 -117,-69 -30,35 19,175 119,189 42,6 12,-35 45,-55 128,-75 255,112 211,201 -10,21 -201,117 -252,96 -29,-14 -167,-289 -205,-342 -64,-89 -173,-175 -73,-280zm-431 -2547c-35,5 -61,-85 -81,-102 -96,-80 -306,-135 -416,-230 -6,-6 -6,-22 -13,-29 73,28 83,-196 60,-61 10,-62 -84,-339 -19,-390 110,-90 344,221 362,305 1,8 -96,295 32,263 -3,1 52,-112 33,-118 47,16 190,344 42,362zm-323 93c-118,6 -427,-50 -527,-93 -118,-49 -200,-154 -33,-263 172,-113 493,165 663,276 77,50 44,73 -103,80zm-731 -972c171,-184 152,200 132,218 -54,45 -238,-106 -132,-218zm-275 -33c-65,11 -144,68 -198,140 15,-19 -41,133 -82,124 -65,-14 -72,-190 -70,-194 16,-29 246,-58 204,-161 -30,-76 -175,-11 -239,-32 53,18 -71,-1 -55,-44 9,-24 334,80 344,-85 8,-136 -234,-161 -144,-282 127,-175 506,490 240,534zm503 0c19,-18 238,-24 280,47 8,11 -11,157 -13,290 1,7 0,13 0,20 0,19 1,37 2,55 1,8 2,17 2,26 2,15 4,28 7,41 2,8 4,16 6,24 3,9 7,17 11,24 2,4 3,9 5,11 -3,-2 -5,-2 -8,-4 -5,-3 -11,-6 -15,-7 -3,-2 -6,-3 -9,-3 -8,-3 -17,-7 -24,-11 -2,0 -4,-1 -6,-3 -6,-4 -13,-10 -19,-20 -56,-91 24,-435 -89,-393 -60,23 -19,89 -21,148 1,-15 -6,161 1,156 -133,89 -134,-380 -110,-401zm-696 -2013c-102,-136 -285,-390 -91,-514 105,-67 301,57 386,244 54,116 154,305 169,375 19,83 -39,146 -37,190 7,110 113,285 37,312 -69,26 -381,-498 -464,-607zm271 758c-13,0 -27,-1 -43,-2 -5,0 -9,0 -13,0 -14,-1 -27,-2 -42,-3 -6,0 -13,-1 -20,-1 -13,-1 -26,-3 -39,-4l-22 -3c-12,-1 -23,-3 -34,-5 -7,-2 -14,-3 -21,-4 -11,-2 -19,-5 -27,-8 -5,-1 -11,-3 -15,-5 -12,-4 -20,-10 -24,-16 -6,-10 18,-277 41,-295 78,-65 -18,305 94,287 50,-8 2,-170 64,-168 6,1 13,5 20,11 3,3 6,8 10,12 4,5 7,9 11,14 5,7 10,15 14,23 3,4 6,8 8,13 7,11 13,22 19,33l1 3c26,49 48,97 60,113 1,0 2,3 3,3 0,0 1,2 1,2 0,0 0,0 0,0 -7,0 -23,0 -43,0 -1,0 -2,0 -3,0zm-369 -90c-69,67 -97,-98 -99,-181 -2,-111 81,-220 -2,-276 -129,-85 -22,252 -68,273 -49,23 -104,-325 -28,-369 0,0 -5,-14 -6,-14 7,0 237,134 253,216 8,36 -66,103 -68,117 -20,96 50,205 18,234zm850 1c-10,38 -127,22 -97,-60 24,-66 108,16 97,60zm631 1174c178,-102 287,337 289,530 3,253 -22,61 -158,-121 -71,-95 -227,-161 -222,-264 0,7 104,-153 91,-145zm400 392c-18,-234 -22,-413 137,-546 135,-113 291,-117 370,128 78,241 -140,627 -337,794 -54,45 -132,82 -138,79 -26,-10 -22,-348 -32,-455zm659 191c-22,12 -107,-115 -109,-90 10,-93 201,42 109,90zm-5 48c-1,14 -4,30 -11,45 -5,13 -13,25 -22,37 -2,4 -4,8 -6,11 -23,30 -53,53 -78,52 -88,-3 -128,-154 -55,-200 68,-43 12,37 97,60 12,4 23,6 32,7 7,1 13,0 18,0 1,0 4,0 5,0 4,0 7,-2 10,-3 1,-1 3,-1 5,-2 1,-2 2,-4 3,-6 1,-1 2,-2 3,-3l0 0c0,0 -1,1 -1,2zm-219 226c-47,16 -104,-43 -81,-103 16,-41 140,83 81,103zm-310 121c-14,-13 72,-67 103,-80 204,-92 -44,134 -103,80zm1110 3093c20,60 14,334 -101,45 -86,-215 -266,-781 -394,-1072 -195,-439 -404,-921 -638,-1344 -62,-113 -266,-436 -191,-504 58,-53 229,311 326,496 198,377 384,833 578,1248 157,336 184,614 315,935 53,131 86,139 105,196zm-2315 -4928c-12,-21 -3,-22 2,-35 55,-146 123,86 156,155 41,84 509,877 291,841 -44,-7 -198,-361 -224,-421 -93,-221 -145,-407 -225,-540zm2743 5187c53,100 -7,473 -27,480 -38,15 -242,-233 -294,-267 -94,-64 -103,-153 -3,-241 102,-89 249,-117 324,28zm219 179c31,-59 21,-193 103,-237 34,-19 219,1 241,152 2,16 -49,86 -39,105 46,95 63,-25 112,18 18,17 -34,440 -76,451 -75,18 -160,-225 -246,-202 -172,45 252,220 170,340 -131,191 -113,-189 -263,-159 -166,33 174,237 179,283 2,11 -103,170 -134,165 -59,-12 -12,-139 -54,-236 -57,-135 -127,-136 -115,-296 3,-33 35,-273 49,-317 7,-23 52,-27 73,-67zm-125 -1054c178,-67 116,251 183,334 45,53 61,-19 121,-2 36,9 41,67 89,81 90,27 241,-56 254,25 15,93 -415,232 -476,214 -162,-46 -367,-578 -171,-652zm419 124c176,-134 146,235 -28,169 -66,-25 9,-154 28,-169zm672 3237c21,-65 85,-197 152,-242 98,-63 276,7 380,229 123,261 103,761 36,1007 -22,77 -151,414 -181,410 -13,-1 -256,-422 -272,-450 -186,-347 -191,-719 -115,-954zm806 211c257,-187 74,459 -18,425 -77,-30 -18,-399 18,-425zm348 815c-20,32 -150,133 -168,128 -69,-19 -106,-322 -209,-236 -64,52 168,281 164,290 -62,164 -283,-174 -258,-265 2,-10 152,-164 207,-198 197,-117 385,92 264,281zm-388 295c1,-7 -203,198 -248,181 -62,-23 15,-43 32,-83 13,-31 40,-212 87,-230 -7,3 140,35 129,132zm1161 3746c-13,-58 -47,-106 -51,-150 -2,-24 33,-70 26,-98 -16,-60 -70,-93 -93,-167 -60,-192 -67,-482 53,-579 187,-153 379,58 454,317 76,258 161,593 137,806 -12,101 -29,308 -84,315 -18,2 -230,-235 -274,-224 -195,50 296,311 272,259 18,39 -55,150 -106,152 -18,1 -14,-32 -67,-73 -22,-17 -60,-27 -69,-39 -9,-11 -3,-67 -18,-78 -35,-28 -64,25 -99,-26 -55,-83 -51,-269 -81,-415zm662 -262c-8,-208 -191,-485 -23,-632 127,-111 301,-13 389,173 141,290 -43,751 -160,957 -44,77 -316,399 -277,193 24,-127 35,-76 59,-217 29,-179 19,-326 12,-474zm-359 -880c1,-8 2,-11 3,-11 0,-1 2,1 3,1 0,1 0,1 1,1 20,-6 213,-11 207,-17 81,62 33,282 -34,275 -48,-5 -11,-49 -38,-87 -26,-34 -156,-88 -142,-162zm387 52c-5,13 104,-67 136,-43 49,34 -153,88 -136,43zm-331 -545c70,-71 151,-23 160,-107 10,-91 -277,-149 -101,-301 95,-81 305,56 348,156 28,65 -30,186 12,220 76,63 168,-183 303,-136 70,25 143,171 96,252 -115,197 -305,1 -363,42 -63,43 42,223 -74,259 -133,39 -113,-230 -241,-187 -64,21 -13,133 -84,159 -184,65 -110,-302 -56,-357zm907 1674c-11,-12 -24,-32 -40,-51 -37,-40 -143,-186 -33,-228 112,-42 258,498 73,279zm36 158c-15,172 -264,-21 -186,-143 -7,12 191,84 186,143zm-229 225c-62,-34 -70,-132 -57,-167 50,-131 198,243 57,167zm-342 204c-19,-13 117,-195 166,-212 266,-97 -60,283 -166,212zm-434 74c-2,3 -229,127 -240,124 -60,-19 -2,-199 23,-218 0,0 238,0 217,94zm110 1407c-37,-186 -97,-344 -169,-531 -39,-102 -45,-211 -86,-309 -30,-70 -150,-199 -123,-274 5,-13 102,-87 137,-79 -2,-1 188,360 223,455 47,131 72,290 108,437 55,225 203,650 72,662 -120,12 -150,-301 -162,-361zm-481 -1535c-12,139 -125,-50 -219,-180 -148,-204 -374,-577 -197,-709 307,-230 432,708 416,889zm-1630 -3675c2,-28 108,-101 95,-94 4,-2 6,-28 23,-28 100,0 384,777 477,947 241,441 455,1074 707,1539 68,124 199,318 -15,198 -187,-105 -66,-226 -152,-418 -46,-101 -145,-97 -192,-156 -125,-157 -195,-536 -308,-764 -86,-174 -227,-418 -341,-645 -83,-163 -299,-536 -294,-579zm-875 -2296c-95,-196 -175,-305 -249,-478 -70,-164 -194,-276 -56,-357 119,-68 147,112 234,329 94,232 488,887 474,1054 -12,134 -180,-12 -231,-87 -51,-76 -96,-306 -172,-461zm262 1704c56,-240 67,309 178,320 73,6 -24,-223 -32,-264 -19,-104 -29,-230 12,-283 9,-11 94,-47 136,-44 221,17 524,545 354,674 -77,58 -85,-2 -120,1 -167,18 -143,61 -243,40 -199,-40 -331,-247 -285,-444zm32 575c41,-7 281,49 275,33 6,15 -340,336 -376,360 -203,130 -490,1 -347,-192 58,-77 332,-181 448,-201zm1183 2713c2,-40 195,-39 155,-157 -39,-112 -191,-33 -301,-90 -157,-81 -264,-344 -187,-419 137,-135 333,443 522,355 20,-9 61,-56 69,-117 2,-6 -36,-109 -9,-135 55,-51 174,26 196,86 37,103 -51,66 -50,161 3,98 129,197 111,245 -24,61 -166,18 -149,15 -82,16 -365,177 -357,56zm624 1160c-7,-12 34,-292 40,-297 0,1 -5,-13 -6,-14 13,3 283,263 247,358 -4,9 -247,8 -281,-47zm-359 282c0,-1 13,-4 14,-6 25,-49 179,-104 246,-111 61,-5 368,71 370,129 4,163 -609,289 -630,-12zm44 -211c-7,32 -93,-7 -121,3 -25,9 -25,58 -52,75 -177,111 -756,-68 -512,-290 75,-69 253,-138 358,-92 4,2 92,109 163,170 43,36 173,96 164,134zm-239 -534c-14,0 -63,-39 -60,-94 3,-70 97,96 60,94zm188 228c49,18 80,-210 80,-209 0,-9 -23,-194 44,-211 29,-7 208,159 224,229 10,42 -68,242 -56,338 1,6 29,54 26,58 -40,37 -123,-44 -126,-49 -80,-124 111,-385 26,-444 -134,-94 -70,368 -101,391 -27,20 -203,-71 -236,-136 -41,-84 28,-403 39,-417 20,-23 79,-35 100,-10 16,21 -99,430 -20,460zm1635 1747c-45,-6 -157,-371 -133,-409 53,-83 306,434 133,409zm-138 -771c114,-110 146,215 298,317 40,28 128,14 126,13 26,36 -52,136 -2,226 34,61 140,61 137,112 -1,16 -53,31 -77,32 -8,0 -12,-1 -12,-4l0 -1c-23,24 -31,67 -47,91 0,1 -1,2 -1,3 -1,1 -2,2 -3,3 -3,3 -6,7 -9,9 -8,6 -19,7 -33,1 -63,-25 -69,-376 -116,-451 -23,-37 -419,-199 -261,-351zm-7434 1406c-18,37 -110,-30 -120,-40 -131,-115 -274,-334 -431,-518 -118,-135 -337,-329 -295,-391 3,-5 96,-48 103,-46 51,14 129,165 162,205 94,112 156,195 267,343 72,94 156,184 205,254 32,47 115,179 109,193zm-83 186c-32,35 -89,-75 -33,-71 62,4 37,66 33,71zm-125 21c-12,-6 -67,-204 -47,-203 41,3 81,223 47,203zm-124 -194c-36,43 81,186 60,221 -20,35 -112,29 -131,-2 0,-2 38,-25 41,-36 19,-61 -65,-260 -97,-246 -38,18 -8,39 13,132 3,12 38,140 36,141 -53,79 -511,-192 -479,-289 -1,4 90,4 65,-41 -31,-56 -50,32 -86,17 -54,-23 8,-108 8,-108 27,-24 124,-41 172,-34 70,12 424,122 444,233 -1,-9 -39,4 -46,12zm38 412c-117,80 -354,222 -493,210 -204,-19 -394,-288 -201,-416 167,-109 280,41 464,89 29,7 111,9 168,12 112,6 241,-19 62,105zm-924 -924c-80,-34 -114,4 -67,-44 74,-74 236,-142 309,-208 30,-27 36,-83 75,-79 35,5 139,183 183,230 86,90 107,107 214,231 -21,-24 92,94 92,107 -1,19 -97,-23 -97,-24 -91,-35 -222,-67 -281,-66 -24,1 -100,35 -133,14 -26,-18 -16,-82 -45,-104 -33,-24 -81,24 -133,13 -37,-7 -78,-53 -117,-70zm-57 451c9,-4 -129,15 -129,-33 0,-44 174,-52 120,-161 -15,-29 -87,-31 -97,-46 -28,-42 31,-134 49,-142 47,-21 145,16 181,59 104,126 -42,291 -124,323zm-168 -545c-92,36 -412,52 -471,-81 -33,-75 27,-109 71,-133 133,-75 144,58 270,97 32,9 176,3 216,0 131,-6 14,79 -86,117zm-692 -637c6,-25 80,-117 142,-152 62,-33 195,-35 245,20 14,14 11,65 31,102 16,30 86,73 85,98 0,30 -72,33 -88,48 -96,87 7,239 -139,220 -120,-15 -298,-249 -276,-336zm778 205c8,16 -33,41 -35,59 -9,79 70,125 33,171 -76,99 -496,-139 -257,-265 49,-26 225,-40 259,35zm75 236c-48,-17 -20,-202 -16,-201 45,3 85,225 16,201zm210 -123c11,104 -218,24 -83,-29 3,-1 78,-5 83,29zm-514 -547c113,-65 326,121 468,228 49,36 147,137 134,171 -9,23 -170,15 -216,0 -34,-11 -86,-53 -134,-72 -51,-20 -120,-31 -135,-41 -137,-89 -195,-242 -117,-286zm-62 -405c-51,-57 -320,-351 -289,-368 41,-23 89,69 115,101 110,129 295,222 351,357 76,184 -140,-47 -177,-90zm-584 -760c-101,-126 -113,-375 -24,-395 57,-12 138,74 182,145 48,79 84,431 53,427 -17,-1 -36,-52 -71,-82 -39,-32 -109,-55 -140,-95zm56 282c-44,-37 10,-117 31,-113 5,0 12,13 15,16 27,31 65,64 64,75 -1,15 -90,38 -110,22zm-38 205c-92,59 -417,19 -285,-98 77,-69 250,4 316,0 96,-5 70,34 -31,98zm-292 -322c93,42 100,-88 55,-120 -22,-14 -192,39 -75,-21 52,-26 216,-12 173,52 -34,51 30,170 9,194 -57,60 -354,-194 -162,-105zm237 -74c1,-1 8,-8 8,-8 20,28 5,193 -6,192 -21,-1 -37,-187 -2,-184zm346 -199c63,-28 25,30 57,66 24,29 89,22 96,46 10,30 -79,179 -120,176 -67,-5 -21,-293 -33,-288zm-3 -270c5,2 -19,114 -24,107 17,29 167,15 197,45 84,83 -133,35 -141,36 -26,1 -48,23 -56,19 -59,-38 -60,-239 24,-207zm63 -25c0,-1 7,8 7,8 87,-41 130,87 62,104 -55,15 -72,-110 -69,-112zm261 434c215,116 -178,419 -238,291 -16,-35 195,-287 175,-279 24,-9 39,-24 63,-12zm257 682c8,-8 20,-3 24,-5 83,-51 305,23 376,120 56,77 61,224 62,305 0,25 -7,89 -12,153 -2,31 -1,150 -26,152 -3,1 -102,-87 -123,-109 -121,-125 -378,-533 -301,-616zm571 397c-8,5 97,55 107,24 18,-62 -199,-128 -111,-163 15,-6 171,37 192,107 11,37 -225,405 -204,262 9,-63 -20,-212 16,-230zm-61 -521c46,97 254,68 304,154 16,27 7,152 -19,160 -18,6 -215,-100 -155,-96 7,1 18,-9 24,-5 222,113 52,-73 -78,-91 122,17 -70,-32 -71,17 0,4 58,67 66,59 -14,16 -84,13 -71,18 -2,0 -105,-153 -105,-154 -4,-71 90,-94 105,-62zm-112 -347c-34,-63 3,-215 76,-210 62,5 -7,134 42,165 112,72 180,-264 301,-217 151,61 -108,199 -108,209 3,37 75,57 118,70 33,10 220,25 72,67 -87,24 -164,-29 -249,43 -9,7 -60,88 -68,87 -15,-1 -164,-174 -184,-214zm414 432c-1,0 -231,-93 -191,-122 54,-40 231,72 191,122zm-266 257c-32,-25 -16,-62 -2,-69 77,-40 340,185 192,106 -45,-24 -191,-37 -190,-37zm144 550c-269,181 123,-276 139,-305 18,-35 0,-123 47,-127 7,-2 27,-2 31,2 127,127 -104,354 -217,430zm-1618 -197c-205,-66 -101,380 -206,377 -169,-4 18,-276 7,-292 -19,-28 -83,9 -109,8 -42,-2 -152,-19 -187,-69 -57,-79 -3,-169 61,-195 109,-45 203,142 282,44 35,-45 -53,-183 -8,-209 102,-58 73,210 83,230 19,39 149,129 77,106zm3875 2784c-34,-104 -79,-170 -110,-278 -24,-88 31,-357 144,-382 126,-27 127,206 162,320 48,162 78,287 19,456 -14,41 -87,163 -104,163 -43,-4 -83,-197 -111,-279zm-214 -1048c-95,-35 -127,-167 -92,-207 20,-24 44,1 69,-3 160,-29 25,-298 153,-304 104,-5 62,155 125,194 112,70 143,-155 267,-173 60,-8 201,96 178,190 -21,91 -183,142 -207,193 -59,134 293,141 249,273 -7,23 -84,47 -87,48 -64,1 -117,-91 -162,-105 -158,-47 -91,116 -135,160 -33,31 -160,22 -185,2 -90,-76 3,-237 -57,-283 -42,-32 -53,39 -116,15zm704 800c20,-60 -227,-113 -105,-154 37,-13 79,6 111,62 60,107 -61,453 -165,557 -75,77 -75,52 -54,4 6,-14 45,-181 61,-195 16,-15 66,18 70,-19 5,-44 -114,-63 -43,-134 20,-20 78,67 99,16 17,-46 -131,-122 -120,-156 13,-41 126,73 146,19zm-1023 -17715c67,-45 192,-73 247,10 24,34 44,107 24,128 3,-3 -142,-58 -132,-62 -142,64 110,118 127,168 18,50 -50,132 -62,132 -71,-1 -102,-212 -184,-177 -94,38 138,274 138,267 -1,208 -279,-54 -306,-140 -29,-93 65,-273 148,-326zm-434 -621c96,-146 254,51 298,161 25,64 41,256 14,341 -13,43 -83,152 -112,137 -28,-15 -82,-298 -132,-409 -46,-104 -125,-143 -68,-230zm7352 15885c1,-4 0,-34 1,-35 249,-228 92,297 -71,188 -4,-3 80,-186 70,-153zm1612 230c-204,-94 -468,224 -638,9 -143,-182 -92,-560 -331,-545 -45,3 -200,63 -239,125 -27,43 0,280 54,391 38,77 105,88 156,190 19,41 119,296 98,338 -32,65 -76,34 -115,52 -125,56 -309,313 -367,303 -21,-3 -255,-355 -254,-371 10,-134 215,-64 318,-143 69,-53 113,-176 34,-275 -29,-35 -130,-13 -148,-56 -5,-13 79,-174 79,-174 65,-221 -132,-353 -302,-245 -68,42 -72,250 -137,234 -67,-16 -67,-146 -111,-210 -66,-96 -140,-158 -243,-152 -98,7 -77,84 -135,44 -72,-49 -218,-503 -213,-512 27,-43 180,-37 250,-60 563,-182 993,-522 942,-995 -25,-229 -281,-275 -339,-368 -19,-31 -15,-195 -53,-271 -78,-159 -286,-298 -165,-446 20,-25 102,-10 114,-17 36,-20 233,-259 239,-280 32,-125 -60,-301 -156,-347 -74,-37 -202,42 -276,3 -51,-27 -72,-129 -107,-160 -155,-139 -528,-146 -529,133 -1,77 68,139 61,215 -11,121 -145,189 -140,305 3,57 84,183 62,217 -6,8 -199,-10 -242,3 -167,51 -257,268 -300,256 -41,-10 -144,-220 -200,-327 -282,-548 -458,-1015 -712,-1588 -78,-178 -226,-370 -214,-476 16,-132 384,-316 470,-384 105,-84 256,-201 309,-278 108,-154 42,-456 -113,-521 -98,-42 -204,48 -151,-106 31,-89 101,-200 35,-310 -35,-58 -161,-110 -187,-108 -63,8 -67,84 -116,52 -57,-37 -72,-217 -102,-266 -65,-107 -257,-220 -351,-241 -62,-15 -199,8 -294,80 -35,25 -153,270 -195,260 -91,-21 -75,-194 -95,-251 -60,-166 -239,-553 -338,-751 -38,-78 -143,-168 -131,-254 4,-25 102,-107 135,-164 151,-265 365,-654 120,-1008 -5,-9 -138,-111 -121,-154 10,-26 165,-73 173,-77 46,-26 132,-74 146,-101 76,-143 -93,-191 -117,-259 -7,-22 31,-127 8,-177 -119,-252 -304,34 -397,4 -70,-23 -3,-60 -65,-144 -92,-126 -294,-72 -362,41 -8,13 -45,113 -37,190 15,137 262,508 203,568 -36,36 -77,-63 -83,-67 -102,-69 -233,13 -295,-41 -80,-68 -64,-181 -88,-273 -136,-530 -357,-1118 -651,-1684 -93,-178 -255,-511 -366,-738 -31,-63 -133,-200 -117,-260 8,-30 134,-108 168,-128 150,-87 608,-304 449,-583 -29,-54 -163,-56 -186,-107 -28,-61 91,-247 72,-379 -23,-179 -195,-341 -348,-313 -202,38 -329,252 -376,360 -52,124 -70,-36 -166,-99 -102,-68 -192,17 -254,-25 -50,-35 -105,-238 -142,-317 -67,-143 -281,-390 -254,-528 12,-66 182,-144 243,-231 88,-124 191,-434 48,-628 -123,-167 -234,-34 -314,-120 -13,-14 -40,-145 -55,-200 -62,-214 -200,-458 -416,-386 -52,17 -98,112 -154,121 -82,13 -161,-105 -236,-102 -68,3 -134,39 -203,91 -25,19 -99,84 -127,143 -43,97 27,208 -19,304 -14,29 -101,70 -117,87 -84,92 -121,313 -110,449 28,365 373,453 608,507 109,25 362,7 472,83 164,115 215,438 306,644 38,86 187,250 54,235 -85,-8 -430,59 -483,9 -23,-23 -25,-126 -36,-158 -68,-203 -164,-409 -345,-383 -150,23 -221,150 -201,247 6,33 114,131 92,167 -42,66 -61,-5 -92,-11 -92,-18 -70,-23 -106,-4 -149,74 4,192 23,284 12,52 -70,102 -63,167 11,110 149,273 194,277 170,18 315,-365 364,-232 15,41 62,13 125,48 40,20 168,115 199,136 121,79 -70,135 -114,207 -53,88 -71,313 -31,396 90,183 301,109 448,111 52,1 183,42 311,34 149,-9 290,-76 342,-50 79,41 289,479 377,647 315,600 585,1285 787,1831 29,82 223,602 185,646 -43,49 -115,-40 -175,-43 -55,-1 -237,92 -255,11 -2,-7 81,-68 88,-74 79,-76 122,-162 49,-317 -22,-45 -100,-74 -129,-133 -35,-70 1,-172 -61,-251 -86,-109 -363,-178 -499,-106 -145,78 -87,266 -141,342 -56,77 -188,81 -213,182 -34,133 109,182 123,274 10,70 -104,145 -88,231 7,36 61,136 113,174 72,53 315,21 397,-5 10,-3 91,-77 123,-72 12,2 135,108 129,133 -6,27 -121,47 -144,65 -55,44 -147,246 -141,306 17,144 198,348 174,425 -5,17 -102,50 -123,72 -116,118 -200,338 -72,535 88,137 508,214 658,191 250,-39 370,-211 539,-345 210,-169 269,-238 376,-13 24,53 59,187 127,324 34,67 167,345 35,192 -81,-92 -72,-135 -214,-129 -171,8 -114,110 -227,153 -69,28 -169,-33 -249,26 -104,77 -99,265 -77,329 22,65 157,143 163,170 12,57 -86,73 -64,167 34,143 191,200 276,189 36,-5 175,-107 222,-82 54,27 30,266 32,262 -52,76 -137,14 -202,92 -114,135 130,350 74,435 -16,24 -107,8 -85,3 -104,24 -223,157 -240,160 -46,7 -226,-128 -257,-146 -54,-30 -177,-140 -256,-145 -24,-2 -57,55 -109,67 -86,19 -185,-48 -261,-4 -12,6 -235,187 -152,397 46,120 213,167 238,223 10,20 10,47 7,76 -87,-40 -242,-45 -338,13 -60,38 -73,114 -119,144 -46,29 -108,20 -160,60 -101,76 -214,398 -99,545 62,81 146,8 199,59 20,19 76,190 73,222 -4,24 -160,232 -164,233 -61,29 -61,-32 -152,-30 -74,2 -146,73 -202,45 -102,-53 -142,-377 -252,-600 -43,-86 -190,-380 -166,-418 11,-20 166,-31 187,-39 534,-187 836,-619 800,-1018 -10,-110 -84,-364 -194,-405 -42,-15 -101,38 -152,4 -22,-14 -40,-143 -128,-196 -74,-44 -141,36 -194,-45 -30,-45 26,-71 30,-117 7,-86 -30,-99 -18,-146 31,-133 240,-293 43,-519 -49,-54 -363,-120 -414,-110 -9,2 -87,78 -118,74 -58,-7 -76,-98 -145,-120 -289,-97 -423,310 -408,471 3,38 45,92 52,146 14,112 -50,182 -11,263 19,38 117,142 163,162 44,19 162,-14 180,17 8,12 -120,261 -115,261 -26,1 -144,-171 -156,-183 -122,-112 -239,-22 -323,-171 -89,-158 -252,-478 -334,-698 -73,-193 -83,-331 -159,-474 -49,-94 -227,-457 -205,-502 15,-34 152,-68 181,-87 251,-170 482,-531 512,-795 6,-62 -8,-254 -84,-354 -80,-104 -149,-23 -199,-128 -17,-36 8,-129 4,-208 -13,-221 -68,-383 -228,-509 -172,-138 -102,-90 -5,-84 154,11 303,-134 282,-272 -16,-100 -123,-121 -177,-190 -84,-105 -92,-269 -197,-266 -115,2 -153,184 -217,190 -11,1 -76,-60 -82,-64 -188,-121 -348,227 -257,432 59,132 204,243 265,268 142,56 75,45 19,180 -12,27 -1,25 -16,76 -47,161 -50,-118 -128,-231 -172,-252 -507,-24 -549,178 -28,127 63,396 -93,96 -175,-341 -341,-609 -503,-944 -39,-80 -174,-375 -159,-404 22,-48 159,-71 195,-94 128,-81 217,-185 254,-294 14,-40 58,-177 -29,-312 -54,-84 -157,-58 -198,-128 -35,-59 4,-199 -37,-292 -100,-223 -338,-356 -565,-175 -36,29 -120,270 -123,281 -15,77 32,239 -63,83 -183,-300 -599,-647 -845,-437 -25,21 -104,128 -94,234 15,152 239,413 254,531 12,90 -123,210 -46,331 46,75 343,88 363,186 10,48 -123,102 -114,192 18,183 228,271 370,235 106,-27 265,-230 364,-173 20,11 51,117 93,195 317,587 667,1175 871,1712 10,22 34,137 33,138 -75,121 -342,-185 -495,-244 -83,-32 -343,54 -394,1 -58,-61 18,-195 4,-277 -36,-211 -289,-319 -432,-256 -56,24 -80,93 -133,115 -99,39 -139,-6 -195,24 -110,59 -224,271 -166,406 32,75 202,123 212,156 22,70 -123,182 -88,283 36,100 197,208 337,130 42,-23 75,-189 94,-199 -20,11 223,26 242,38 60,40 74,152 141,224 82,88 204,85 178,155 -19,50 -131,37 -182,88 -77,76 -93,304 -15,436 50,82 167,147 240,177 261,108 595,61 866,-20 79,-24 200,-94 265,-58 29,16 113,154 168,245 156,259 213,453 328,719 145,336 359,660 421,914 26,113 -12,129 22,299 17,86 95,304 85,320 -19,27 -203,-58 -180,-52 -133,-38 -324,-64 -442,-28 -117,35 -331,222 -343,216 -32,-16 7,-99 -19,-146 -33,-61 -65,26 -88,-78 -18,-77 51,-123 38,-173 -45,-158 -193,-229 -324,-171 -129,58 -103,198 -204,253 -19,10 -95,2 -119,5 -248,34 -349,294 -271,473 23,51 150,107 163,197 5,29 -70,87 -71,137 -6,280 363,259 573,155 106,-53 172,-181 272,-182 84,-2 71,72 137,106 39,20 204,25 221,66 10,24 -85,159 -87,179 -18,172 95,413 214,481 154,88 540,50 770,-77 40,-22 51,-108 148,-122 79,-11 111,91 241,73 157,-22 177,-132 264,-92 -9,-5 191,392 193,474 2,53 -71,79 -99,150 -40,104 30,141 -45,194 -83,59 -172,-34 -256,2 -206,91 -290,357 -176,566 8,14 164,141 150,168 -45,80 -187,30 -210,31 -117,7 -211,23 -277,65 -258,165 -225,-121 -375,-352 -95,-146 -276,-309 -398,-257 -91,39 -118,153 -107,206 19,90 195,206 176,259 -9,27 -240,-3 -272,79 -20,54 96,317 113,341 62,92 286,176 392,138 72,-26 168,-207 203,-183 9,6 5,265 23,298 101,177 398,188 586,183 166,-3 418,-184 521,-95 22,19 20,119 33,139 16,28 164,152 225,184 109,57 370,-28 507,-123 14,-9 139,-231 184,-226 70,9 226,405 350,622 485,857 905,1786 1291,2696 70,164 166,374 -18,249 -156,-106 -117,-288 -200,-419 -101,-156 -413,-247 -526,-58 -39,66 38,232 9,271 -57,77 -99,-24 -208,31 -219,112 -94,455 89,438 69,-7 264,-186 182,-52 -32,50 -57,150 -25,201 134,200 386,-213 481,-145 13,9 25,264 36,291 22,54 112,116 95,161 -3,8 -253,-44 -228,-45 -419,29 -392,411 -364,603 7,46 57,155 31,209 -57,121 -208,-65 -247,-122 -66,-99 -82,-253 -195,-336 -130,-97 -438,65 -406,263 11,65 111,187 93,231 6,-13 -155,53 -161,59 -42,46 -73,223 -23,310 -106,-123 -203,-246 -274,-369 -51,-87 -184,-226 -173,-268 13,-45 179,-121 246,-196 126,-142 300,-547 145,-714 -109,-118 -157,1 -220,-39 -40,-26 -14,-55 -45,-119 -15,-32 -84,-109 -84,-115 -1,-57 73,-58 77,-110 7,-84 68,15 129,34 106,31 276,-70 184,-202 -18,-28 -203,-111 -205,-139 -2,-38 147,-115 174,-165 67,-126 -86,-357 -262,-320 5,-1 -107,50 -111,54 -7,5 -32,87 -68,87 -38,1 -95,-232 -209,-193 -147,52 -90,255 -130,299 -29,32 -76,-7 -126,37 -86,77 -11,300 128,349 9,2 68,-5 70,-3 33,37 -21,87 9,178 9,27 48,60 48,73 6,44 -59,266 -98,285 -141,70 -143,-212 -149,-273 -4,-49 -18,-158 -40,-180 -37,-38 -94,-11 -113,-31 -61,-65 12,-153 -69,-214 -141,-105 -229,127 -209,208 2,4 66,85 62,105 -2,15 -78,74 -90,103 2,6 1,58 -15,59 -69,5 -214,-259 -253,-312 -91,-122 -240,-275 -231,-317 5,-27 184,-48 197,-55 102,-60 222,-207 259,-282 34,-64 42,-174 17,-229 -8,-20 -75,-60 -77,-91 -4,-52 123,-172 141,-236 50,-189 -150,-368 -322,-355 -100,8 -122,79 -202,-69 -31,-58 -52,-59 -39,-96 26,-74 196,-98 214,-184 22,-102 -104,-154 -175,-136 -78,20 -138,94 -107,-8 88,-301 -329,-199 -291,79 11,83 139,204 125,294 -13,73 -185,238 -216,315 -69,168 26,292 27,465 0,2 -8,37 -11,37 -32,-2 -266,-337 -345,-434 4,5 -155,-160 -155,-197 0,-34 85,-60 106,-76 190,-141 376,-343 208,-524 -22,-25 -75,-28 -88,-53 -54,-99 88,-252 -62,-405 -25,-24 -128,-41 -133,-87 -6,-66 239,-37 275,-64 91,-68 56,-207 -63,-190 -98,14 10,-54 22,-91 8,-23 -15,-208 -108,-208 -28,0 -120,49 -135,59 -25,17 -63,78 -91,78 -40,2 -20,-52 -71,-82 -148,-85 -254,212 -200,316 29,56 177,161 169,213 -9,53 -61,19 -104,46 -29,19 -65,67 -82,71 -49,13 -63,-45 -135,-56 -65,-10 -214,43 -277,95 -10,9 -22,59 -34,59 -18,0 -272,-216 -274,-251 -2,-22 177,-96 176,-95 115,-96 188,-341 -16,-402 -20,-6 -48,12 -62,-5 -46,-52 17,-294 -49,-373 -55,-66 -190,-65 -251,-41 -54,20 -70,84 -114,83 -38,0 -67,-65 -118,-85 -41,-18 -90,-12 -114,-2 -116,49 -102,141 -88,248 5,42 32,156 26,164 -33,42 -169,-33 -240,20 -53,40 -91,142 -76,195 20,73 97,62 113,132 9,36 -46,68 -54,104 -52,254 345,245 484,129 18,-16 55,-80 75,-80 61,0 260,276 336,356 66,71 201,177 199,215 -2,50 -81,-19 -157,35 -71,52 -18,94 -70,118 -39,19 -83,-42 -143,-49 -52,-6 -154,12 -187,32 -72,45 -118,133 -195,24 -38,-55 24,-158 -28,-233 -69,-99 -239,-93 -235,59 1,68 31,85 -51,58 -40,-13 -127,-34 -168,-12 -195,101 -112,368 63,390 110,14 70,-6 54,97 -19,124 164,308 284,113 20,-31 -25,-371 112,-254 31,27 38,132 57,166 81,148 202,161 221,225 23,73 -101,124 -68,203 31,76 161,132 212,147 61,16 302,22 362,4 119,-37 50,2 17,85 -19,46 -38,93 -33,129 4,27 56,59 54,96 -1,35 -114,89 -58,165 44,62 176,57 220,40 22,-9 133,-139 172,-134 48,6 18,62 54,112 49,69 104,55 107,109 1,14 -148,64 -176,94 -175,190 85,522 347,504 212,-15 388,-177 594,-311 0,0 163,-112 192,-109 39,5 81,90 121,141 117,146 308,372 467,558 45,54 144,125 141,180 -1,0 -141,163 -159,165 -51,6 -103,-91 -147,-103 -48,-13 -164,14 -186,117 -12,61 -76,-29 -135,-41 -139,-26 -217,128 -165,257 7,20 44,27 57,50 31,57 3,158 31,204 82,128 271,171 362,104 20,-15 62,-135 102,-132 19,2 46,96 39,111 -19,37 -87,24 -129,67 -91,99 -15,280 139,312 119,24 476,-37 623,-93 167,-62 204,-179 356,-20 166,175 348,469 506,655 57,67 151,175 198,229 102,119 263,230 380,391 3,6 211,270 208,308 0,12 -163,74 -211,139 -34,47 -40,135 -21,191 3,10 31,74 33,72 -37,76 -144,-14 -151,-43 -17,-66 153,-216 31,-313 -44,-34 -114,-10 -147,12 -48,32 -70,113 -101,116 -28,2 -84,-113 -122,-125 -101,-31 -250,169 -241,236 5,36 63,57 71,83 3,12 -31,71 -29,83 25,217 295,94 398,229 28,37 17,93 51,143 35,50 115,107 153,127 46,24 153,13 175,36 34,37 -25,84 18,155 68,113 212,147 299,130 73,-14 234,-79 310,-138 78,-60 152,-193 192,-194 45,-1 51,57 79,91 53,66 189,214 254,296 10,11 125,130 127,163 1,30 -145,20 -188,48 -40,25 -81,71 -100,101 -33,49 3,80 -40,120 -14,12 -170,58 -181,56 -121,-25 -308,-413 -460,-235 -62,72 61,179 45,219 -24,59 -106,-14 -157,35 -65,63 19,172 71,182 45,9 61,-22 87,-32 -105,42 61,-41 79,-25 86,73 -210,120 -234,145 -74,79 13,204 116,201 32,-1 132,-39 166,-58 50,-24 131,-102 161,-95 56,13 163,166 180,175 99,58 234,48 279,90 42,41 24,129 55,182 148,253 433,288 630,231 52,-15 149,-46 183,-71 4,-2 77,-157 150,-158 63,-1 259,322 296,376 145,209 324,433 482,660 130,187 225,351 377,521 193,216 410,471 556,712 28,46 86,129 118,170 328,423 707,955 1010,1339 73,92 267,261 78,191 -267,-100 -556,-505 -799,-746 -104,-102 -278,-255 -441,-394 -101,-87 -326,-245 -387,-183 -42,42 58,203 125,294 298,409 649,785 988,1098 146,133 255,269 371,313 96,37 280,41 359,34 13,-1 93,-40 125,-21 35,22 49,83 75,121 130,185 279,402 431,621 -71,-48 -134,-107 -223,-177 -177,-143 -247,-4 -94,234 83,128 385,470 503,583 80,76 178,129 288,171 -26,-5 -49,-11 -55,-13 -380,-142 -609,-547 -1040,-825 -201,-129 -394,-176 -585,-213 -36,-6 -149,-11 -156,19 -11,50 112,106 152,143 268,246 571,717 873,897 240,143 436,240 642,263 80,10 232,-8 280,-25 43,-16 78,-84 127,-68 36,12 153,179 192,223 197,216 461,481 643,679 101,110 204,179 282,244 179,152 339,368 538,542 221,193 403,372 614,546 178,146 361,274 532,417 2,2 5,5 8,7 0,4 1,7 2,11 53,251 111,417 150,644 58,338 120,681 177,1014 42,249 15,503 150,644 259,269 485,-123 453,-342 -22,-158 -58,-319 -78,-485 -21,-168 -52,-336 -85,-500 -14,-69 -28,-139 -42,-209 270,360 542,714 815,1056 104,131 316,417 388,416 34,-1 170,-112 189,-143 110,-171 -55,-337 -178,-515 -146,-212 -339,-436 -461,-604 -35,-49 -69,-99 -103,-148 0,-1 0,-2 0,-3 13,-117 -100,-230 -229,-331 -177,-265 -347,-527 -520,-758 -39,-54 -132,-125 -176,-190 -13,-19 -26,-38 -40,-58 -127,-563 -215,-1208 -342,-1616 -91,-293 -199,-534 -270,-834 -43,-185 -62,-415 -123,-621 -24,-86 -61,-198 -92,-323 -22,-87 -105,-273 -99,-336 2,-46 94,-146 121,-194 173,-304 334,-659 286,-1064 -25,-208 -114,-442 -171,-653 -137,-496 -401,-1189 -496,-1685 12,67 -4,-176 -64,-180 -134,-8 -109,226 -118,278 -39,256 -64,405 -28,708 27,250 130,510 150,764 5,54 -54,434 -46,437 -29,-11 -174,-393 -206,-497 -77,-250 -173,-684 -286,-947 -58,-135 -182,-339 -166,-446 12,-74 125,-135 172,-198 48,-65 128,-197 168,-284 218,-481 314,-1050 287,-1603 -9,-175 -73,-374 -90,-549 -10,-85 24,-181 10,-247 -42,-203 -170,-509 -285,-480 -157,40 -62,292 -59,408 2,93 -11,230 -15,354 -6,145 15,281 12,376 -6,219 -91,317 -170,510 -68,168 -107,377 -162,489 -33,67 -136,211 -150,206 -59,-18 -202,-369 -211,-391 -326,-834 -670,-1599 -965,-2463 -154,-446 -349,-860 -483,-1345 -41,-152 -166,-636 -120,-692 67,-80 299,-83 375,-133 54,-37 203,-185 280,-265 130,-134 213,-503 114,-675 -40,-68 -154,-74 -173,-113 -33,-71 65,-256 57,-338 -5,-42 -65,-152 -49,-186 16,-34 71,-5 121,-38 69,-42 71,-171 108,-186 33,-14 147,50 189,36 306,-103 232,-518 40,-608z"></path> <path class="fil0" d="M10708 13315c1,0 3,1 7,1 -3,0 -4,-1 -6,-3 0,0 -1,0 -1,0l0 0c-1,1 -1,1 0,2z"></path> <path class="fil0" d="M12890 21990c-1,3 17,5 41,7 19,-9 36,-15 41,-15 -59,2 -81,5 -82,8z"></path> <path class="fil0" d="M2631 15604c30,-76 -166,-126 -217,-86 -128,100 189,154 217,86z"></path> <path class="fil0" d="M1995 16381c-30,12 -53,116 7,108 36,-5 67,-139 -7,-108z"></path> <path class="fil0" d="M2123 16328c-76,-5 -8,240 28,233 51,-8 27,-229 -28,-233z"></path> <path class="fil0" d="M2908 17257c-57,11 -1,171 43,150 39,-19 -7,-156 -43,-150z"></path> <path class="fil0" d="M3096 17541c22,-5 -4,-247 -44,-250 -73,-5 -11,261 44,250z"></path> <path class="fil0" d="M4287 16543c24,-62 -108,-123 -139,-110 -111,45 101,206 139,110z"></path> <path class="fil0" d="M2753 17893c84,-16 12,-207 -38,-211 -109,-8 -28,224 38,211z"></path> <path class="fil0" d="M5421 17660c37,-84 -128,-112 -179,-90 -49,21 -94,116 -19,160 25,14 181,-32 198,-70z"></path> <path class="fil0" d="M5357 18317c-6,-54 -100,-38 -114,-31 -153,74 125,160 114,31z"></path> <path class="fil0" d="M6762 20864c-56,-4 -97,144 -51,159 30,8 129,-153 51,-159z"></path> <path class="fil0" d="M6710 21669c-34,18 -98,138 9,179 148,55 180,-283 -9,-179z"></path> <path class="fil0" d="M6650 22266c54,-11 21,-153 -20,-155 -47,-5 -23,163 20,155z"></path> <path class="fil0" d="M7186 23138c-112,39 -14,213 58,151 23,-21 35,-185 -58,-151z"></path> <path class="fil0" d="M7562 22842c-62,21 -95,81 -71,119 69,104 273,-185 71,-119z"></path> <path class="fil0" d="M8104 22489c-90,13 27,124 51,43 11,-37 -24,-45 -51,-43z"></path> <path class="fil0" d="M8120 22791c41,-5 85,-108 33,-112 -83,-9 -82,119 -33,112z"></path> <path class="fil0" d="M8155 22948c44,14 142,-166 82,-171 -56,-4 -122,158 -82,171z"></path> <path class="fil0" d="M7775 23505c-60,-5 -73,202 -7,192 40,-6 50,-188 7,-192z"></path> <path class="fil0" d="M9090 23218c31,-18 -29,-140 -82,-130 -39,8 39,153 82,130z"></path> <path class="fil0" d="M9490 24781c22,-11 -65,72 10,78 41,2 65,-115 -10,-78z"></path> <path class="fil0" d="M9673 25010c-72,9 -17,88 17,70 35,-17 22,-75 -17,-70z"></path> <path class="fil0" d="M10441 27016c-5,-32 -40,-27 -60,-20 -85,31 73,109 60,20z"></path> <path class="fil0" d="M10514 27168c-97,-7 38,117 44,34 0,-16 -22,-33 -44,-34z"></path> <path class="fil0" d="M10665 27310c-56,12 -20,83 10,78 34,-5 36,-88 -10,-78z"></path> <path class="fil0" d="M11762 29133c-58,-64 -229,-225 -293,-191 -83,42 103,103 179,175 157,146 271,299 454,411 70,42 305,176 329,148 25,-31 -249,-180 -300,-215 -144,-100 -270,-221 -369,-328z"></path> <path class="fil0" d="M12886 28423c-11,2 -47,48 -5,61 38,12 75,-76 5,-61z"></path> <path class="fil0" d="M13877 30539c-121,-10 58,140 36,25 -4,-20 -29,-25 -36,-25z"></path> <path class="fil0" d="M14237 30873c-129,20 87,102 38,11 -10,-18 -26,-13 -38,-11z"></path> <path class="fil0" d="M565 4212c33,-78 146,-221 24,-165 -76,34 -164,314 -96,338 53,18 37,-90 72,-173z"></path> <path class="fil0" d="M649 4172c-35,26 -142,264 -67,291 63,22 43,-94 64,-152 33,-88 112,-219 3,-139z"></path> <path class="fil0" d="M771 4320c-43,13 -83,174 -37,173 68,-2 78,-186 37,-173z"></path> <path class="fil0" d="M1697 7723c72,3 29,-85 37,-138 15,-86 111,-352 -10,-270 -53,35 -89,404 -27,408z"></path> <path class="fil0" d="M3025 7018c123,-68 -66,-270 -157,-148 -59,79 111,173 157,148z"></path> <path class="fil0" d="M3700 7244c5,-56 -150,-134 -172,-72 -27,77 165,141 172,72z"></path> <path class="fil0" d="M2408 11176c-23,63 166,222 191,149 14,-40 -160,-239 -191,-149z"></path> <path class="fil0" d="M4150 10514c33,-95 -202,-152 -242,-39 -52,149 227,82 242,39z"></path> <path class="fil0" d="M3683 11510c44,-6 16,67 62,22 16,-16 54,-158 -31,-174 -46,-8 -34,109 -51,110 -114,5 -5,-265 -114,-203 -53,31 -38,251 71,292 79,30 24,-42 63,-47z"></path> <path class="fil0" d="M3895 11266c-9,3 -19,9 -28,19 -95,99 159,82 83,-6 -9,-5 -18,-10 -27,-15 -8,-1 -16,-1 -24,1 -1,0 -3,1 -4,1z"></path> <path class="fil0" d="M3313 12099c-60,118 219,227 241,108 15,-84 -207,-174 -241,-108z"></path> <path class="fil0" d="M4675 11824c46,-66 -157,-246 -184,-169 -22,63 166,195 184,169z"></path> <path class="fil0" d="M5271 13033c-15,-79 -103,-25 -138,-2 -31,18 -181,230 -74,241 -24,-3 215,-221 212,-239z"></path> <path class="fil0" d="M6086 12728c34,-32 -35,-172 -81,-98 -31,49 35,142 81,98z"></path> <path class="fil0" d="M6158 13019c18,-53 -176,-258 -206,-175 -27,78 191,219 206,175z"></path> <path class="fil0" d="M6175 13235c26,-74 -244,-223 -274,-178 -48,74 250,243 274,178z"></path> <path class="fil0" d="M6117 13401c22,-62 -248,-245 -261,-151 -11,87 239,211 261,151z"></path> <path class="fil0" d="M6941 19100c-49,44 -88,213 -24,235 156,55 240,-425 24,-235z"></path> <path class="fil0" d="M8408 18432c-121,187 374,192 249,-16 -40,-66 -212,-44 -249,16z"></path> <path class="fil0" d="M9574 19470c112,-39 -12,-365 -106,-258 -41,47 14,291 106,258z"></path> <path class="fil0" d="M8699 20044c21,-58 -210,-327 -246,-226 -30,86 230,269 246,226z"></path> <path class="fil0" d="M12491 24305c-27,-42 -51,-17 -69,0 -96,91 142,115 69,0z"></path> <path class="fil0" d="M12555 24618c-21,61 66,100 96,57 29,-42 -64,-147 -96,-57z"></path> <path class="fil0" d="M11318 25296c-23,25 -29,65 -29,84 -1,27 10,340 29,346 69,25 141,-575 0,-430z"></path> <path class="fil0" d="M11625 25974c-16,25 -58,61 5,83 77,26 49,-170 -5,-83z"></path> <path class="fil0" d="M11892 26172c7,-63 -74,-42 -83,-29 -59,83 76,85 83,29z"></path> <path class="fil0" d="M13355 29335c-28,35 -18,191 59,194 79,3 16,-289 -59,-194z"></path> <path class="fil0" d="M13560 29476c-18,31 -11,84 26,91 123,20 36,-195 -26,-91z"></path> <path class="fil0" d="M13960 29594c8,-70 -62,-58 -82,-29 -55,77 77,73 82,29z"></path> </g> </g> </g> <polygon class="fil1" points="8184,4 0,4 0,24303 8184,24303 "></polygon> </g> </svg> 