<?xml version="1.0" encoding="UTF-8"?> <!-- Creator: CorelDRAW X8 --> <svg xmlns="http://www.w3.org/2000/svg" xmlns:xlink="http://www.w3.org/1999/xlink" xml:space="preserve" width="57.5026mm" height="101.6mm" style="shape-rendering:geometricPrecision; text-rendering:geometricPrecision; image-rendering:optimizeQuality; fill-rule:evenodd; clip-rule:evenodd" viewBox="0 0 5750 10160"> <defs> <style type="text/css"> <![CDATA[ .fil0 {fill:black;fill-rule:nonzero} ]]> </style> </defs> <g id="Слой_x0020_1"> <metadata id="CorelCorpID_0Corel-Layer"></metadata> <g id="_2161914306048"> <path class="fil0" d="M3396 6440c3,150 -63,276 -153,431 -123,209 -267,406 -429,587 -104,118 -224,233 -376,274 -208,56 -443,-70 -633,-141 -212,-79 -429,-172 -589,-337 -202,-209 -303,-546 -210,-826 150,-458 881,-565 968,-5 8,51 19,101 31,151 19,83 126,147 220,95 166,-91 128,-312 215,-460 106,-180 278,-316 499,-298 204,17 347,147 417,334 26,71 38,135 40,195zm-309 -831c-301,-71 -512,99 -741,284 -36,30 -68,66 -99,104 -50,61 -146,44 -224,-30 -306,-289 -915,-411 -1181,9 -92,145 -120,322 -124,494 -8,311 65,634 260,876 183,224 449,354 714,454 224,84 494,52 581,332 32,102 82,135 155,67 326,-306 674,-625 951,-979 203,-259 337,-587 300,-913 -35,-311 -245,-594 -547,-686 -15,-5 -30,-9 -45,-12z"></path> <path class="fil0" d="M4251 5514c-11,-161 -23,-317 93,-456 96,-115 301,-164 417,-52 207,197 44,586 -46,800 -58,140 -127,275 -196,411 -45,87 -135,313 -246,135 -41,-67 -11,-218 -12,-296 -1,-135 -3,-271 -3,-406 0,-46 -3,-91 -7,-136zm1102 3c-41,292 -100,594 -196,846 -135,354 -280,641 -524,929 -50,59 -461,565 -551,391 -11,-23 -6,-49 0,-74 70,-296 99,-612 312,-847 171,-188 309,-404 406,-639 143,-344 440,-878 252,-1253 -102,-205 -320,-284 -530,-195 -148,62 -312,239 -459,73 -67,-75 -58,-192 -25,-288 136,-404 597,-622 971,-402 373,218 432,641 393,1036 -14,134 -29,277 -49,423zm-1399 1170c-74,796 -276,1751 -1004,2208 -263,165 -517,178 -819,187 -530,15 -1120,-57 -1408,-566 -234,-415 -266,-902 -343,-1363 -85,-516 -96,-1042 -75,-1563 6,-133 16,-270 77,-388 152,-293 411,-138 651,-81 301,71 611,89 919,86 429,-4 857,-48 1278,-131 142,-28 373,-136 515,-82 151,58 196,269 215,408 57,427 34,858 -6,1285zm-728 3010c-100,119 -269,165 -425,193 -323,57 -654,73 -981,49 -215,-16 -642,-8 -757,-240 -45,-92 -15,-215 67,-276 114,-84 201,-8 313,12 150,27 326,8 478,10 282,3 566,-1 845,-42 151,-23 316,-232 467,-83 89,88 86,242 16,346 -7,10 -15,21 -23,31zm-2520 -4923c-63,-27 -106,-61 -98,-103 34,-183 649,-186 780,-170 222,27 414,86 628,-24 71,-36 195,-33 266,5 289,155 472,24 756,-7 122,-14 392,-10 483,94 136,155 -112,242 -236,263 -472,80 -936,148 -1417,129 -267,-10 -534,-43 -795,-98 -55,-12 -247,-38 -367,-89zm-137 -576c282,-273 785,-338 1160,-380 639,-73 1386,-11 1943,339 216,135 96,325 -126,217 -236,-115 -443,-240 -709,-132 -159,64 -305,71 -465,16 -154,-52 -307,-63 -463,29 -146,87 -276,13 -418,-21 -158,-38 -336,-25 -492,12 -134,32 -365,221 -493,183 -145,-44 8,-210 63,-263zm4911 -34c-156,-273 -530,-534 -860,-464 -344,73 -587,429 -971,215 -807,-448 -1827,-329 -2261,-264 -367,55 -774,144 -1056,403 -229,210 -258,524 -261,817 -2,329 -56,646 -65,976 -16,577 -10,1177 74,1750 54,370 166,731 334,1066 85,171 185,335 298,490 120,163 158,303 179,508 47,458 50,469 524,489 266,11 533,13 800,12 255,0 513,16 764,-20 316,-46 507,-206 466,-531 -15,-125 24,-256 18,-383 -9,-213 85,-379 179,-562 189,-365 512,-594 791,-870 151,-150 309,-298 434,-468 461,-627 725,-1121 871,-2070 56,-368 -70,-763 -258,-1094z"></path> <path class="fil0" d="M2098 2804c11,-69 79,-133 124,-205 58,-90 -21,-198 -91,-215 -40,-10 -83,-20 -127,-29 -166,-34 -343,-39 -499,-100 -446,-173 -521,-576 -180,-909 91,-89 200,-161 297,-244 208,-177 207,-278 18,-469 -87,-89 -180,-188 -224,-300 -87,-225 66,-380 301,-329 434,96 712,650 527,1057 -31,67 -74,129 -112,193 -145,239 -54,467 214,531 51,12 106,9 158,19 242,46 422,212 440,403 19,199 -115,402 -324,509 -88,45 -174,96 -270,153 -92,55 -270,41 -252,-65z"></path> </g> </g> </svg> 