<svg width="1084" height="280" viewBox="0 0 1084 280" fill="none" xmlns="http://www.w3.org/2000/svg">
<g filter="url(#filter0_d_83_3)">
<path d="M21.5921 225.085C22.9527 227.73 24.4645 230.263 26.0897 232.644C41.1323 254.641 63.1669 257.664 83.463 259.403C112.339 261.897 141.252 264.052 170.165 265.904C269.831 272.253 644.269 272.102 744.011 270.779C840.427 269.494 940.32 273.349 1035.79 252.524C1053.21 248.707 1072 235.252 1077.71 208.455C1080.77 194.055 1079.48 178.294 1078.2 163.214C1074.27 118.389 1078.42 22.2753 1042.71 10.7477C996.748 -4.10584 943.759 2.84849 896.931 1.29888C804.861 -1.80033 438.134 2.24377 346.102 5.72093C255.847 9.12251 165.328 6.28786 74.8834 4.73825C55.948 4.3981 35.0472 5.22959 21.0252 25.6768C4.50863 49.828 4.24406 90.7981 5.26454 126.666C6.20942 161.211 8.17477 199.233 21.5921 225.085Z" fill="#D1C1DF"/>
</g>
<defs>
<filter id="filter0_d_83_3" x="0.924683" y="0.193359" width="1082.67" height="279.321" filterUnits="userSpaceOnUse" color-interpolation-filters="sRGB">
<feFlood flood-opacity="0" result="BackgroundImageFix"/>
<feColorMatrix in="SourceAlpha" type="matrix" values="0 0 0 0 0 0 0 0 0 0 0 0 0 0 0 0 0 0 127 0" result="hardAlpha"/>
<feOffset dy="4"/>
<feGaussianBlur stdDeviation="2"/>
<feComposite in2="hardAlpha" operator="out"/>
<feColorMatrix type="matrix" values="0 0 0 0 0 0 0 0 0 0 0 0 0 0 0 0 0 0 0.25 0"/>
<feBlend mode="normal" in2="BackgroundImageFix" result="effect1_dropShadow_83_3"/>
<feBlend mode="normal" in="SourceGraphic" in2="effect1_dropShadow_83_3" result="shape"/>
</filter>
</defs>
</svg>
