<?xml version="1.0" encoding="UTF-8"?> <!-- Creator: CorelDRAW X8 --> <svg xmlns="http://www.w3.org/2000/svg" xmlns:xlink="http://www.w3.org/1999/xlink" xml:space="preserve" width="112.536mm" height="36.6888mm" style="shape-rendering:geometricPrecision; text-rendering:geometricPrecision; image-rendering:optimizeQuality; fill-rule:evenodd; clip-rule:evenodd" viewBox="0 0 11254 3669"> <defs> <style type="text/css"> <![CDATA[ .fil0 {fill:black;fill-rule:nonzero} ]]> </style> </defs> <g id="Слой_x0020_1"> <metadata id="CorelCorpID_0Corel-Layer"></metadata> <g id="_2342356370560"> <path class="fil0" d="M1391 13c-42,-21 -1083,-21 -1288,-21 -53,21 -95,68 -106,120 0,85 11,179 69,190 37,10 242,10 478,5 0,337 -10,2613 -16,2992 0,73 -5,147 -5,210 0,95 16,163 168,163 142,0 200,-100 200,-116l0 -336c0,-352 16,-1783 16,-2918l494 -11c32,0 74,-126 74,-157 0,-37 -53,-106 -84,-121zm1461 1309c-15,-352 -220,-763 -541,-763 -573,0 -689,694 -689,1062 0,158 -5,363 -5,579 0,326 31,673 79,909 100,489 326,568 578,568 468,0 594,-699 594,-1682 0,-211 -16,-437 -16,-673zm-604 2119c-316,0 -331,-920 -331,-1304 0,-1131 152,-1325 341,-1325 153,0 242,210 258,342 31,194 42,588 42,909 0,668 -53,1378 -310,1378zm941 -2535l-21 2698c0,58 47,73 126,73 126,0 174,-152 174,-173 0,0 -6,-132 -6,-305 0,-263 6,-642 27,-663 5,-5 199,-5 299,-5 221,0 400,-110 495,-384 42,-136 73,-531 73,-846 0,-137 0,-347 -73,-463 -116,-189 -305,-231 -532,-231 -199,0 -510,21 -562,273l0 26zm300 16c5,-47 121,-79 199,-79 321,0 379,163 379,495l-5 473c0,263 -132,468 -332,468l-252 0c-5,-410 -5,-742 11,-1357zm2182 -299c-37,-16 -905,-16 -1073,-16 -47,16 -79,68 -89,110 0,74 10,153 57,158 32,10 200,10 400,5 0,321 -10,2172 -16,2482 0,63 -5,121 -5,173 0,79 16,137 142,137 116,0 168,-84 168,-95l0 -284c0,-289 11,-1472 11,-2413l410 -10c26,0 63,-106 63,-132 0,-31 -42,-100 -68,-115zm909 1277l-321 0 16 -815c0,-16 0,-326 6,-357 -16,-53 -111,-111 -163,-111 -37,0 -121,32 -132,90l-21 2781c0,58 21,168 100,168l552 0c521,-5 557,-426 557,-1036 0,-136 -21,-383 -136,-515 -95,-105 -232,-205 -458,-205zm994 -1283c-37,0 -121,32 -131,90l-22 2781c0,58 22,168 100,168 127,0 174,-142 174,-163 0,0 10,-136 10,-305 0,-841 11,-1367 27,-2103 0,-16 0,-326 5,-357 -16,-53 -110,-111 -163,-111zm-673 2314c0,263 -126,489 -342,489l-242 0c-26,0 -47,0 -73,-6 0,-57 5,-136 5,-226 0,-405 0,-741 5,-1056l247 -6c342,0 400,232 400,558l0 247z"></path> <path class="fil0" d="M10577 2676c-301,129 -689,113 -980,203 -143,45 -281,104 -421,158 -49,19 -64,-2 -46,-50 169,-444 -553,-910 -297,-1403 102,-197 383,-386 685,-257 328,141 92,355 167,580 81,246 332,122 475,8 162,-129 267,-282 499,-168 229,114 350,558 180,747 -74,82 -163,140 -262,182zm-496 -1135c-40,34 -43,41 -46,-4 -1,-26 -6,-53 -14,-79 -51,-170 -225,-330 -357,-386 -202,-87 -536,-110 -742,-17 -467,210 -516,967 -318,1384 50,107 132,200 187,306 65,128 102,255 15,401 -179,298 166,385 367,258 351,-221 621,-296 1045,-305 326,-7 729,-155 911,-436 142,-220 184,-660 27,-890 -131,-192 -389,-372 -626,-378 -93,-2 -338,50 -449,146z"></path> </g> </g> </svg> 