<?xml version="1.0" encoding="UTF-8"?> <!-- Creator: CorelDRAW X8 --> <svg xmlns="http://www.w3.org/2000/svg" xmlns:xlink="http://www.w3.org/1999/xlink" xml:space="preserve" width="49.036mm" height="61.0304mm" style="shape-rendering:geometricPrecision; text-rendering:geometricPrecision; image-rendering:optimizeQuality; fill-rule:evenodd; clip-rule:evenodd" viewBox="0 0 4904 6103"> <defs> <style type="text/css"> <![CDATA[ .fil0 {fill:black;fill-rule:nonzero} ]]> </style> </defs> <g id="Слой_x0020_1"> <metadata id="CorelCorpID_0Corel-Layer"></metadata> <g id="_2342834767088"> <path class="fil0" d="M2687 316c-67,16 -131,55 -188,125 -55,69 -42,115 37,130 55,10 119,3 172,-15 224,-76 223,-78 364,97 55,70 122,94 208,57 48,-21 101,-30 149,-52 123,-54 237,-26 298,80 66,115 162,167 274,208 21,7 45,18 58,35 95,125 191,72 289,6 111,-74 114,-124 20,-220 -112,-114 -253,-167 -398,-222 -322,-124 -651,-206 -1016,-225 -74,-4 -195,-21 -267,-4zm-2340 2320c13,2 20,4 26,1 425,-156 850,-313 1273,-474 22,-9 44,-69 36,-95 -85,-270 -276,-352 -510,-392 -25,-4 -63,18 -81,39 -222,254 -442,510 -661,766 -20,23 -38,48 -56,75 -29,42 -41,77 -27,80zm2967 -1116c212,-71 394,-190 586,-316 62,-40 75,-93 29,-120 -32,-18 -60,-33 -88,-37 -103,-14 -162,-70 -207,-155 -71,-133 -102,-145 -243,-102 -36,11 -73,21 -107,36 -141,63 -256,35 -344,-94 -53,-76 -122,-98 -207,-56 -108,52 -208,63 -295,8 -63,-39 -140,-54 -196,-6 -34,30 -67,58 -99,86 -56,48 -45,109 25,135 171,63 342,124 508,198 176,79 337,181 444,341 41,61 123,105 194,82zm-1138 463c236,-89 463,-174 689,-262 146,-57 159,-100 57,-220 -235,-281 -561,-389 -906,-452 -145,-27 -272,10 -370,138 -51,66 -135,107 -198,166 -20,19 -38,42 -56,67 -28,40 10,75 82,91 249,52 474,204 549,389 28,68 83,109 153,83zm-1743 3840c20,29 39,53 57,52 262,-18 530,-22 783,-84 455,-110 899,-268 1353,-385 268,-69 549,-84 819,-146 351,-82 696,-188 1061,-202 29,-1 76,-50 80,-82 8,-77 -4,-157 -7,-236 -2,-66 -33,-100 -100,-90 -65,9 -130,24 -196,37 -36,8 -72,17 -107,27 -54,14 -108,23 -159,44 -86,34 -156,140 -265,74 -125,-74 -219,-45 -302,64 -20,27 -49,48 -71,74 -59,73 -128,108 -227,92 -48,-8 -111,3 -148,31 -96,69 -199,57 -304,54 -50,-2 -107,-3 -149,18 -89,44 -173,56 -272,35 -105,-21 -223,-44 -301,66 -56,80 -130,109 -222,110 -29,0 -67,1 -86,18 -198,179 -506,77 -697,274 -12,13 -46,13 -66,7 -172,-55 -332,-7 -491,54 -2,1 -3,3 -14,15 -7,8 7,43 31,79zm3616 -1681c-96,115 -232,114 -394,26 -75,-41 -107,16 -143,66 -110,154 -217,198 -352,148 -213,-79 -213,-79 -348,102 -123,164 -123,165 -316,103 -104,-33 -189,-37 -271,62 -130,157 -163,153 -323,26 -95,-75 -183,-59 -244,42 -36,62 -74,123 -117,180 -73,95 -167,122 -281,76 -80,-33 -164,-56 -243,-92 -61,-27 -98,-7 -112,48 -31,115 -118,167 -212,221 -83,48 -146,50 -201,-35 -16,-25 -33,-50 -49,-75 -27,-42 -60,-67 -72,-57 -13,11 -40,78 -41,152 -2,113 27,224 45,337 11,73 66,105 134,76 100,-42 143,-35 318,-11 120,17 232,4 320,-97 25,-28 71,-59 105,-56 165,14 301,-49 432,-136 26,-17 66,-14 97,-26 66,-26 143,-43 194,-88 101,-89 203,-117 333,-82 58,16 124,13 186,6 76,-9 151,-41 227,-42 106,-2 206,3 299,-68 36,-27 100,-14 150,-25 53,-12 112,-20 155,-49 60,-43 102,-114 165,-153 55,-34 148,-78 188,-55 156,89 263,18 376,-73 24,-19 69,-46 84,-37 136,85 235,-87 363,-50 8,2 38,-32 37,-49 -5,-111 -13,-222 -21,-339 -5,-74 -48,-108 -95,-75 -32,23 -62,41 -93,44 -34,3 -69,-8 -108,-22 -58,-22 -125,20 -172,77zm-3790 -46c-1,32 -1,61 2,90 14,150 39,300 48,450 8,128 9,251 155,312 36,14 66,51 89,85 45,64 107,71 155,26 55,-51 104,-117 131,-185 68,-168 75,-175 245,-106 87,36 175,68 263,101 76,28 134,0 175,-63 49,-76 95,-154 136,-233 49,-95 90,-109 177,-51 16,10 30,23 44,35 154,133 221,134 358,-22 79,-90 145,-128 268,-73 164,74 227,41 327,-116 114,-177 114,-177 307,-110 181,63 255,35 354,-132 10,-16 15,-42 29,-48 39,-15 81,-31 122,-30 31,1 60,29 90,45 191,95 196,93 312,-88 4,-7 8,-13 12,-20 45,-89 102,-95 182,-38 36,25 121,47 127,38 54,-94 153,-168 138,-298 -13,-119 -16,-240 -18,-360 -2,-167 -1,-334 -1,-504 0,-74 -33,-149 -73,-168 -41,-19 -83,-24 -95,-12 -7,8 -14,16 -20,24 -111,149 -110,145 -293,91 -30,-10 -82,17 -110,42 -35,32 -53,82 -81,121 -59,82 -136,128 -233,75 -124,-68 -215,-26 -292,72 -93,119 -197,170 -342,85 -67,-39 -129,-29 -171,48 -16,29 -44,52 -66,77 -136,153 -203,163 -395,95 -55,-19 -140,-13 -187,18 -83,54 -149,137 -220,209 -112,113 -146,123 -286,46 -86,-48 -147,-42 -223,22 -102,87 -218,140 -347,39 -20,-15 -50,-18 -75,-23 -139,-27 -210,74 -293,155 -90,86 -160,213 -294,218 -74,2 -130,11 -131,61zm4305 -2620c-6,0 -10,-48 -10,-107 0,-36 0,-72 0,-108 -1,-70 -30,-100 -100,-70 -136,56 -274,106 -405,171 -186,92 -360,207 -549,289 -347,153 -701,291 -1053,430 -101,40 -212,55 -313,95 -332,130 -660,272 -993,397 -263,99 -531,188 -801,264 -130,36 -134,109 -129,215 11,209 4,419 19,627 6,79 32,180 87,225 76,63 163,-3 228,-65 50,-46 91,-102 142,-146 145,-126 222,-237 464,-86 79,50 143,19 202,-38 146,-139 148,-142 332,-55 83,40 148,35 212,-34 78,-82 156,-165 243,-236 36,-30 105,-53 144,-39 303,109 302,112 505,-149 7,-9 12,-23 21,-26 42,-13 94,-44 125,-30 176,79 312,44 415,-119 10,-16 22,-36 37,-42 35,-13 77,-33 107,-23 240,75 242,79 377,-125 53,-79 101,-119 200,-61 109,64 168,34 216,-85 25,-63 51,-106 132,-56 66,41 91,-2 95,-68 16,-270 34,-540 51,-810 5,-74 4,-134 -1,-135zm-3950 4616c-4,1 -8,1 -11,1 -310,27 -373,-23 -405,-330 -21,-202 -37,-405 -59,-607 -30,-264 -75,-527 -92,-792 -22,-338 -20,-677 -31,-1015 -7,-206 -33,-412 -21,-616 6,-97 77,-193 124,-286 188,-364 466,-644 776,-911 445,-384 851,-812 1276,-1220 49,-46 110,-79 161,-124 42,-36 76,-82 119,-119 26,-22 60,-47 93,-50 449,-43 893,-19 1326,114 176,54 363,94 519,185 284,164 434,428 437,763 3,237 -7,475 -1,713 13,520 33,1041 50,1562 13,413 28,826 36,1239 3,163 -6,327 -23,490 -4,39 -53,88 -94,106 -339,148 -695,226 -1062,277 -313,43 -618,137 -927,204 -555,120 -1109,239 -1665,352 -125,25 -253,39 -381,55 -73,8 -133,14 -133,12 -1,-2 -6,-4 -12,-3z"></path> <path class="fil0" d="M809 3093c-30,92 -82,140 -136,120 -68,-25 -141,-84 -172,-148 -27,-56 157,-190 243,-175 18,3 34,16 49,30 23,22 39,103 16,173z"></path> <path class="fil0" d="M1260 3035c-173,0 -173,268 0,268 173,0 173,-268 0,-268z"></path> <path class="fil0" d="M822 4345c37,50 75,93 159,27 91,-70 78,-137 -1,-211 -87,-81 -127,-42 -164,9 -43,61 -38,115 6,175zm347 -53c-35,57 -64,104 -99,146 -151,180 -164,178 -342,21 -48,-42 -100,-79 -150,-119 -48,-38 -39,-74 4,-110 84,-70 166,-141 248,-212 67,-57 131,-64 201,-2 33,28 68,55 104,82 58,45 73,131 34,194z"></path> <path class="fil0" d="M2869 2084c-7,-1 -14,-1 -21,-1 -111,-2 -223,131 -155,234 34,50 104,73 161,51 116,-44 157,-262 15,-284z"></path> <path class="fil0" d="M3607 2048c-2,112 -57,169 -164,169 -69,0 -148,-85 -149,-160 -1,-84 115,-220 185,-217 80,3 130,86 128,208z"></path> <path class="fil0" d="M2312 2339c-67,-11 -125,3 -177,47 -43,36 -67,92 -67,148 0,35 20,76 53,93 53,26 112,28 165,-1 8,-4 15,-9 22,-14 30,-13 50,-34 63,-64 9,-22 12,-44 12,-66 1,-4 3,-8 4,-11 11,-52 -16,-123 -75,-132z"></path> <path class="fil0" d="M4195 1976c7,-99 -65,-179 -193,-110 -108,58 -156,292 15,298 59,3 114,-37 145,-87 20,-33 31,-68 33,-101z"></path> <path class="fil0" d="M4301 1443c-78,0 -121,54 -128,114 -31,79 8,190 119,190 79,0 122,-56 128,-117 30,-79 -9,-187 -119,-187z"></path> <path class="fil0" d="M3612 2364c-172,0 -173,268 0,268 173,0 173,-268 0,-268z"></path> <path class="fil0" d="M1868 2882c-172,0 -173,269 0,269 173,0 173,-269 0,-269z"></path> <path class="fil0" d="M1600 2628c-23,0 -42,6 -57,16 -97,36 -85,207 39,207 23,0 42,-6 58,-16 96,-37 83,-207 -40,-207z"></path> <path class="fil0" d="M2548 2605c-173,0 -173,269 0,269 173,0 173,-269 0,-269z"></path> <path class="fil0" d="M3111 2373c-172,0 -173,268 0,268 173,0 173,-268 0,-268z"></path> <path class="fil0" d="M3396 3464c-34,35 -60,62 -54,73 21,39 49,76 77,111 47,58 122,71 166,30 44,-40 38,-116 -14,-169 -6,-6 -11,-12 -17,-18 -52,-53 -122,-65 -158,-27zm151 -175c13,6 26,14 37,24 70,67 138,137 203,210 68,78 57,163 -27,221 -83,58 -169,113 -258,160 -24,13 -81,5 -98,-15 -82,-96 -158,-199 -234,-302 -11,-16 -15,-43 -12,-63 9,-53 121,-153 224,-210 65,-36 144,-36 165,-25z"></path> <path class="fil0" d="M1773 4147c36,31 66,44 93,42 74,-7 66,-142 13,-193 -36,-34 -67,-45 -99,-35 -71,22 -63,138 -7,186zm338 18c-19,23 -38,44 -59,62 -172,144 -174,144 -361,35 -303,-176 -255,-146 -27,-391 25,-27 53,-53 84,-74 64,-44 118,-66 174,26 43,72 117,124 176,187 12,13 23,27 35,43 17,25 8,75 -22,112z"></path> <path class="fil0" d="M4062 3120c-14,3 -35,32 -46,66 -8,24 -13,47 -5,63 27,60 76,112 124,158 43,42 144,-3 124,-48 -22,-49 -54,-94 -88,-138 -46,-58 -94,-104 -109,-101zm312 324c-35,61 -91,101 -180,132 -88,31 -130,-34 -175,-89 -31,-38 -62,-76 -91,-115 -125,-166 -124,-187 5,-293 144,-119 197,-116 329,31 29,32 55,67 80,102 42,58 70,168 32,232z"></path> <path class="fil0" d="M2474 3827c-32,55 -5,107 76,184 22,21 79,37 97,23 37,-26 90,-64 41,-128 -21,-27 -40,-55 -60,-84 -31,-48 -117,-59 -154,5zm190 -202c67,53 149,163 172,211 78,161 -170,484 -320,331 -77,-77 -145,-163 -208,-252 -16,-24 -13,-88 8,-109 58,-60 207,-232 297,-210 15,3 32,14 51,29z"></path> </g> </g> </svg> 