<?xml version="1.0" encoding="UTF-8"?> <!-- Creator: CorelDRAW X8 --> <svg xmlns="http://www.w3.org/2000/svg" xmlns:xlink="http://www.w3.org/1999/xlink" xml:space="preserve" width="151.342mm" height="67.7332mm" style="shape-rendering:geometricPrecision; text-rendering:geometricPrecision; image-rendering:optimizeQuality; fill-rule:evenodd; clip-rule:evenodd" viewBox="0 0 15134 6773"> <defs> <style type="text/css"> <![CDATA[ .fil0 {fill:black;fill-rule:nonzero} .fil1 {fill:black;fill-rule:nonzero} ]]> </style> </defs> <g id="Слой_x0020_1"> <metadata id="CorelCorpID_0Corel-Layer"></metadata> <g id="_2075573262992"> <path class="fil0" d="M8 3144c-10,138 -10,703 -10,804 0,364 32,787 74,941 111,333 312,470 581,470 122,0 371,0 386,5l6 804 0 412c0,22 37,164 190,164 95,0 122,-16 122,-84l26 -3310c0,-216 -106,-275 -211,-275 -53,0 -117,11 -117,170l0 533c0,566 -10,920 -16,1290l-333 0c-312,0 -380,-343 -380,-1036l0 -470c0,-243 0,-423 -21,-444 -48,-48 -80,-48 -133,-48 -63,0 -111,21 -164,74zm3067 671l0 1814c0,571 16,1084 -80,1084 -84,0 -142,-16 -222,-90 0,0 11,-645 11,-1222 0,-153 16,-676 11,-803l-645 2030c-16,42 -69,63 -127,63 -117,0 -280,-79 -280,-158 -11,-48 -16,-212 -16,-471 0,-745 26,-1977 26,-2273 11,-37 11,-90 90,-116 164,-53 190,79 190,158l0 376c0,349 -21,920 -21,1380 0,179 -16,555 -10,687 216,-598 512,-1613 713,-2305 27,-95 48,-238 132,-291 133,0 217,63 228,137zm639 392c11,-196 37,-323 217,-323 180,0 222,143 222,370l0 185c0,228 -26,508 -243,524l-196 5c-21,26 -26,74 -26,106 0,37 5,74 26,111 96,0 127,-6 201,-6 370,0 397,228 397,603l0 233c0,264 -90,523 -323,523 -105,0 -280,-53 -280,-206l-10 -190c-43,-37 -101,-59 -143,-59 -48,0 -74,22 -111,74l0 196c0,249 243,391 476,391l116 0c523,0 560,-438 560,-1052 0,-137 -21,-391 -137,-523 -53,-58 -127,-106 -217,-143 116,-116 201,-328 201,-692 0,-360 -90,-667 -518,-667 -259,0 -465,164 -465,371l0 206c42,26 68,47 105,47 53,0 101,-26 148,-84zm1486 -540c21,154 26,297 26,439 0,222 -15,439 -15,635 0,79 0,164 5,248 185,-507 275,-671 407,-1078 26,-85 95,-222 132,-238 37,-11 79,-16 116,-16 85,0 106,37 106,111 0,63 -26,164 -42,196 -101,206 -360,814 -529,1168 249,518 413,830 650,1300 16,32 69,143 69,228 0,116 -137,105 -201,111 -84,0 -132,-95 -185,-222 -312,-619 -354,-814 -528,-1111 -22,11 -32,96 -32,149 -16,343 -27,734 -27,946 0,195 -63,206 -158,206 -37,0 -69,-16 -111,-26 -16,-6 -21,-69 -21,-148 26,-730 53,-2078 53,-2549 0,-26 -6,-89 -6,-148 0,-68 -16,-137 6,-158 42,-43 68,-64 126,-64 37,0 85,11 159,21zm1713 265c-90,0 -153,0 -243,21 -32,11 -32,328 -32,359 0,402 -5,471 -5,561 0,100 5,180 26,185 58,21 291,10 370,10 159,0 164,53 164,148 0,85 -58,122 -122,122l-274 0c-122,0 -138,16 -138,100 11,312 -5,836 -5,1010 0,43 10,48 42,48l27 0c126,0 169,-16 343,-16 79,0 153,11 164,37 16,26 16,90 16,116 0,53 -48,85 -95,90 -148,16 -402,32 -587,32 -169,0 -217,-37 -217,-185l0 -238c21,-640 11,-2094 16,-2157 11,-122 0,-349 79,-465 21,-32 133,-43 270,-43 90,0 196,6 285,6 191,0 259,5 259,116 0,106 -26,148 -253,148 -27,0 -58,-5 -90,-5zm1818 -873c-21,-58 -68,-79 -121,-79 -16,0 -48,0 -64,16 -68,95 -163,143 -280,143 -211,0 -222,-148 -349,-175 -63,6 -100,21 -100,80 0,174 164,322 465,322 349,0 449,-307 449,-307zm175 756l0 1814c0,571 16,1084 -79,1084 -85,0 -143,-16 -222,-90 0,0 10,-645 10,-1222 0,-153 16,-676 11,-803l-645 2030c-16,42 -69,63 -127,63 -116,0 -280,-79 -280,-158 -11,-48 -16,-212 -16,-471 0,-745 26,-1977 26,-2273 11,-37 11,-90 90,-116 164,-53 190,79 190,158l0 376c0,349 -21,920 -21,1380 0,179 -16,555 -10,687 217,-598 513,-1613 713,-2305 27,-95 48,-238 133,-291 132,0 216,63 227,137zm756 -148c21,154 26,297 26,439 0,222 -15,439 -15,635 0,79 0,164 5,248 185,-507 275,-671 407,-1078 26,-85 95,-222 132,-238 37,-11 79,-16 116,-16 85,0 106,37 106,111 0,63 -26,164 -42,196 -101,206 -360,814 -529,1168 249,518 412,830 650,1300 16,32 69,143 69,228 0,116 -137,105 -201,111 -84,0 -132,-95 -185,-222 -312,-619 -354,-814 -528,-1111 -22,11 -32,96 -32,149 -16,343 -27,734 -27,946 0,195 -63,206 -158,206 -37,0 -69,-16 -111,-26 -16,-6 -21,-69 -21,-148 26,-730 52,-2078 52,-2549 0,-26 -5,-89 -5,-148 0,-68 -16,-137 5,-158 43,-43 69,-64 127,-64 37,0 85,11 159,21zm2479 148l0 1814c0,571 16,1084 -79,1084 -85,0 -143,-16 -222,-90 0,0 11,-645 11,-1222 0,-153 15,-676 10,-803l-645 2030c-16,42 -69,63 -127,63 -116,0 -280,-79 -280,-158 -10,-48 -16,-212 -16,-471 0,-745 27,-1977 27,-2273 10,-37 10,-90 90,-116 163,-53 190,79 190,158l0 376c0,349 -21,920 -21,1380 0,179 -16,555 -11,687 217,-598 513,-1613 714,-2305 26,-95 47,-238 132,-291 132,0 217,63 227,137z"></path> <path class="fil1" d="M13675 2861c61,-38 111,-95 160,-150 61,-69 128,-140 217,-165 134,-38 281,44 353,163 72,120 83,267 71,406 -19,226 -127,401 -181,612 -52,203 -89,400 -165,599 -99,256 -199,274 -415,115 -262,-191 -527,-384 -763,-605 -152,-143 -277,-327 -374,-513 -158,-304 -9,-566 329,-627 130,-23 258,-3 376,57 117,61 191,191 341,133 18,-7 35,-15 51,-25z"></path> <path class="fil1" d="M14866 1866c-498,-336 -1423,-17 -1376,656 8,125 205,126 196,0 -24,-344 286,-548 595,-584 153,-18 315,-5 450,75 65,38 124,89 162,154 16,27 34,59 39,90 17,41 7,75 -29,101 -38,77 -62,59 -70,-53 66,-108 -104,-207 -170,-99 -144,237 133,518 361,336 244,-194 43,-541 -158,-676z"></path> <path class="fil1" d="M13386 2457c-165,-735 -1072,-1045 -1644,-542 -252,221 -345,737 -64,978 259,221 659,-57 682,-357 12,-159 -104,-360 -288,-327 -149,27 -196,202 -103,310 83,96 221,-43 139,-139 103,119 40,265 -77,346 -147,102 -274,22 -309,-140 -65,-307 97,-550 376,-665 474,-194 988,97 1099,588 27,124 217,71 189,-52z"></path> <path class="fil1" d="M11311 513c-37,-83 -30,-209 83,-220 107,-11 151,92 148,181 -5,126 190,125 196,0 6,-117 66,-279 209,-276 86,1 159,77 116,163 -22,44 -72,76 -109,104 -109,84 -214,179 -228,308 -15,-4 -29,-8 -44,-13 -138,-41 -307,-106 -371,-247zm1351 418c-243,-60 -493,-71 -740,-115 -14,-102 119,-169 186,-223 57,-46 109,-96 140,-164 58,-128 11,-277 -99,-361 -115,-89 -274,-83 -396,-9 -53,32 -94,75 -126,123 -28,-27 -62,-49 -101,-64 -137,-54 -304,-10 -384,117 -195,314 149,595 411,690 192,69 397,106 598,132 214,28 440,29 638,125 344,168 534,550 545,921 4,126 200,127 197,0 -16,-526 -339,-1042 -869,-1172z"></path> </g> </g> </svg> 