<?xml version="1.0" encoding="UTF-8"?> <!-- Creator: CorelDRAW X8 --> <svg xmlns="http://www.w3.org/2000/svg" xmlns:xlink="http://www.w3.org/1999/xlink" xml:space="preserve" width="75.1416mm" height="52.9166mm" style="shape-rendering:geometricPrecision; text-rendering:geometricPrecision; image-rendering:optimizeQuality; fill-rule:evenodd; clip-rule:evenodd" viewBox="0 0 7514 5292"> <defs> <style type="text/css"> <![CDATA[ .fil0 {fill:black;fill-rule:nonzero} ]]> </style> </defs> <g id="Слой_x0020_1"> <metadata id="CorelCorpID_0Corel-Layer"></metadata> <g id="_2342539437776"> <path class="fil0" d="M5315 3227c574,-167 1025,-402 1389,-718 674,-585 644,-1371 -72,-1891 -187,-137 -408,-194 -634,-135 -132,34 -704,408 -585,578 99,141 417,-257 530,-310 239,-113 496,-74 697,99 265,228 335,521 264,848 -82,373 -297,661 -630,847 -305,170 -624,316 -933,479 -54,29 -122,45 -172,86 -82,69 29,151 146,117zm-2704 1744c564,-13 1101,-62 1641,-170 188,-37 307,-473 172,-605 -167,-162 -637,111 -829,157 -320,76 -648,98 -972,39 -66,-12 -131,-27 -198,-22 -66,5 -134,32 -171,88 -39,59 -33,139 -4,203 59,131 205,314 361,310zm3017 -2417c293,-114 555,-260 766,-485 103,-109 182,-257 227,-402 98,-312 -140,-665 -418,-653 -225,11 -523,267 -565,486 -57,296 -114,592 -176,913 -23,119 53,185 166,141zm-4536 -857c6,18 16,37 30,56 64,88 182,114 289,130 542,82 2290,-101 2607,-195 167,-49 610,-58 634,-296 20,-206 -267,-189 -401,-186 -240,6 -507,45 -716,-42 -357,-147 -657,-90 -968,80 -208,114 -421,161 -662,103 -159,-38 -908,78 -813,350zm3992 -731c16,-53 -4,-103 -60,-161 -338,-347 -907,-415 -1365,-465 -545,-58 -1098,-43 -1638,45 -361,59 -1837,297 -1569,955 50,124 191,204 323,183 199,-30 346,-268 517,-369 216,-127 475,-172 720,-122 258,53 449,80 678,-88 238,-175 480,-172 754,-82 212,70 455,139 666,102 242,-41 465,-64 678,28 111,49 268,70 296,-26zm-367 776c-33,23 -64,44 -92,60 -144,77 -296,137 -452,183 -284,85 -590,128 -876,163 -455,57 -916,74 -1375,54 -235,-10 -470,-30 -704,-60 -94,-12 -180,-30 -260,-60 -66,-25 -114,-113 -198,-36 -60,56 -53,152 -36,233 143,692 629,1304 1271,1601 836,387 2070,230 2645,-542 285,-383 409,-860 483,-1331 22,-136 17,-313 -111,-363 -99,-38 -204,34 -295,98zm686 -1209c26,-36 50,-68 75,-99 343,-432 1061,-345 1403,-23 149,140 304,281 424,445 302,411 226,854 30,1273 -241,515 -680,841 -1180,1080 -261,125 -538,218 -808,324 -123,49 -250,91 -371,146 -269,124 -290,158 -248,445 21,143 62,283 89,426 61,328 -82,541 -411,575 -612,63 -1224,135 -1837,156 -450,16 -547,-65 -623,-490 -56,-318 -201,-537 -444,-733 -424,-342 -676,-816 -917,-1291 -136,-270 -257,-547 -383,-822 -40,-87 -76,-177 -114,-265 -360,-841 558,-1304 1209,-1469 670,-170 1366,-233 2055,-188 608,40 1291,123 1804,477 99,69 207,88 247,33z"></path> <path class="fil0" d="M2974 2479c161,14 257,134 239,298 -20,171 -153,288 -316,277 -166,-11 -312,-160 -297,-302 16,-149 206,-288 374,-273z"></path> <path class="fil0" d="M2315 3673c-152,-19 -244,-124 -230,-266 13,-147 178,-315 302,-310 148,7 337,205 322,337 -17,144 -209,261 -394,239z"></path> <path class="fil0" d="M1974 2954c-116,138 -219,174 -340,112 -77,-40 -142,-152 -164,-243 -40,-162 94,-237 218,-282 130,-48 216,-13 284,55 86,85 80,265 2,358z"></path> <path class="fil0" d="M3664 3020c77,8 138,45 167,134 34,107 -9,257 -61,367 -62,129 -210,130 -313,62 -60,-40 -98,-156 -96,-236 2,-51 16,-102 34,-153 28,-82 149,-188 269,-174z"></path> <path class="fil0" d="M3886 2490c17,-174 160,-309 306,-290 148,19 242,153 226,319 -16,172 -158,284 -328,259 -147,-20 -220,-124 -204,-288z"></path> </g> </g> </svg> 