<?xml version="1.0" encoding="UTF-8"?> <!-- Creator: CorelDRAW X8 --> <svg xmlns="http://www.w3.org/2000/svg" xmlns:xlink="http://www.w3.org/1999/xlink" xml:space="preserve" width="94.5444mm" height="37.3944mm" style="shape-rendering:geometricPrecision; text-rendering:geometricPrecision; image-rendering:optimizeQuality; fill-rule:evenodd; clip-rule:evenodd" viewBox="0 0 9454 3739"> <defs> <style type="text/css"> <![CDATA[ .fil0 {fill:black;fill-rule:nonzero} ]]> </style> </defs> <g id="Слой_x0020_1"> <metadata id="CorelCorpID_0Corel-Layer"></metadata> <path class="fil0" d="M1449 626c-90,-513 -397,-624 -720,-624 -328,0 -502,201 -592,460 -64,191 -64,249 -74,466 37,47 111,74 190,74 11,0 90,-11 106,-27 42,-169 0,-709 407,-709 265,0 397,360 408,746 5,133 16,371 16,683l-646 0c-69,0 -127,85 -127,154 0,68 37,142 106,142l672 0c0,90 5,196 5,313 0,492 -53,1132 -428,1132 -212,0 -466,-206 -466,-529 0,-64 0,-138 5,-217 -10,-64 -90,-90 -153,-90 -143,0 -154,95 -154,206 0,143 6,291 53,408 133,317 381,497 694,497 502,0 698,-391 735,-857 27,-323 32,-915 32,-1275 0,-297 -11,-614 -69,-953zm741 0c21,154 26,297 26,439 0,223 -16,440 -16,635 0,80 0,164 6,249 185,-508 275,-672 407,-1079 27,-85 95,-223 132,-239 38,-10 80,-15 117,-15 85,0 106,37 106,111 0,63 -27,164 -43,196 -100,206 -359,814 -529,1169 249,519 413,831 651,1302 16,31 69,143 69,227 0,117 -138,106 -201,111 -85,0 -132,-95 -185,-222 -313,-619 -355,-815 -530,-1111 -21,10 -31,95 -31,148 -16,344 -27,736 -27,947 0,196 -63,207 -159,207 -37,0 -68,-16 -111,-27 -16,-5 -21,-69 -21,-148 27,-730 53,-2080 53,-2551 0,-26 -5,-90 -5,-148 0,-69 -16,-137 5,-158 42,-43 69,-64 127,-64 37,0 85,11 159,21zm1810 349l333 2620c11,47 21,90 69,90 127,-6 211,-37 211,-148 0,-16 0,-32 -5,-53l-339 -2456c-21,-164 -58,-397 -238,-397 -264,0 -285,239 -322,413 -175,831 -307,1657 -445,2450 -11,32 -11,64 -11,90 0,69 27,90 59,90 42,0 190,-53 217,-74 53,-137 148,-884 164,-947 169,-868 233,-1439 307,-1678zm1481 -84c-90,0 -153,0 -243,21 -32,11 -32,328 -32,360 0,402 -5,471 -5,561 0,100 5,180 26,185 58,21 291,10 371,10 158,0 164,53 164,149 0,84 -58,121 -122,121l-275 0c-122,0 -138,16 -138,101 11,312 -5,836 -5,1011 0,42 11,47 42,47l27 0c127,0 169,-16 344,-16 79,0 153,11 164,37 16,27 16,90 16,117 0,53 -48,84 -96,90 -148,16 -402,32 -587,32 -169,0 -217,-38 -217,-186l0 -238c21,-640 11,-2095 16,-2159 11,-122 0,-349 79,-465 21,-32 133,-43 270,-43 90,0 196,5 286,5 190,0 259,6 259,117 0,106 -26,148 -254,148 -26,0 -58,-5 -90,-5zm672 32l-21 2714c0,58 48,74 127,74 127,0 175,-153 175,-174 0,0 -6,-133 -6,-307 0,-265 6,-646 27,-667 5,-5 201,-5 302,-5 222,0 402,-111 497,-387 42,-137 74,-534 74,-852 0,-137 0,-349 -74,-465 -116,-191 -307,-233 -534,-233 -202,0 -514,21 -567,275l0 27zm302 15c5,-47 122,-79 201,-79 323,0 381,164 381,497l-5 477c0,264 -133,471 -334,471l-254 0c-5,-413 -5,-746 11,-1366zm1831 985l-323 0 16 -821c0,-15 0,-328 5,-359 -16,-53 -111,-112 -164,-112 -37,0 -122,32 -132,90l-21 2800c0,58 21,169 100,169l556 0c524,-5 561,-429 561,-1042 0,-138 -21,-387 -138,-519 -95,-106 -233,-206 -460,-206zm1000 -1292c-37,0 -122,32 -132,90l-21 2800c0,58 21,169 100,169 127,0 175,-143 175,-164 0,0 10,-138 10,-307 0,-847 11,-1376 27,-2117 0,-15 0,-328 5,-359 -16,-53 -111,-112 -164,-112zm-677 2329c0,264 -127,492 -344,492l-244 0c-26,0 -47,0 -74,-5 0,-59 5,-138 5,-228 0,-407 0,-746 6,-1064l248 -5c344,0 403,233 403,561l0 249z"></path> </g> </svg> 