<?xml version="1.0" encoding="UTF-8"?> <!-- Creator: CorelDRAW X8 --> <svg xmlns="http://www.w3.org/2000/svg" xmlns:xlink="http://www.w3.org/1999/xlink" xml:space="preserve" width="58.561mm" height="70.2026mm" style="shape-rendering:geometricPrecision; text-rendering:geometricPrecision; image-rendering:optimizeQuality; fill-rule:evenodd; clip-rule:evenodd" viewBox="0 0 5856 7020"> <defs> <style type="text/css"> <![CDATA[ .fil0 {fill:black;fill-rule:nonzero} ]]> </style> </defs> <g id="Слой_x0020_1"> <metadata id="CorelCorpID_0Corel-Layer"></metadata> <g id="_2306435111328"> <path class="fil0" d="M2427 6310c932,-537 1719,-578 2016,-1778 78,-493 259,-1153 -620,-1233 -325,-18 -530,-7 -751,264 -46,56 -107,117 -173,135 -103,29 -253,68 -313,18 -224,-187 285,-1690 -1213,-1742 -992,116 -1137,1111 -961,1931 127,593 424,1076 831,1553 222,261 594,556 820,828 95,114 235,99 364,24zm881 -3338c106,-17 204,-33 302,-44 964,-107 1726,551 1360,1728 -214,690 -675,1167 -1303,1501 -469,250 -987,411 -1381,794 -99,96 -235,78 -309,-40 -501,-805 -1238,-1435 -1662,-2300 -336,-687 -406,-1387 -224,-2114 226,-900 1161,-1289 1962,-826 397,230 695,549 843,994 20,58 44,115 70,176 43,97 196,156 342,131z"></path> <path class="fil0" d="M3033 147c26,82 48,156 64,232 56,275 106,551 146,828 21,145 34,297 17,441 -8,67 -95,172 -150,174 -62,3 -161,-79 -184,-145 -54,-152 -72,-317 -104,-477 -50,-246 -106,-492 -146,-740 -23,-140 -32,-279 64,-395 95,-114 253,-45 293,82z"></path> <path class="fil0" d="M4439 2135c45,-45 92,-84 146,-102 349,-114 707,-204 1065,-284 61,-14 160,52 208,108 21,24 -27,160 -72,178 -444,185 -882,403 -1385,343 -14,-1 -25,-20 -47,-54 -23,-35 14,-119 85,-189z"></path> <path class="fil0" d="M3831 1499c-11,-64 -16,-121 8,-159 143,-223 314,-427 488,-627 36,-41 163,-66 192,-39 54,51 98,149 90,221 -20,166 -261,449 -520,632 -121,85 -243,60 -258,-28z"></path> </g> </g> </svg> 